<svg width="272" height="272" viewBox="0 0 272 272" fill="none" xmlns="http://www.w3.org/2000/svg">
<path d="M137 271.996C136.667 271.999 136.334 272 136 272C98.401 272 64.3657 256.742 39.7478 232.081L51.841 220.132C73.3768 241.675 103.132 255 136 255C136.334 255 136.667 254.999 137 254.996V271.996Z" fill="#F6F6F6"/>
<path d="M138 271.986C175.077 271.451 208.562 256.08 232.786 231.543L220.715 219.688L220.704 219.699L220.646 219.642C199.508 241.032 170.321 254.451 138 254.984V271.986Z" fill="#F6F6F6"/>
<path d="M233.486 230.829C257.321 206.331 272 172.88 272 136H255C255 168.24 242.179 197.486 221.357 218.917L233.486 230.829Z" fill="#F6F6F6"/>
<path d="M271.996 135C271.731 98.0952 256.766 64.6855 232.665 40.3348L220.644 52.3558C241.668 73.6298 254.731 102.79 254.996 135H271.996Z" fill="#F6F6F6"/>
<path d="M231.959 39.6266L219.938 51.6474L219.936 51.6455C198.857 30.6701 169.961 17.5431 138 17.0165V0.0144067C174.657 0.542816 207.803 15.5737 231.959 39.6266Z" fill="#F6F6F6"/>
<path d="M137 0.00359962V17.0041C136.667 17.0014 136.334 17 136 17C103.76 17 74.514 29.8211 53.0833 50.6428L41.1669 38.5182C65.6655 14.6811 99.1183 0 136 0C136.334 0 136.667 0.00120124 137 0.00359962Z" fill="#F6F6F6"/>
<path d="M40.4527 39.2182C15.6979 63.6591 0.273447 97.5279 0.00359962 135H17.0041C17.2735 102.275 30.752 72.6993 52.369 51.3427L40.4527 39.2182Z" fill="#F6F6F6"/>
<path d="M0 136C0 173.152 14.8972 206.825 39.0439 231.37L51.137 219.422C30.0241 197.947 17 168.495 17 136H0Z" fill="#F6F6F6"/>
<path d="M12.9357 115.156C12.3293 115.027 11.7192 114.907 11.1129 114.779L11.3089 114.643L10.9206 116.493C10.8486 116.895 10.6927 117.276 10.4632 117.613C10.2631 117.89 9.98847 118.104 9.67145 118.23C9.31987 118.34 8.94632 118.36 8.58506 118.288C8.22381 118.216 7.88642 118.054 7.60384 117.818C7.33736 117.575 7.15823 117.252 7.09414 116.897C7.00724 116.484 7.00838 116.058 7.09747 115.645L7.57591 113.389C9.40036 113.788 11.2193 114.174 13.0551 114.546L12.9357 115.156ZM12.1714 118.959C11.6165 118.387 11.0599 117.792 10.5126 117.202L10.6358 116.582C11.1869 117.164 11.738 117.745 12.2946 118.34L12.1714 118.959ZM10.9534 114.746L7.78465 114.068L7.98986 113.936L7.61877 115.718C7.49993 116.164 7.54398 116.637 7.74298 117.054C7.84478 117.228 7.98559 117.375 8.15432 117.486C8.32306 117.596 8.51509 117.665 8.71525 117.688C8.91096 117.745 9.11681 117.756 9.31762 117.722C9.51842 117.688 9.70904 117.61 9.87541 117.492C10.2072 117.203 10.4209 116.802 10.4758 116.366L10.849 114.552L10.9534 114.746ZM13.9906 110.693C13.9083 111.023 13.7468 111.328 13.52 111.581C13.2846 111.833 12.9856 112.017 12.6546 112.114C12.2611 112.203 11.8525 112.202 11.4595 112.111C11.0665 112.02 10.6992 111.841 10.3854 111.587C10.1217 111.358 9.93301 111.055 9.84375 110.718C9.75336 110.363 9.75281 109.992 9.84215 109.637C9.93058 109.259 10.1139 108.91 10.3749 108.623C10.6243 108.346 10.946 108.145 11.3038 108.041C11.6784 107.939 12.0736 107.939 12.4477 108.044C12.8282 108.139 13.1778 108.33 13.4633 108.599C13.7242 108.855 13.9101 109.177 14.0007 109.531C14.0988 109.913 14.0953 110.313 13.9906 110.693ZM14.9629 113.153C13.0959 112.726 11.2252 112.308 9.35822 111.881L9.47732 111.324C9.89262 111.418 10.3079 111.512 10.7102 111.612C11.1124 111.711 11.2513 111.768 11.5181 111.855C11.7849 111.942 12.084 111.924 12.3697 111.965C13.2781 112.174 14.1828 112.392 15.0912 112.601L14.9629 113.153ZM13.4491 110.591C13.5222 110.316 13.5249 110.028 13.4569 109.752C13.3798 109.489 13.2349 109.251 13.0366 109.062C12.8169 108.852 12.5436 108.707 12.2466 108.642C11.9581 108.559 11.6521 108.557 11.3627 108.638C11.0943 108.714 10.8514 108.861 10.6596 109.063C10.4617 109.275 10.3251 109.537 10.2642 109.82C10.1924 110.104 10.1935 110.402 10.2674 110.685C10.3489 110.951 10.4952 111.193 10.6932 111.389C10.9169 111.587 11.1886 111.724 11.4815 111.786C11.7731 111.859 12.0783 111.857 12.3691 111.781C12.6342 111.702 12.8736 111.553 13.063 111.352C13.2577 111.137 13.3911 110.875 13.4491 110.591ZM15.5861 104.378C14.7572 104.742 13.9299 105.128 13.0989 105.523L12.9542 104.978C13.895 104.552 14.832 104.135 15.7746 103.731L15.5861 104.378ZM14.7439 107.393C13.389 107.035 12.0471 106.67 10.6922 106.312L10.8411 105.735L14.8945 106.839L14.7439 107.393ZM13.0453 106.527L12.569 106.397L12.937 105.046L13.4133 105.176L13.0453 106.527ZM13.2883 105.006L13.0804 105.515C12.562 104.774 12.0604 104.019 11.5512 103.281L11.7283 102.663C12.2838 103.419 12.7997 104.245 13.3253 105.021L13.2883 105.006ZM16.5419 101.323C16.4357 101.695 16.2342 102.033 15.9574 102.304C15.6923 102.561 15.3644 102.744 15.0066 102.834C14.6267 102.92 14.2308 102.904 13.8593 102.787C13.4796 102.689 13.1358 102.485 12.8681 102.199C12.6226 101.922 12.4546 101.585 12.3811 101.222C12.3038 100.833 12.3304 100.431 12.4581 100.055C12.5675 99.6695 12.774 99.3187 13.0578 99.0359C13.3226 98.7747 13.6551 98.5925 14.0179 98.5098C14.3998 98.425 14.7979 98.449 15.1668 98.5793C15.5402 98.6935 15.8747 98.9086 16.1336 99.2008C16.3772 99.476 16.5462 99.809 16.6244 100.168C16.7032 100.556 16.6876 100.957 16.5789 101.338L16.5419 101.323ZM16.079 101.134C16.1658 100.861 16.1838 100.572 16.1314 100.291C16.0736 100.022 15.943 99.7746 15.754 99.5751C15.5449 99.3568 15.2842 99.1946 14.996 99.1036C14.7117 99.0069 14.407 98.9868 14.1125 99.0453C13.8411 99.0956 13.5914 99.2272 13.3967 99.4228C13.1821 99.6216 13.0261 99.8755 12.9458 100.157C12.8577 100.433 12.8416 100.728 12.8988 101.013C12.9536 101.282 13.0847 101.531 13.2763 101.728C13.4832 101.949 13.7488 102.106 14.0419 102.181C14.3288 102.272 14.634 102.289 14.9292 102.23C15.1957 102.167 15.4419 102.037 15.6449 101.853C15.8463 101.669 16.0024 101.44 16.1009 101.186L16.079 101.134ZM18.1855 96.3445C18.0642 96.7216 17.8475 97.061 17.5564 97.3298C17.2854 97.5833 16.9492 97.7565 16.5853 97.8299C16.2038 97.9116 15.8069 97.8843 15.4401 97.7511C15.0668 97.6369 14.7322 97.4218 14.4733 97.1296C14.2396 96.841 14.0824 96.4982 14.0162 96.1328C13.9599 95.7285 14.0056 95.3164 14.1491 94.9342C14.2555 94.609 14.4355 94.3129 14.6752 94.0688C14.8952 93.8319 15.1842 93.6703 15.5012 93.6068L15.6256 94.122C15.3835 94.1822 15.1631 94.3094 14.9898 94.4889C14.8173 94.6691 14.6854 94.884 14.6028 95.1194C14.508 95.398 14.4829 95.6955 14.5298 95.9861C14.5761 96.2586 14.6963 96.5132 14.8774 96.7221C15.0804 96.9479 15.3411 97.1141 15.6316 97.2028C15.9128 97.3068 16.2175 97.3302 16.5113 97.2704C16.7857 97.2206 17.0414 97.0972 17.2511 96.9135C17.4574 96.7165 17.6128 96.4722 17.7037 96.2018C17.7873 95.9716 17.8176 95.7255 17.7924 95.4819C17.7729 95.2373 17.6851 95.0031 17.5391 94.806L17.9553 94.5007C18.1582 94.7456 18.284 95.045 18.3169 95.3612C18.3438 95.708 18.2938 96.0564 18.1704 96.3815L18.1855 96.3445ZM19.3494 93.0176C18.1643 92.5338 16.9398 92.1202 15.7434 91.6642L15.9297 91.5782L15.3011 93.2766L14.8475 93.0914C15.2963 91.8597 15.7507 90.641 16.2273 89.4207L16.6903 89.6096L16.0061 91.2854L15.9147 91.086L19.5223 92.4617L19.3494 93.0176ZM18.6164 87.4581C18.7568 87.0407 19.0393 86.6858 19.4146 86.4554C19.5813 86.367 19.7668 86.3199 19.9556 86.318C20.1443 86.3161 20.3307 86.3595 20.4992 86.4446C20.6779 86.5137 20.8383 86.623 20.968 86.764C21.0977 86.905 21.1933 87.0739 21.2473 87.2577C21.3435 87.7091 21.2846 88.1798 21.08 88.5935L20.4261 90.1952C19.1299 89.666 17.8338 89.1368 16.5377 88.6076L16.7645 88.0521C17.2181 88.2374 17.6903 88.4301 18.1161 88.604L18.6164 87.4581ZM20.676 88.4718C20.822 88.19 20.87 87.8676 20.8125 87.5554C20.772 87.4248 20.7016 87.3054 20.6069 87.2067C20.5122 87.1081 20.3958 87.0328 20.2669 86.987C20.1503 86.9262 20.0202 86.8958 19.8886 86.8988C19.7571 86.9017 19.6285 86.9379 19.5147 87.004C19.2549 87.1921 19.0576 87.4541 18.9485 87.7557L18.5214 88.8019C19.0954 89.0362 19.6694 89.2706 20.2527 89.5087L20.676 88.4718ZM25.2045 79.4437C24.3623 79.5752 23.5294 79.7104 22.689 79.8641L22.6503 79.2974C23.6022 79.1352 24.5466 78.9915 25.5023 78.82L25.2045 79.4437ZM22.4759 80.8356L22.0316 80.6542L22.6104 79.4216L23.0641 79.6068L22.4759 80.8356ZM22.9764 79.3982L22.6667 79.8658C22.2429 79.1311 21.8322 78.391 21.4123 77.647L21.7005 77.0734C22.131 77.8972 22.5489 78.6728 22.9798 79.4428L22.9764 79.3982ZM23.0806 84.0637L22.8198 84.7025L21.3595 82.1945L21.8149 81.8727C22.2088 82.6276 22.6401 83.3438 23.0806 84.0637ZM24.2539 81.5075L24.0384 82.0352C22.7687 81.4412 21.5046 80.8603 20.2349 80.2663L20.4617 79.7108C21.7427 80.277 22.9842 80.9135 24.2408 81.513L24.2539 81.5075ZM22.3907 81.0709L21.8211 82.3073L21.3674 82.1221L21.9371 80.8856L22.3907 81.0709ZM21.6146 82.3634C20.748 82.5281 19.8664 82.7298 19.0112 82.8667L19.2531 82.2742C20.0843 82.1167 20.9117 81.9684 21.7484 81.8239L21.6146 82.3634ZM25.965 78.0044L22.2105 76.1151L22.4335 75.5689L25.4052 77.0738C24.8574 75.77 24.3511 74.3643 23.778 72.9638L24.0301 72.505C25.264 73.1601 26.4942 73.8243 27.7374 74.4831L27.4627 74.9974C26.4766 74.476 25.4943 73.9453 24.5082 73.4239C25.0258 74.8018 25.5547 76.1519 26.1522 77.5192L25.965 78.0044ZM29.1245 72.1439C28.9708 72.4152 28.7817 72.6649 28.5622 72.8864C28.3507 73.1019 28.1031 73.2787 27.8305 73.4086L27.5509 73.0352C27.7897 72.9162 28.0093 72.7618 28.2022 72.5774C28.3893 72.3791 28.5517 72.1589 28.686 71.9217C28.8082 71.7174 28.8987 71.4957 28.9544 71.2643C28.9875 71.0844 28.978 70.8993 28.9267 70.7237C28.8772 70.5794 28.7771 70.458 28.645 70.3819C28.5524 70.327 28.4465 70.2989 28.3389 70.3007C28.2313 70.3026 28.1264 70.3343 28.0358 70.3924C27.7847 70.5542 27.5832 70.7821 27.4536 71.0512L27.0943 71.693L26.7244 71.488L27.0685 70.8832C27.1649 70.7146 27.2386 70.5341 27.2878 70.3462C27.3255 70.1988 27.3214 70.0438 27.2761 69.8986C27.2565 69.8356 27.2246 69.777 27.1822 69.7264C27.1399 69.6757 27.0879 69.6339 27.0294 69.6035C26.9678 69.5674 26.8994 69.5444 26.8285 69.5359C26.7577 69.5274 26.6858 69.5336 26.6174 69.5541C26.4527 69.6041 26.3036 69.6958 26.1847 69.8203C26.0349 69.9779 25.9051 70.1535 25.7985 70.3431C25.6903 70.543 25.6041 70.7541 25.5414 70.9726C25.4699 71.2066 25.4325 71.4496 25.4305 71.6942L24.9592 71.6314C24.9644 71.3589 25.0025 71.0879 25.0727 70.8244C25.1369 70.5747 25.2348 70.3349 25.3637 70.1116C25.5075 69.8239 25.6983 69.5623 25.9282 69.3375C26.121 69.1559 26.3533 69.0215 26.6069 68.9449C26.7148 68.9151 26.8276 68.9068 26.9387 68.9207C27.0499 68.9345 27.1572 68.9702 27.2544 69.0257C27.4268 69.1242 27.5581 69.2813 27.6246 69.4684C27.6921 69.677 27.709 69.8986 27.6738 70.115C27.6261 70.3664 27.5285 70.6057 27.3865 70.8186L27.2666 70.7156C27.45 70.3544 27.7339 70.054 28.0842 69.8505C28.2181 69.7786 28.3683 69.7425 28.5203 69.7459C28.6722 69.7492 28.8207 69.7919 28.9513 69.8697C29.1617 69.9924 29.3201 70.1876 29.3968 70.4188C29.4747 70.6809 29.4911 70.9574 29.4449 71.2269C29.3984 71.5537 29.295 71.8697 29.1393 72.1607L29.1245 72.1439ZM30.6691 69.3397L27.0538 67.2155L27.3471 66.7088L28.9485 67.6543C29.4128 66.8609 29.8826 66.0806 30.3617 65.3041L28.7808 64.3346L29.0964 63.8262C30.2833 64.57 31.474 65.3046 32.6647 66.0391L32.3567 66.529L30.7422 65.589C30.2662 66.3668 29.7964 67.1472 29.3328 67.93L30.9342 68.8754L30.6691 69.3397ZM33.5363 64.6451C32.3531 63.8921 31.1793 63.1428 29.9924 62.3989L30.3172 61.8943C31.2508 62.4915 32.1843 63.0886 33.1233 63.6988C32.7063 62.2864 32.3022 60.8685 31.9281 59.4304L32.2172 58.9867C33.3759 59.7731 34.5385 60.5501 35.6972 61.3365L35.3837 61.8133L32.5965 59.9625C32.9888 61.3828 33.3971 62.7989 33.8216 64.2108L33.5363 64.6451Z" fill="black"/>
<path d="M167.945 15.4217C168.01 15.2756 168.153 15.1755 168.26 15.0591C168.465 15.3153 168.71 15.5362 168.986 15.713C169.27 15.8922 169.577 16.0299 169.899 16.1218C170.186 16.191 170.481 16.2161 170.775 16.1963C171.036 16.1808 171.289 16.1025 171.513 15.968C171.714 15.8331 171.86 15.6297 171.923 15.3955C171.964 15.2512 171.966 15.0986 171.929 14.9531C171.893 14.8077 171.818 14.6746 171.713 14.5674C171.428 14.2926 171.068 14.1086 170.679 14.0384L169.453 13.7415L169.563 13.2758L170.761 13.5605C171.091 13.662 171.444 13.6594 171.773 13.5532C171.902 13.5066 172.017 13.4279 172.107 13.3246C172.197 13.2214 172.26 13.0968 172.289 12.9627C172.317 12.8665 172.325 12.7657 172.313 12.6662C172.301 12.5668 172.269 12.4708 172.22 12.3838C172.122 12.1847 171.967 12.0197 171.774 11.9104C171.557 11.7579 171.312 11.6483 171.053 11.5874C170.762 11.5066 170.46 11.4712 170.158 11.4823C169.837 11.4891 169.518 11.5419 169.211 11.639L169.117 11.1149C169.496 11.0026 169.889 10.9496 170.283 10.9578C170.661 10.9652 171.036 11.0261 171.397 11.1386C171.719 11.237 172.02 11.3942 172.285 11.6021C172.521 11.7765 172.712 12.0047 172.841 12.2678C172.953 12.5129 172.973 12.7902 172.897 13.0487C172.837 13.2932 172.7 13.5121 172.507 13.6741C172.307 13.8433 172.061 13.9502 171.8 13.9817C171.495 14.0218 171.184 13.9984 170.888 13.9131L170.954 13.7671C171.282 13.8428 171.592 13.9816 171.866 14.1759C172.101 14.3418 172.284 14.5718 172.391 14.8384C172.491 15.0888 172.505 15.3647 172.434 15.6244C172.37 15.8743 172.231 16.0988 172.036 16.268C171.839 16.445 171.601 16.5718 171.345 16.6376C171.062 16.71 170.771 16.742 170.48 16.7326C170.164 16.7124 169.852 16.6536 169.551 16.5574C169.231 16.4589 168.924 16.3216 168.638 16.1486C168.371 15.9428 168.138 15.6977 167.945 15.4217ZM176.293 18.0651C176.641 16.9716 176.979 15.8739 177.322 14.7895L175.268 14.1653C175.141 14.4482 175.06 14.7516 174.961 15.0467C174.861 15.3419 174.732 15.5578 174.621 15.8042C174.54 16.0484 174.435 16.2838 174.307 16.507C174.214 16.6874 174.083 16.8456 173.924 16.9709C173.862 17.0218 173.79 17.0586 173.713 17.0789C173.636 17.0992 173.555 17.1025 173.476 17.0884L172.938 16.8473C173.012 16.8713 173.091 16.8781 173.168 16.8671C173.245 16.856 173.319 16.8275 173.383 16.7836C173.542 16.6701 173.674 16.524 173.772 16.3552C173.894 16.1329 173.998 15.9009 174.083 15.6616L174.379 14.8522C174.526 14.4028 174.677 13.9666 174.824 13.5172C175.88 13.8259 176.941 14.1477 177.985 14.4838C177.59 15.7315 177.187 16.9752 176.792 18.2229L176.293 18.0651ZM172.394 18.2581C172.525 17.769 172.657 17.28 172.797 16.7951C174.396 17.2373 175.979 17.716 177.558 18.2261C177.395 18.712 177.25 19.1837 177.087 19.6696L176.569 19.5037L176.878 18.546C175.652 18.1506 174.428 17.7775 173.182 17.4277L172.91 18.4017L172.394 18.2581ZM180.127 19.6834C179.758 19.5547 179.426 19.3384 179.16 19.0531C178.918 18.7752 178.752 18.4403 178.675 18.0801C178.59 17.6976 178.617 17.2988 178.752 16.9309C178.866 16.5579 179.087 16.2264 179.387 15.9773C179.674 15.7395 180.02 15.5839 180.388 15.5273C180.79 15.469 181.2 15.5132 181.58 15.6556C181.969 15.7887 182.319 16.0169 182.598 16.3195C182.846 16.5989 183.011 16.9423 183.074 17.3108C183.144 17.6948 183.104 18.091 182.957 18.4528C182.819 18.8187 182.587 19.1419 182.285 19.39C181.994 19.6183 181.649 19.7658 181.283 19.8177C180.892 19.8693 180.495 19.8231 180.127 19.6834ZM180.331 19.2271C180.601 19.327 180.891 19.3592 181.177 19.3209C181.447 19.2739 181.699 19.1566 181.91 18.9808C182.144 18.7867 182.322 18.5333 182.424 18.2471C182.537 17.9663 182.572 17.6601 182.526 17.361C182.478 17.0881 182.358 16.8332 182.176 16.6239C181.975 16.4083 181.725 16.2439 181.448 16.1444C181.17 16.0448 180.873 16.0131 180.581 16.0518C180.303 16.0907 180.044 16.2108 179.835 16.3969C179.607 16.5968 179.439 16.8546 179.347 17.1428C179.247 17.4265 179.22 17.731 179.268 18.0279C179.326 18.2984 179.451 18.55 179.631 18.76C179.816 18.9623 180.047 19.1181 180.304 19.2148L180.331 19.2271ZM185.408 21.7637C185.088 21.6312 184.805 21.4218 184.585 21.1542C184.372 20.876 184.236 20.5469 184.191 20.1996C184.158 19.7949 184.223 19.3881 184.382 19.0143C184.524 18.6361 184.761 18.3008 185.07 18.0405C185.348 17.8214 185.682 17.6861 186.034 17.6503C186.383 17.6222 186.734 17.6779 187.057 17.8126C187.427 17.9624 187.752 18.2062 188 18.52C188.236 18.8091 188.383 19.1604 188.424 19.5315C188.455 19.9199 188.388 20.31 188.228 20.6658C188.069 21.0215 187.823 21.3313 187.512 21.5667C187.214 21.7801 186.864 21.9108 186.499 21.9455C186.116 21.9757 185.731 21.909 185.38 21.7515L185.408 21.7637ZM182.76 22.342C183.468 20.5661 184.18 18.7812 184.896 17.0094L185.426 17.2465L184.911 18.3964L184.567 19.163C184.453 19.4186 184.411 19.7068 184.32 19.9837C183.94 20.8325 183.624 21.7099 183.271 22.5709L182.76 22.342ZM185.523 21.3112C185.785 21.4243 186.071 21.4735 186.357 21.4547C186.631 21.4232 186.892 21.3211 187.114 21.1584C187.358 20.976 187.549 20.7334 187.671 20.4543C187.791 20.1824 187.841 19.8849 187.817 19.5886C187.785 19.3074 187.677 19.04 187.507 18.814C187.321 18.5839 187.084 18.4009 186.814 18.2801C186.545 18.1593 186.25 18.1042 185.955 18.1192C185.676 18.1532 185.412 18.2619 185.19 18.4338C184.952 18.6157 184.773 18.8629 184.674 19.1451C184.555 19.4219 184.506 19.7238 184.532 20.0239C184.572 20.2992 184.682 20.5597 184.851 20.7803C185.04 20.9955 185.275 21.1647 185.539 21.2747L185.523 21.3112ZM190.048 23.9295C189.693 23.7686 189.386 23.5179 189.157 23.202C188.941 22.9026 188.807 22.5518 188.769 22.1845C188.734 21.7944 188.804 21.4019 188.972 21.0479C189.132 20.6909 189.387 20.3845 189.708 20.1616C190.021 19.9586 190.383 19.8442 190.755 19.8305C191.162 19.8249 191.564 19.9152 191.929 20.0941C192.295 20.273 192.613 20.5353 192.858 20.86C193.082 21.1592 193.211 21.5185 193.229 21.8917C193.255 22.2801 193.173 22.6682 192.99 23.0119C192.81 23.3605 192.541 23.6559 192.212 23.8687C191.904 24.0704 191.546 24.1832 191.178 24.1947C190.788 24.1871 190.405 24.0835 190.064 23.893L190.048 23.9295ZM190.252 23.4732C190.506 23.6073 190.792 23.6709 191.079 23.6573C191.355 23.644 191.622 23.5553 191.851 23.4006C192.1 23.2308 192.301 23.0004 192.436 22.7311C192.579 22.465 192.645 22.1648 192.628 21.8636C192.614 21.5874 192.525 21.3203 192.371 21.0911C192.2 20.849 191.97 20.6552 191.702 20.5288C191.436 20.3923 191.138 20.3308 190.84 20.3506C190.563 20.3602 190.295 20.4493 190.067 20.6074C189.819 20.7799 189.624 21.0194 189.506 21.2982C189.373 21.5688 189.31 21.8686 189.324 22.1699C189.349 22.4468 189.445 22.7126 189.603 22.9413C189.779 23.1601 190.008 23.3306 190.268 23.4367L190.252 23.4732ZM193.103 25.4511C193.753 24.2193 194.416 22.9825 195.08 21.7457L196.84 22.7092C197.214 22.8898 197.528 23.175 197.743 23.5301C197.822 23.6696 197.862 23.828 197.858 23.9883C197.854 24.1487 197.806 24.3048 197.719 24.4398C197.648 24.58 197.54 24.6986 197.408 24.7837C197.275 24.8688 197.123 24.9172 196.966 24.924C196.587 24.9294 196.215 24.8273 195.892 24.6296L196.085 24.5408C196.452 24.7136 196.754 24.9986 196.948 25.3545C197.002 25.4982 197.022 25.6525 197.007 25.8053C196.992 25.9581 196.942 26.1053 196.86 26.2356C196.783 26.3809 196.671 26.5049 196.534 26.5966C196.398 26.6883 196.241 26.7449 196.077 26.7613C195.636 26.7706 195.203 26.6454 194.835 26.4024L193.103 25.4511ZM193.805 25.3272L195.01 25.9876C195.252 26.1394 195.528 26.2291 195.813 26.2488C195.924 26.2447 196.032 26.2104 196.125 26.1497C196.218 26.089 196.292 26.004 196.34 25.9041C196.404 25.8166 196.442 25.7136 196.452 25.606C196.461 25.4985 196.442 25.3903 196.395 25.293C196.251 25.0494 196.035 24.8568 195.776 24.7419L194.502 24.0397C194.304 24.4331 194.076 24.868 193.821 25.2907L193.805 25.3272ZM194.705 23.6596L195.865 24.2995C196.094 24.4448 196.359 24.522 196.631 24.522C196.737 24.5172 196.841 24.4841 196.93 24.426C197.02 24.3679 197.092 24.2869 197.14 24.1914C197.196 24.1028 197.227 24.0005 197.23 23.8955C197.233 23.7906 197.207 23.6869 197.155 23.5955C197.014 23.3629 196.808 23.1759 196.564 23.0567L195.386 22.4086C195.188 22.8019 194.968 23.2186 194.74 23.6312L194.705 23.6596ZM200.451 26.5616C200.841 26.7789 201.147 27.1204 201.32 27.5317C201.376 27.7031 201.391 27.8851 201.365 28.0634C201.338 28.2417 201.27 28.4113 201.167 28.5588C201.073 28.7404 200.936 28.8959 200.767 29.0117C200.599 29.1274 200.404 29.1997 200.201 29.2221C199.736 29.233 199.28 29.0904 198.904 28.8163L197.479 27.8385C198.202 26.6394 198.917 25.4363 199.64 24.2372L200.155 24.5554L199.398 25.8052L200.451 26.5616ZM199.107 28.4362C199.36 28.6281 199.67 28.7286 199.988 28.7209C200.124 28.704 200.254 28.6554 200.368 28.579C200.482 28.5026 200.577 28.4006 200.645 28.2811C200.725 28.1761 200.778 28.0526 200.798 27.9219C200.818 27.7912 200.805 27.6576 200.761 27.5332C200.609 27.2439 200.378 27.0038 200.095 26.8408L199.12 26.2288C198.803 26.7661 198.477 27.2992 198.15 27.8323L199.107 28.4362ZM202.834 31.4421C202.488 31.2168 202.204 30.9089 202.008 30.5462C201.837 30.2152 201.753 29.8458 201.765 29.4733C201.79 29.0823 201.917 28.7046 202.135 28.3788C202.342 28.0682 202.628 27.8182 202.964 27.6542C203.293 27.4938 203.66 27.4271 204.025 27.4613C204.418 27.498 204.794 27.6362 205.116 27.8624C205.443 28.0792 205.705 28.3784 205.879 28.7297C206.044 29.0574 206.111 29.4262 206.071 29.7912C206.016 30.1747 205.855 30.535 205.605 30.8317C205.598 30.8608 205.585 30.8885 205.569 30.9138L205.536 30.9868C204.497 30.2477 203.455 29.5178 202.391 28.8111L202.626 28.4564C203.603 29.113 204.567 29.7748 205.522 30.4547L205.236 30.458C205.403 30.2305 205.505 29.9614 205.53 29.6801C205.558 29.4122 205.512 29.1417 205.398 28.8979C205.264 28.6413 205.068 28.4221 204.829 28.2596C204.596 28.0956 204.325 27.9932 204.042 27.9619C203.769 27.9304 203.494 27.9828 203.252 28.1119C203 28.2462 202.786 28.4397 202.627 28.6757L202.59 28.7578C202.421 29.0013 202.321 29.2852 202.298 29.5804C202.288 29.866 202.354 30.1491 202.49 30.4004C202.63 30.6425 202.818 30.8539 203.042 31.022C203.266 31.1901 203.522 31.3114 203.794 31.3788C204.032 31.4424 204.283 31.4456 204.524 31.388L204.58 31.8735C204.289 31.9441 203.985 31.9433 203.694 31.871C203.393 31.7706 203.113 31.6156 202.868 31.4138L202.834 31.4421Z" fill="black"/>
<path d="M62.0457 34.7013C61.7159 34.9312 61.3468 35.099 60.9567 35.1963C60.5884 35.2751 60.2085 35.2838 59.837 35.222C59.4794 35.1631 59.1367 35.035 58.8281 34.845C58.4946 34.6375 58.2061 34.3652 57.9795 34.0442C57.7514 33.7504 57.5839 33.4143 57.4868 33.0553C57.3985 32.6949 57.3899 32.3196 57.4616 31.9556C57.5376 31.5928 57.6863 31.2492 57.8985 30.9453C58.1318 30.6062 58.4272 30.3143 58.769 30.0851C59.1063 29.8553 59.4818 29.6875 59.878 29.5896C60.2505 29.491 60.641 29.4821 61.0177 29.5635L60.9096 30.0861C60.5953 30.0231 60.271 30.0305 59.9599 30.1078C59.6524 30.1871 59.361 30.319 59.0986 30.4977C58.8249 30.6793 58.5891 30.9123 58.4041 31.1838C58.2262 31.4336 58.1063 31.72 58.0532 32.022C58.005 32.3173 58.0119 32.619 58.0736 32.9118C58.146 33.2203 58.2821 33.5102 58.4732 33.7629C58.659 34.0251 58.8954 34.2476 59.1684 34.4171C59.43 34.5704 59.717 34.6756 60.0157 34.7278C60.3144 34.7758 60.6193 34.7688 60.9155 34.7071C61.2318 34.6305 61.5308 34.4947 61.7966 34.3069C62.0554 34.1375 62.281 33.9222 62.4622 33.6714C62.639 33.4174 62.7587 33.128 62.8128 32.8232L63.3452 32.921C63.2901 33.2864 63.147 33.633 62.9282 33.9308C62.6843 34.2401 62.385 34.5013 62.0457 34.7013ZM66.8643 31.53L66.3561 30.7415L66.2536 30.6338L65.3933 29.3232C65.3152 29.1911 65.2108 29.0764 65.0866 28.9864C64.9624 28.8963 64.821 28.8327 64.6711 28.7996C64.4969 28.7737 64.3193 28.7828 64.1485 28.8262C63.9778 28.8696 63.8174 28.9465 63.6767 29.0524C63.4451 29.1985 63.2397 29.3824 63.069 29.5965C62.9208 29.7915 62.8074 30.0107 62.7337 30.2443L62.2688 30.0349C62.3621 29.7528 62.5089 29.4913 62.7013 29.2648C62.9114 29.0058 63.1632 28.7837 63.4464 28.6076C63.8306 28.3272 64.3063 28.202 64.7787 28.2569C65.0049 28.3013 65.2186 28.3946 65.4048 28.5303C65.5911 28.666 65.7454 28.8408 65.857 29.0425L67.2877 31.2403L66.8643 31.53ZM65.6327 32.3485C65.3911 32.5042 65.122 32.6122 64.8398 32.6667C64.6067 32.7043 64.3677 32.6787 64.1479 32.5925C63.94 32.5021 63.7628 32.3533 63.638 32.1641C63.5192 31.9943 63.4489 31.7954 63.4347 31.5886C63.4233 31.3576 63.4923 31.1298 63.63 30.944C63.8251 30.6723 64.0756 30.4449 64.3649 30.277L65.6369 29.4776L65.8651 29.8325L64.6229 30.6211C64.3456 30.753 64.1265 30.9824 64.0075 31.2654C63.9789 31.3632 63.9734 31.4662 63.9913 31.5664C64.0092 31.6667 64.0501 31.7614 64.1107 31.8432C64.1723 31.9369 64.2546 32.0152 64.3513 32.072C64.448 32.1287 64.5565 32.1624 64.6684 32.1705C64.9524 32.1709 65.2296 32.0842 65.4629 31.9222C65.7172 31.7713 65.9236 31.5516 66.0585 31.2884C66.1749 31.0343 66.2069 30.7497 66.1499 30.4761L66.476 30.7387C66.5309 31.0318 66.4887 31.3348 66.3558 31.6017C66.1907 31.911 65.9441 32.1692 65.6427 32.3482L65.6327 32.3485ZM68.6597 30.4386C67.9122 29.2454 67.1447 28.0527 66.3676 26.8802L66.8906 26.5681C68.0538 27.1316 69.1975 27.7156 70.3414 28.3095L70.1242 28.4345L70.1578 24.6628C70.3259 24.5789 70.4838 24.4853 70.6417 24.3916C71.3995 25.5946 72.1272 26.7982 72.8552 28.0119L72.3811 28.2728C71.7683 27.2866 71.144 26.2306 70.5105 25.2148L70.6305 25.2121C70.6573 26.3818 70.5939 27.5435 70.5807 28.7141L70.3538 28.8494C69.2808 28.2938 68.1882 27.7587 67.0959 27.2336L67.184 27.1516C67.8368 28.1369 68.4795 29.1224 69.1137 30.1681L68.6597 30.4386ZM75.9291 26.401C75.5716 26.5848 75.1775 26.6861 74.7756 26.6975C74.3991 26.6893 74.03 26.5914 73.6988 26.4121C73.3465 26.2263 73.0502 25.95 72.8402 25.6116C72.6297 25.2826 72.52 24.8991 72.5249 24.5085C72.5286 24.1503 72.6352 23.8006 72.8319 23.5012C73.0584 23.1696 73.3655 22.901 73.7242 22.7206C74.0855 22.5168 74.4925 22.4077 74.9073 22.4034C75.2927 22.4025 75.6713 22.5043 76.0043 22.6983C76.3592 22.8888 76.6483 23.182 76.8338 23.5395C77.034 23.872 77.1332 24.2555 77.1192 24.6433C77.1091 25.0036 76.9955 25.3534 76.7922 25.651C76.5722 25.9659 76.2796 26.223 75.9391 26.4008L75.9291 26.401ZM75.6689 25.9569C75.9327 25.8319 76.1567 25.6364 76.3161 25.3919C76.4677 25.1616 76.5485 24.892 76.5484 24.6163C76.5481 24.3149 76.4652 24.0193 76.3088 23.7616C76.1588 23.4907 75.9396 23.2645 75.6736 23.106C75.4317 22.9558 75.1528 22.8756 74.8681 22.8744C74.5659 22.8747 74.2686 22.9503 74.0029 23.0943C73.743 23.2255 73.5231 23.424 73.3659 23.669C73.2127 23.8979 73.135 24.169 73.1436 24.4443C73.1474 24.7466 73.2338 25.042 73.3932 25.2988C73.5491 25.5625 73.7671 25.7842 74.0282 25.9444C74.2816 26.0797 74.5657 26.1474 74.8529 26.1408C75.1401 26.1342 75.4208 26.0536 75.6678 25.9069L75.6689 25.9569ZM80.7152 23.9907C80.3434 24.1725 79.9351 24.2674 79.5212 24.2682C79.1354 24.2526 78.759 24.1446 78.4237 23.9532C78.0846 23.7442 77.8056 23.4508 77.614 23.1015C77.4151 22.7646 77.3128 22.3793 77.3184 21.988C77.3436 21.6257 77.467 21.2771 77.6754 20.9796C77.9316 20.6447 78.2702 20.3819 78.6582 20.2169C78.9687 20.0625 79.3063 19.9698 79.6522 19.944C80.0042 19.9283 80.3534 20.0141 80.6581 20.191L80.3783 20.6376C80.1487 20.5183 79.8928 20.4588 79.6341 20.4646C79.3723 20.4769 79.1155 20.5405 78.8782 20.6519C78.6105 20.7794 78.3806 20.9742 78.211 21.2174C78.0504 21.4416 77.9592 21.708 77.9485 21.9836C77.9401 22.288 78.02 22.5884 78.1783 22.8485C78.3297 23.1037 78.5405 23.3185 78.7929 23.4746C79.0376 23.6282 79.3197 23.7116 79.6086 23.716C79.8836 23.7224 80.1567 23.6681 80.4083 23.5568C80.6599 23.4456 80.8839 23.2802 81.0642 23.0725C81.2198 22.884 81.3217 22.6571 81.3593 22.4156L81.901 22.4832C81.872 22.7977 81.75 23.0965 81.5505 23.3414C81.3267 23.616 81.0448 23.8377 80.7252 23.9905L80.7152 23.9907ZM84.9417 22.0434C84.5699 22.211 84.164 22.2888 83.7566 22.2706C83.3711 22.2463 82.9974 22.1278 82.6684 21.9254C82.3308 21.7089 82.0551 21.4085 81.8682 21.0535C81.6772 20.7106 81.5852 20.3214 81.6024 19.9293C81.6298 19.5623 81.7644 19.2115 81.9894 18.9202C82.243 18.5896 82.5835 18.3359 82.9728 18.1875C83.3534 18.0028 83.7756 17.9208 84.1977 17.9494C84.5911 17.964 84.9736 18.0829 85.3059 18.2941C85.6482 18.511 85.9223 18.8202 86.0965 19.1862C86.2787 19.5317 86.3604 19.9214 86.3324 20.3111C86.2926 20.6788 86.1518 21.0282 85.9254 21.3207C85.6693 21.6422 85.3336 21.8912 84.9517 22.0432L84.9417 22.0434ZM84.7112 21.5885C84.9857 21.4722 85.2259 21.2877 85.4091 21.0524C85.5802 20.8406 85.6887 20.5852 85.7223 20.315C85.7361 20.0136 85.6669 19.7142 85.5224 19.4494C85.3876 19.1664 85.178 18.9256 84.9163 18.7531C84.6729 18.592 84.3912 18.4984 84.0999 18.4817C83.7947 18.461 83.4893 18.5197 83.2135 18.6521C82.9398 18.7649 82.702 18.9502 82.5256 19.188C82.3621 19.4086 82.2641 19.6709 82.2429 19.9447C82.2327 20.2469 82.3053 20.5461 82.4528 20.8101C82.5866 21.0822 82.7891 21.3146 83.0404 21.4843C83.2917 21.654 83.5829 21.7551 83.8853 21.7775C84.185 21.7849 84.4821 21.7198 84.7512 21.5876L84.7112 21.5885ZM89.3413 20.2321C89.0217 20.356 88.6874 20.4376 88.3466 20.475C88.0175 20.543 87.6788 20.5507 87.3469 20.4979L87.3364 20.038C87.6188 20.0771 87.9058 20.0705 88.1861 20.0185C88.4761 19.982 88.7602 19.9083 89.0313 19.7991C89.2569 19.7077 89.4666 19.5814 89.6529 19.4248C89.8011 19.3079 89.915 19.1532 89.9828 18.9771C90.0342 18.8343 90.0306 18.6775 89.9727 18.5372C89.9219 18.4358 89.8456 18.3494 89.7511 18.2867C89.6567 18.2239 89.5475 18.1869 89.4343 18.1794C89.1169 18.156 88.7986 18.2114 88.5078 18.3407L87.7944 18.6371L87.6057 18.2614L88.2794 17.9759C88.4683 17.9071 88.6451 17.8085 88.8028 17.6838C88.9254 17.5891 89.0194 17.4623 89.0745 17.3175C89.1002 17.2572 89.1127 17.1921 89.1112 17.1266C89.1097 17.061 89.0942 16.9966 89.0658 16.9376C89.0332 16.868 88.9864 16.8061 88.9284 16.7557C88.8703 16.7054 88.8024 16.6677 88.729 16.6452C88.5584 16.5863 88.3761 16.5699 88.1978 16.5974C87.9696 16.6344 87.7463 16.6966 87.5318 16.7827C87.3194 16.8794 87.1176 16.998 86.9298 17.1365C86.7232 17.2801 86.5355 17.4491 86.3712 17.6395L86.0535 17.3067C86.2326 17.0922 86.4363 16.8995 86.6605 16.7326C86.8729 16.569 87.105 16.4326 87.3513 16.3267C87.6659 16.1847 88.0019 16.0958 88.3456 16.0638C88.6272 16.0315 88.9124 16.0661 89.1781 16.1648C89.291 16.1997 89.3955 16.2576 89.485 16.3347C89.5745 16.4118 89.6472 16.5065 89.6985 16.613C89.7402 16.7036 89.7629 16.8018 89.7652 16.9015C89.7675 17.0013 89.7493 17.1004 89.7118 17.1928C89.6423 17.398 89.5186 17.5806 89.3538 17.7212C89.1578 17.8998 88.9304 18.0407 88.6832 18.1366L88.6797 17.9867C89.0688 17.8072 89.4999 17.7385 89.9255 17.7881C90.0845 17.81 90.2358 17.8699 90.3668 17.9626C90.4977 18.0554 90.6044 18.1783 90.6779 18.321C90.7275 18.4323 90.7545 18.5524 90.7573 18.6743C90.7601 18.7961 90.7386 18.9173 90.6942 19.0308C90.5939 19.293 90.4268 19.5244 90.2094 19.7021C89.953 19.9279 89.6593 20.1072 89.3413 20.2321ZM92.4726 18.94C91.8729 17.6534 91.2631 16.3571 90.6437 15.0809L91.2285 14.8475L92.0379 16.5594L94.7656 15.5566C94.5124 14.9823 94.2392 14.4084 93.976 13.8343L94.5712 13.6206C95.1713 14.9272 95.7512 16.2242 96.3224 17.5815L95.7469 17.7847L94.9773 16.0619C94.0644 16.3829 93.152 16.7239 92.2495 17.0647C92.5225 17.6285 92.7857 18.2027 93.049 18.7768L92.4726 18.94ZM100.709 16.0706C100.592 15.7732 100.466 15.486 100.349 15.1886L100.266 15.0605C100.055 14.5752 99.8529 14.0697 99.642 13.5944C99.5876 13.4426 99.5008 13.3044 99.3876 13.1895C99.2744 13.0747 99.1376 12.9858 98.9865 12.9292C98.6416 12.8117 98.2661 12.8203 97.9268 12.9535C97.654 13.0457 97.3972 13.1798 97.1657 13.351C96.9609 13.5026 96.7884 13.6936 96.6585 13.9128L96.2115 13.613C96.3747 13.3497 96.5909 13.1233 96.8464 12.9483C97.1473 12.7339 97.4815 12.5708 97.8356 12.4655C98.318 12.289 98.8452 12.2769 99.3352 12.4311C99.558 12.5149 99.7601 12.6455 99.9279 12.8143C100.096 12.983 100.225 13.1859 100.308 13.4091C100.657 14.2213 100.996 15.0438 101.364 15.8655L100.709 16.0706ZM99.2106 16.5951C98.9162 16.698 98.6053 16.7458 98.2936 16.7361C98.0412 16.725 97.7956 16.6516 97.5785 16.5224C97.3767 16.3923 97.2189 16.2041 97.126 15.9826C97.0349 15.7937 97.0056 15.5809 97.0421 15.3744C97.0876 15.1423 97.214 14.9338 97.3987 14.7861C97.6761 14.5618 97.9953 14.3947 98.3377 14.2944L99.8667 13.7993L100.036 14.1955L98.5268 14.6902C98.21 14.7568 97.927 14.9334 97.728 15.1887C97.6836 15.2793 97.6616 15.3793 97.6639 15.4802C97.6662 15.5811 97.6928 15.68 97.7413 15.7685C97.7867 15.8788 97.8575 15.9769 97.948 16.0547C98.0384 16.1326 98.1459 16.1881 98.2617 16.2167C98.5613 16.292 98.8756 16.2848 99.1714 16.1958C99.4687 16.1091 99.7353 15.94 99.9405 15.7081C100.133 15.4956 100.237 15.2179 100.233 14.9312C100.325 15.0391 100.428 15.1468 100.52 15.2647C100.512 15.5653 100.394 15.8523 100.189 16.0725C99.9135 16.321 99.5745 16.4881 99.2097 16.5551L99.2106 16.5951ZM102.874 15.4008C102.344 14.0726 101.813 12.7444 101.243 11.4371L101.859 11.253C102.102 11.8376 102.346 12.4221 102.58 13.0169C103.523 12.7252 104.477 12.4533 105.431 12.1814L104.731 10.417L105.347 10.2428C105.887 11.5808 106.408 12.9192 106.908 14.2081L106.302 14.372C106.068 13.7872 105.844 13.1922 105.611 12.5974L102.769 13.4227C103.002 14.0075 103.246 14.6021 103.469 15.1871L102.874 15.4008ZM108.648 13.7681C108.158 12.429 107.646 11.0803 107.126 9.74192L107.752 9.57752C108.156 10.6385 108.561 11.7095 108.956 12.7808C109.585 11.446 110.215 10.1212 110.865 8.796L111.432 8.66297C111.923 10.0121 112.414 11.3712 112.876 12.731L112.259 12.8751C111.874 11.7937 111.489 10.7122 111.094 9.64097C110.455 10.966 109.825 12.2907 109.185 13.6258L108.648 13.7681ZM116.678 11.9336C116.233 12.0445 115.769 12.0552 115.319 11.9648C114.909 11.8767 114.527 11.6897 114.206 11.4201C113.895 11.1583 113.659 10.8185 113.523 10.4355C113.385 10.0725 113.355 9.67695 113.437 9.2972C113.529 8.94185 113.728 8.62318 114.006 8.38392C114.322 8.11673 114.699 7.93272 115.104 7.84863C115.523 7.73833 115.961 7.72829 116.384 7.8193C116.783 7.91567 117.152 8.11005 117.457 8.38486C117.759 8.64926 117.984 8.98943 118.11 9.37017C118.118 9.39961 118.118 9.43038 118.112 9.46014L118.114 9.54012C116.74 9.81168 115.366 10.1032 114.013 10.4043C113.959 10.2655 113.916 10.1264 113.863 9.98763C115.117 9.70883 116.371 9.45002 117.636 9.19099L117.431 9.40574C117.34 9.11919 117.171 8.86341 116.944 8.6667C116.721 8.4637 116.454 8.31566 116.164 8.23446C115.849 8.17115 115.525 8.17858 115.214 8.25623C114.934 8.32417 114.676 8.46072 114.463 8.65354C114.256 8.82623 114.11 9.06113 114.048 9.32322C113.975 9.60276 113.982 9.89708 114.067 10.173L114.069 10.263C114.171 10.5633 114.35 10.8317 114.587 11.0413C114.833 11.239 115.12 11.3794 115.427 11.4522C115.759 11.5093 116.098 11.5015 116.427 11.4293C116.694 11.3772 116.949 11.2764 117.18 11.1319C117.393 10.9992 117.571 10.8166 117.698 10.5999L118.165 10.8893C118.016 11.1577 117.801 11.3831 117.54 11.5438C117.273 11.7069 116.982 11.8251 116.677 11.8937L116.678 11.9336Z" fill="black"/>
<path d="M243.519 74.4179L243.434 74.2149L243.342 73.9934L243.808 73.734C243.832 73.8208 243.867 73.9045 243.912 73.9831C243.973 74.0782 244.055 74.1575 244.153 74.2148C244.25 74.2721 244.359 74.3057 244.472 74.3129C244.791 74.3165 245.107 74.2477 245.396 74.1116C245.87 73.9073 246.327 73.6658 246.763 73.3894L248.766 72.1638C249.507 73.2994 250.229 74.4606 250.934 75.6474C249.327 76.5997 247.716 77.5428 246.118 78.4913L245.811 77.9907C247.312 77.0938 248.808 76.1877 250.309 75.2908L250.258 75.507C249.711 74.5865 249.141 73.6868 248.557 72.7817L248.783 72.8284C248.199 73.1695 247.619 73.5198 247.049 73.8662C246.478 74.2127 246.172 74.362 245.764 74.5538C245.459 74.6915 245.139 74.7958 244.811 74.865C244.565 74.9195 244.308 74.9066 244.069 74.8277C243.846 74.7539 243.653 74.6102 243.519 74.4179ZM247.022 80.0101L250.686 77.9614L250.982 78.4882C250.451 78.7746 249.924 79.0702 249.394 79.3566L250.031 80.5209L249.57 80.7673L248.937 79.6122C248.392 79.9156 247.846 80.2189 247.297 80.513L247.022 80.0101ZM248.697 83.2447C248.519 82.9106 248.433 82.5348 248.449 82.1563C248.461 81.7926 248.572 81.4391 248.77 81.1338C248.982 80.8086 249.272 80.5422 249.615 80.3595C249.957 80.1768 250.34 80.0838 250.729 80.0891C251.097 80.102 251.455 80.2197 251.759 80.4285C252.086 80.6563 252.349 80.9646 252.522 81.3236C252.705 81.6745 252.794 82.0666 252.781 82.4619C252.764 82.83 252.647 83.1865 252.441 83.4921C252.215 83.8094 251.908 84.0608 251.553 84.2202C251.205 84.389 250.821 84.4675 250.435 84.4484C250.071 84.4185 249.721 84.2958 249.419 84.092C249.109 83.8768 248.86 83.5848 248.697 83.2447ZM249.149 83.056C249.267 83.3054 249.451 83.5178 249.68 83.6703C249.91 83.8227 250.177 83.9093 250.453 83.9207C250.755 83.9267 251.054 83.8612 251.327 83.7295C251.599 83.6017 251.835 83.4065 252.011 83.1623C252.168 82.9294 252.258 82.6577 252.271 82.3771C252.284 82.0965 252.219 81.8178 252.084 81.5715C251.96 81.3128 251.767 81.0933 251.527 80.9371C251.303 80.7801 251.037 80.6946 250.764 80.6921C250.462 80.6868 250.164 80.7623 249.901 80.911C249.633 81.0456 249.404 81.2458 249.234 81.4929C249.079 81.7212 248.99 81.9873 248.975 82.2627C248.96 82.538 249.02 82.8123 249.149 83.056ZM250.894 88.0167C250.767 87.7293 250.697 87.42 250.687 87.106C250.687 86.8181 250.754 86.5341 250.883 86.2767C251.029 85.9926 251.229 85.7398 251.472 85.5325C251.783 85.2813 252.126 85.0727 252.492 84.912C252.796 84.7708 253.116 84.6663 253.445 84.6008C253.728 84.5464 254.018 84.539 254.303 84.5788C254.549 84.6105 254.787 84.6876 255.005 84.8062C255.222 84.9167 255.421 85.0604 255.594 85.2321C255.771 85.4023 255.929 85.5905 256.067 85.7934C256.467 86.3632 256.867 86.933 257.234 87.4736L256.779 87.7607L255.697 86.1536L255.417 85.7937C255.297 85.6517 255.163 85.5224 255.017 85.4077C254.848 85.2839 254.659 85.1906 254.458 85.1319C254.214 85.0641 253.96 85.0451 253.709 85.0761C253.375 85.1237 253.051 85.2224 252.747 85.3688C252.664 85.4035 252.6 85.4304 252.554 85.4497L252.406 85.5113C252.357 85.5318 252.283 85.5627 252.184 85.6037L252.265 85.2775C252.571 85.2045 252.891 85.2048 253.197 85.2786C253.497 85.3487 253.774 85.4942 254.002 85.7013C254.261 85.9306 254.463 86.2177 254.59 86.5395C254.741 86.8875 254.803 87.2676 254.77 87.6455C254.741 87.9934 254.613 88.3255 254.4 88.6019C254.187 88.8798 253.9 89.093 253.573 89.2177C253.243 89.345 252.884 89.3824 252.535 89.3259C252.179 89.2777 251.845 89.1271 251.574 88.8925C251.279 88.646 251.043 88.3375 250.882 87.989L250.894 88.0167ZM251.36 87.8872C251.46 88.1491 251.63 88.378 251.853 88.5485C252.059 88.7135 252.309 88.8162 252.572 88.8443C252.848 88.8814 253.128 88.8466 253.386 88.7432C253.639 88.6469 253.859 88.4799 254.02 88.2621C254.179 88.0568 254.275 87.8095 254.297 87.5504C254.328 87.259 254.28 86.9646 254.158 86.6982C254.05 86.43 253.877 86.1931 253.654 86.0092C253.454 85.8391 253.209 85.7305 252.949 85.6964C252.679 85.6651 252.405 85.7117 252.16 85.8307C251.909 85.9363 251.69 86.1062 251.526 86.3231C251.362 86.5401 251.257 86.7964 251.224 87.0665C251.196 87.3372 251.239 87.6105 251.349 87.8595L251.36 87.8872ZM252.762 92.8065C252.627 92.4564 252.586 92.0771 252.642 91.706C252.698 91.3349 252.85 90.9848 253.082 90.6902C253.334 90.3892 253.66 90.1596 254.029 90.0244C254.39 89.8739 254.787 89.8325 255.171 89.9053C255.538 89.9732 255.879 90.1425 256.155 90.3941C256.449 90.6691 256.67 91.0122 256.799 91.393C256.941 91.775 256.982 92.1867 256.919 92.5891C256.863 92.9562 256.701 93.2988 256.453 93.5747C256.198 93.8712 255.863 94.0867 255.487 94.1944C255.117 94.3246 254.718 94.3485 254.335 94.2635C253.978 94.1895 253.649 94.0197 253.382 93.7724C253.087 93.5034 252.869 93.1604 252.751 92.7788L252.762 92.8065ZM253.224 92.614C253.311 92.8864 253.469 93.1307 253.682 93.3222C253.885 93.5032 254.134 93.6242 254.402 93.6719C254.701 93.7249 255.008 93.7011 255.294 93.603C255.586 93.5187 255.848 93.3532 256.049 93.1257C256.232 92.9212 256.352 92.6678 256.395 92.3963C256.453 92.1094 256.427 91.8117 256.319 91.5394C256.231 91.259 256.066 91.0086 255.844 90.8166C255.638 90.6275 255.382 90.5011 255.107 90.4523C254.81 90.4093 254.507 90.4426 254.226 90.5489C253.94 90.6521 253.684 90.8258 253.483 91.0539C253.31 91.2681 253.193 91.5219 253.141 91.7925C253.101 92.069 253.13 92.351 253.224 92.614ZM253.836 95.9776L257.856 94.7556L258.423 96.6861C258.552 97.078 258.57 97.4984 258.474 97.8999C258.429 98.0549 258.343 98.1948 258.225 98.305C258.107 98.4152 257.961 98.4917 257.804 98.5264C257.653 98.5715 257.494 98.5769 257.341 98.542C257.187 98.5072 257.046 98.4333 256.93 98.3276C256.662 98.0671 256.477 97.7331 256.399 97.3678L256.588 97.4301C256.723 97.8106 256.733 98.2246 256.615 98.6108C256.549 98.7492 256.452 98.8706 256.332 98.9657C256.212 99.0609 256.072 99.1272 255.922 99.1596C255.766 99.2071 255.601 99.2156 255.44 99.1843C255.28 99.153 255.129 99.0829 255.002 98.9801C254.692 98.6798 254.478 98.2937 254.388 97.8711C254.2 97.2128 254.027 96.5913 253.836 95.9776ZM254.427 96.3811L254.799 97.6886C254.863 97.9628 254.992 98.2176 255.174 98.4315C255.257 98.5052 255.358 98.5561 255.466 98.5793C255.575 98.6024 255.687 98.597 255.793 98.5635C255.899 98.5442 255.999 98.4979 256.082 98.429C256.165 98.3601 256.229 98.271 256.268 98.1702C256.336 97.8962 256.322 97.6082 256.226 97.3425L255.827 95.9704C255.365 96.1091 254.89 96.2424 254.427 96.3811ZM256.23 95.8456C256.4 96.2517 256.482 96.6832 256.596 97.1124C256.653 97.3739 256.786 97.6126 256.98 97.7976C257.057 97.8688 257.152 97.9187 257.255 97.9422C257.358 97.9658 257.465 97.9622 257.567 97.9319C257.669 97.9101 257.763 97.8616 257.841 97.7912C257.918 97.7209 257.975 97.6313 258.006 97.5317C258.073 97.2642 258.061 96.9834 257.972 96.7225L257.602 95.4465C257.145 95.5721 256.685 95.6885 256.242 95.8733L256.23 95.8456ZM258.181 101.923C258.304 102.351 258.273 102.809 258.092 103.217C258.003 103.383 257.876 103.526 257.72 103.632C257.565 103.739 257.386 103.806 257.199 103.828C257.009 103.875 256.811 103.878 256.62 103.835C256.429 103.792 256.251 103.706 256.099 103.583C255.764 103.265 255.549 102.842 255.491 102.384C255.377 101.825 255.254 101.27 255.117 100.709C256.479 100.39 257.838 100.062 259.209 99.7388L259.344 100.322L257.913 100.659C258.01 101.073 258.102 101.501 258.181 101.923ZM255.907 102.265C255.945 102.579 256.09 102.871 256.317 103.091C256.424 103.175 256.549 103.233 256.683 103.261C256.816 103.288 256.955 103.283 257.086 103.247C257.216 103.234 257.341 103.188 257.448 103.113C257.556 103.038 257.642 102.936 257.698 102.818C257.81 102.514 257.823 102.182 257.736 101.87L257.512 100.761C256.897 100.898 256.296 101.041 255.681 101.178L255.907 102.265Z" fill="black"/>
<path d="M245.11 208.113L240.37 205.149C241.222 203.82 242.041 202.467 242.844 201.097L247.681 203.927L247.366 204.447C245.858 203.556 244.357 202.679 242.849 201.788L243.064 201.734C242.405 202.849 241.727 203.957 241.031 205.057L240.977 204.842L245.401 207.679L245.11 208.113ZM249.768 200.28C249.598 200.6 249.349 200.871 249.045 201.068C248.749 201.253 248.408 201.352 248.059 201.354C247.651 201.344 247.252 201.226 246.903 201.012C246.549 200.826 246.247 200.554 246.024 200.221C245.839 199.928 245.739 199.591 245.735 199.245C245.737 198.903 245.822 198.568 245.984 198.267C246.161 197.927 246.424 197.638 246.747 197.431C247.05 197.227 247.405 197.114 247.77 197.106C248.157 197.093 248.541 197.183 248.883 197.366C249.24 197.536 249.54 197.805 249.747 198.141C249.946 198.452 250.048 198.815 250.043 199.184C250.044 199.573 249.947 199.957 249.76 200.299L249.768 200.28ZM249.971 203.041L244.964 200.208L245.232 199.723L246.33 200.343C246.591 200.447 246.801 200.649 247.042 200.799L247.832 201.113C248.652 201.569 249.458 202.03 250.278 202.485L249.971 203.041ZM249.294 200.091C249.437 199.839 249.513 199.555 249.515 199.265C249.511 198.984 249.43 198.71 249.282 198.472C249.115 198.22 248.884 198.016 248.612 197.883C248.354 197.733 248.058 197.66 247.76 197.672C247.482 197.678 247.211 197.76 246.977 197.909C246.737 198.067 246.541 198.281 246.405 198.533C246.269 198.785 246.197 199.067 246.197 199.353C246.199 199.629 246.278 199.899 246.425 200.133C246.582 200.387 246.804 200.595 247.068 200.734C247.328 200.885 247.623 200.965 247.923 200.966C248.201 200.964 248.474 200.887 248.712 200.742C248.954 200.574 249.154 200.351 249.294 200.091ZM251.345 197.184C250.088 196.554 248.845 195.919 247.589 195.29L247.803 194.751C248.798 195.255 249.796 195.749 250.79 196.252C250.224 194.879 249.645 193.522 249.053 192.181L249.241 191.707C250.512 192.299 251.784 192.892 253.051 193.493L252.833 194.041L249.807 192.611C250.422 193.932 250.993 195.311 251.541 196.691L251.345 197.184ZM254.328 190.988C254.198 191.28 254.028 191.553 253.823 191.798C253.63 192.039 253.392 192.24 253.124 192.392L252.82 192.045C253.052 191.903 253.258 191.723 253.43 191.513C253.612 191.297 253.762 191.056 253.877 190.797C253.969 190.576 254.03 190.343 254.056 190.104C254.077 189.919 254.052 189.732 253.982 189.559C253.92 189.419 253.806 189.308 253.664 189.249C253.567 189.203 253.458 189.186 253.351 189.201C253.243 189.216 253.143 189.261 253.061 189.332C252.824 189.513 252.644 189.759 252.542 190.04L252.265 190.737L251.875 190.581L252.134 189.931C252.217 189.758 252.269 189.571 252.289 189.379C252.31 189.229 252.289 189.075 252.229 188.936C252.17 188.815 252.071 188.719 251.95 188.663C251.883 188.635 251.811 188.621 251.738 188.622C251.666 188.622 251.594 188.638 251.528 188.667C251.376 188.733 251.243 188.835 251.14 188.965C251.007 189.132 250.897 189.317 250.814 189.514C250.646 189.947 250.568 190.41 250.584 190.875C250.427 190.866 250.269 190.857 250.115 190.839C250.101 190.575 250.116 190.31 250.16 190.049C250.194 189.799 250.262 189.555 250.363 189.323C250.474 189.03 250.637 188.76 250.843 188.524C251.012 188.327 251.225 188.173 251.464 188.071C251.568 188.03 251.679 188.01 251.791 188.012C251.903 188.014 252.013 188.038 252.116 188.083C252.299 188.162 252.448 188.302 252.54 188.478C252.628 188.675 252.668 188.89 252.656 189.106C252.645 189.361 252.586 189.611 252.481 189.843L252.341 189.788C252.477 189.409 252.725 189.079 253.051 188.843C253.174 188.751 253.319 188.694 253.471 188.677C253.624 188.66 253.778 188.684 253.918 188.747C254.144 188.844 254.327 189.02 254.431 189.242C254.536 189.504 254.579 189.786 254.555 190.067C254.533 190.384 254.456 190.696 254.328 190.988ZM255.553 187.913C254.252 187.395 252.951 186.877 251.651 186.359L252.35 184.603C252.479 184.228 252.709 183.895 253.013 183.64C253.14 183.542 253.291 183.48 253.451 183.46C253.61 183.441 253.772 183.464 253.919 183.527C254.064 183.578 254.194 183.665 254.297 183.779C254.4 183.894 254.473 184.032 254.509 184.182C254.578 184.553 254.534 184.937 254.382 185.283L254.269 185.109C254.38 184.725 254.613 184.387 254.932 184.146C255.067 184.068 255.217 184.023 255.372 184.014C255.527 184.004 255.682 184.031 255.825 184.092C255.98 184.146 256.12 184.236 256.232 184.355C256.343 184.475 256.424 184.62 256.467 184.779C256.542 185.222 256.477 185.677 256.281 186.082L255.553 187.913ZM255.349 187.207L255.867 185.907C255.99 185.644 256.043 185.353 256.02 185.063C256.001 184.952 255.951 184.848 255.877 184.763C255.802 184.679 255.705 184.616 255.598 184.583C255.501 184.535 255.393 184.515 255.286 184.523C255.178 184.531 255.075 184.568 254.987 184.63C254.77 184.811 254.611 185.05 254.529 185.32L253.993 186.667C254.476 186.86 254.922 187.037 255.377 187.218L255.349 187.207ZM253.593 186.508L254.078 185.291C254.185 185.047 254.222 184.778 254.182 184.515C254.159 184.412 254.109 184.317 254.039 184.238C253.969 184.16 253.88 184.1 253.781 184.064C253.684 184.024 253.579 184.008 253.474 184.019C253.37 184.031 253.27 184.068 253.185 184.128C252.982 184.299 252.83 184.521 252.746 184.772L252.265 185.979L253.593 186.508ZM258.304 180.57C258.016 180.455 257.728 180.34 257.44 180.226L257.301 180.17C256.818 179.978 256.353 179.847 255.831 179.671C255.69 179.614 255.539 179.587 255.387 179.592C255.236 179.596 255.086 179.632 254.949 179.697C254.671 179.871 254.467 180.143 254.376 180.459C254.286 180.715 254.24 180.984 254.242 181.256C254.244 181.5 254.286 181.742 254.366 181.972L253.872 182.077C253.781 181.794 253.739 181.497 253.748 181.199C253.759 180.858 253.827 180.521 253.951 180.203C254.072 179.759 254.355 179.376 254.744 179.131C254.946 179.027 255.167 178.969 255.394 178.961C255.62 178.952 255.846 178.994 256.055 179.082C256.863 179.404 257.705 179.642 258.522 179.914L258.304 180.57ZM257.835 182.019C257.749 182.302 257.601 182.563 257.401 182.783C257.244 182.958 257.04 183.086 256.813 183.151C256.591 183.216 256.354 183.201 256.141 183.11C255.946 183.042 255.774 182.922 255.645 182.761C255.501 182.578 255.421 182.354 255.415 182.121C255.405 181.777 255.468 181.436 255.599 181.118L256.086 179.708L256.476 179.863L255.993 181.264C255.863 181.546 255.831 181.863 255.904 182.165C255.946 182.263 256.009 182.351 256.089 182.421C256.169 182.492 256.264 182.544 256.367 182.573C256.469 182.603 256.577 182.609 256.682 182.592C256.788 182.575 256.888 182.534 256.976 182.473C257.205 182.296 257.372 182.048 257.45 181.769C257.558 181.488 257.586 181.183 257.532 180.887C257.472 180.606 257.317 180.355 257.095 180.174L257.512 180.179C257.742 180.377 257.896 180.647 257.95 180.945C258.028 181.304 257.999 181.678 257.866 182.021L257.835 182.019ZM258.982 178.515C257.645 178.09 256.311 177.656 254.982 177.234L255.197 176.695C255.764 176.921 256.373 177.067 256.964 177.259L257.76 174.638L255.997 174.119L256.156 173.557C257.504 173.955 258.848 174.339 260.191 174.723L260.028 175.293L258.243 174.776C257.99 175.655 257.728 176.53 257.447 177.397L259.214 177.961L258.982 178.515ZM260.589 173.073C259.239 172.708 257.892 172.333 256.541 171.967L256.687 171.412L259.916 172.278C259.093 171.046 258.255 169.833 257.403 168.64L257.517 168.137L261.604 169.118L261.46 169.696C260.379 169.438 259.302 169.17 258.211 168.908C259.07 170.104 259.91 171.318 260.733 172.549L260.589 173.073ZM262.483 165.614C262.402 166.03 262.221 166.42 261.955 166.75C261.715 167.041 261.397 167.257 261.039 167.375C260.669 167.5 260.271 167.513 259.893 167.414C259.515 167.339 259.165 167.162 258.88 166.903C258.609 166.662 258.409 166.352 258.301 166.006C258.195 165.65 258.179 165.274 258.253 164.91C258.324 164.543 258.49 164.2 258.734 163.918C258.97 163.647 259.273 163.444 259.614 163.331C259.97 163.216 260.349 163.193 260.717 163.264C260.746 163.271 260.774 163.282 260.8 163.298L260.884 163.331C260.644 164.581 260.381 165.811 260.104 167.046L259.688 166.956C259.943 165.83 260.178 164.697 260.405 163.56L260.526 163.824C260.249 163.76 259.96 163.776 259.691 163.868C259.439 163.944 259.213 164.089 259.039 164.287C258.861 164.5 258.738 164.753 258.681 165.025C258.623 165.297 258.633 165.578 258.71 165.845C258.787 166.1 258.935 166.327 259.138 166.5C259.356 166.689 259.619 166.819 259.902 166.879L259.976 166.909C260.266 166.985 260.572 166.976 260.858 166.883C261.125 166.786 261.361 166.621 261.544 166.403C261.717 166.175 261.841 165.913 261.909 165.635C261.977 165.357 261.988 165.068 261.941 164.785C261.901 164.542 261.804 164.312 261.659 164.113L262.082 163.862C262.266 164.101 262.387 164.383 262.435 164.68C262.501 164.982 262.512 165.293 262.468 165.598L262.483 165.614Z" fill="black"/>
<path d="M175.325 260.084C174.339 259.44 173.344 258.702 172.383 257.992L172.787 257.583C173.849 258.367 174.925 259.134 176.06 259.862L175.325 260.084ZM171.32 261.127L170.033 255.68L170.6 255.547C171.039 257.362 171.488 259.172 171.927 260.987L171.32 261.127ZM171.134 258.532L171.017 258.023L172.787 257.583L172.922 258.083L171.134 258.532ZM172.926 257.904L172.351 257.996C172.818 256.917 173.272 255.833 173.686 254.757L174.308 254.576C173.88 255.67 173.421 256.79 172.926 257.904ZM179.556 258.747C179.429 258.475 179.362 258.164 179.258 257.871L179.194 257.735L178.692 256.259C178.655 256.111 178.584 255.973 178.486 255.856C178.387 255.74 178.264 255.647 178.124 255.586C177.815 255.471 177.475 255.476 177.171 255.601C176.907 255.669 176.658 255.785 176.437 255.944C176.238 256.093 176.065 256.275 175.926 256.48C175.799 256.374 175.672 256.268 175.55 256.148C175.724 255.904 175.938 255.692 176.184 255.521C176.461 255.332 176.767 255.189 177.09 255.098C177.524 254.924 178.006 254.915 178.446 255.071C178.652 255.167 178.834 255.307 178.978 255.482C179.123 255.657 179.227 255.862 179.283 256.082C179.574 256.895 179.861 257.721 180.143 258.539L179.556 258.747ZM178.093 259.276C177.807 259.376 177.506 259.419 177.204 259.404C176.961 259.386 176.729 259.299 176.535 259.154C176.355 259.013 176.225 258.819 176.165 258.598C176.101 258.401 176.094 258.19 176.145 257.989C176.211 257.763 176.344 257.562 176.527 257.414C176.801 257.219 177.108 257.076 177.433 256.99L178.873 256.505L179.006 256.907L177.571 257.356C177.262 257.426 176.985 257.595 176.78 257.836C176.726 257.923 176.692 258.02 176.68 258.121C176.668 258.222 176.679 258.324 176.711 258.421C176.741 258.529 176.798 258.628 176.877 258.709C176.955 258.79 177.052 258.85 177.159 258.884C177.447 258.962 177.752 258.943 178.029 258.831C178.323 258.741 178.588 258.576 178.797 258.351C178.986 258.132 179.094 257.856 179.105 257.567L179.36 257.9C179.341 258.204 179.218 258.491 179.011 258.714C178.765 258.986 178.447 259.181 178.093 259.276ZM183.825 257.205C183.497 257.338 183.14 257.387 182.788 257.347C182.437 257.302 182.105 257.159 181.833 256.933C181.524 256.665 181.293 256.319 181.166 255.931C181.01 255.561 180.955 255.157 181.004 254.759C181.05 254.413 181.192 254.086 181.414 253.817C181.641 253.559 181.925 253.358 182.244 253.23C182.595 253.081 182.979 253.023 183.358 253.063C183.726 253.1 184.077 253.237 184.372 253.461C184.675 253.705 184.914 254.021 185.066 254.379C185.218 254.737 185.279 255.128 185.243 255.516C185.191 255.885 185.036 256.233 184.796 256.519C184.537 256.828 184.203 257.065 183.825 257.205ZM182.177 259.465C181.515 257.67 180.848 255.873 180.177 254.075L180.685 253.838C180.862 254.218 180.986 254.624 181.127 255.022L181.37 255.824C181.493 256.087 181.611 256.341 181.734 256.603L182.725 259.22L182.177 259.465ZM183.604 256.756C183.878 256.644 184.122 256.47 184.316 256.247C184.489 256.026 184.602 255.764 184.645 255.486C184.678 255.188 184.632 254.885 184.511 254.61C184.399 254.331 184.216 254.086 183.98 253.898C183.757 253.733 183.495 253.627 183.219 253.592C182.933 253.557 182.644 253.597 182.379 253.708C182.108 253.812 181.869 253.985 181.686 254.209C181.511 254.423 181.394 254.679 181.348 254.951C181.306 255.248 181.345 255.55 181.459 255.827C181.557 256.113 181.729 256.368 181.959 256.565C182.181 256.737 182.445 256.846 182.724 256.88C183.023 256.913 183.326 256.87 183.604 256.756ZM187.681 252.512C188.071 252.297 188.521 252.215 188.962 252.277C189.148 252.322 189.321 252.409 189.467 252.533C189.613 252.656 189.728 252.812 189.802 252.988C189.889 253.158 189.936 253.345 189.939 253.535C189.942 253.725 189.9 253.913 189.818 254.085C189.567 254.501 189.185 254.823 188.733 255L187.084 255.77C186.492 254.502 185.899 253.234 185.37 251.936L185.895 251.69L186.513 253.013L187.681 252.512ZM188.528 254.655C188.84 254.537 189.103 254.317 189.273 254.03C189.334 253.908 189.364 253.772 189.36 253.635C189.356 253.499 189.318 253.365 189.249 253.247C189.201 253.124 189.123 253.016 189.022 252.932C188.921 252.848 188.801 252.791 188.672 252.766C188.344 252.735 188.014 252.801 187.723 252.956L186.69 253.438C186.957 254.009 187.219 254.571 187.486 255.141L188.528 254.655ZM193.185 252.81C192.811 253.02 192.392 253.137 191.963 253.149C191.582 253.153 191.208 253.053 190.879 252.86C190.548 252.653 190.283 252.356 190.115 252.004C189.926 251.673 189.835 251.296 189.853 250.916C189.871 250.537 189.997 250.17 190.216 249.859C190.421 249.544 190.701 249.284 191.03 249.103C191.36 248.922 191.729 248.826 192.105 248.822C192.468 248.824 192.825 248.924 193.135 249.113C193.464 249.315 193.734 249.6 193.918 249.939C193.94 249.962 193.953 249.99 193.957 250.021L193.99 250.093C192.877 250.735 191.756 251.336 190.618 251.923L190.44 251.542C191.5 251.047 192.504 250.457 193.522 249.871L193.403 250.136C193.265 249.889 193.066 249.682 192.824 249.535C192.597 249.394 192.337 249.318 192.07 249.313C191.79 249.309 191.514 249.38 191.272 249.52C191.028 249.65 190.82 249.838 190.667 250.068C190.521 250.294 190.441 250.557 190.437 250.827C190.433 251.113 190.501 251.397 190.634 251.651L190.672 251.732C190.8 252.001 191.002 252.229 191.254 252.387C191.504 252.531 191.789 252.601 192.076 252.588C192.398 252.576 192.712 252.486 192.992 252.326C193.218 252.201 193.422 252.039 193.595 251.846C193.755 251.653 193.868 251.427 193.926 251.183L194.396 251.339C194.334 251.639 194.194 251.918 193.99 252.147C193.764 252.42 193.488 252.647 193.175 252.814L193.185 252.81ZM198.111 249.912C197.803 250.115 197.449 250.234 197.082 250.261C196.726 250.283 196.371 250.204 196.059 250.032C195.714 249.82 195.428 249.525 195.227 249.173C195.006 248.836 194.88 248.444 194.864 248.041C194.842 247.692 194.921 247.345 195.092 247.04C195.274 246.73 195.534 246.472 195.845 246.291C196.165 246.083 196.531 245.957 196.911 245.925C197.277 245.893 197.645 245.961 197.975 246.124C198.321 246.304 198.615 246.569 198.831 246.894C199.053 247.217 199.183 247.595 199.209 247.986C199.229 248.361 199.138 248.734 198.948 249.058C198.749 249.415 198.456 249.712 198.102 249.916L198.111 249.912ZM196.894 252.434L193.939 247.502L194.411 247.215C194.635 247.574 194.849 247.938 195.072 248.297L195.427 249.058C195.546 249.312 195.76 249.51 195.933 249.738L197.385 252.139L196.894 252.434ZM197.804 249.515C198.057 249.359 198.267 249.143 198.416 248.887C198.55 248.64 198.614 248.362 198.603 248.082C198.582 247.779 198.483 247.487 198.316 247.233C198.164 246.987 197.947 246.786 197.691 246.652C197.434 246.518 197.145 246.455 196.856 246.47C196.568 246.495 196.29 246.587 196.044 246.739C195.795 246.89 195.59 247.104 195.45 247.359C195.315 247.601 195.249 247.876 195.259 248.154C195.269 248.452 195.359 248.742 195.518 248.993C195.667 249.257 195.884 249.476 196.146 249.627C196.395 249.757 196.675 249.818 196.955 249.801C197.255 249.782 197.544 249.685 197.795 249.519L197.804 249.515ZM203.334 246.302L202.786 245.554L202.672 245.452L201.757 244.202C201.675 244.073 201.566 243.964 201.438 243.881C201.309 243.798 201.165 243.743 201.014 243.722C200.841 243.71 200.668 243.732 200.505 243.788C200.341 243.843 200.19 243.931 200.061 244.045C199.84 244.201 199.646 244.392 199.487 244.612C199.339 244.814 199.229 245.042 199.16 245.283L198.7 245.078C198.792 244.793 198.932 244.526 199.115 244.289C199.315 244.027 199.554 243.796 199.822 243.605C200.187 243.314 200.642 243.16 201.109 243.169C201.333 243.202 201.547 243.283 201.737 243.405C201.928 243.527 202.09 243.689 202.213 243.879C202.727 244.577 203.249 245.271 203.772 245.965L203.334 246.302ZM202.087 247.249C201.844 247.429 201.566 247.558 201.272 247.63C201.036 247.678 200.792 247.666 200.562 247.597C200.351 247.512 200.171 247.365 200.045 247.176C199.918 247.01 199.847 246.808 199.841 246.598C199.835 246.361 199.904 246.128 200.038 245.933C200.242 245.641 200.501 245.393 200.8 245.201L202.027 244.308L202.286 244.65L201.064 245.53C200.79 245.69 200.575 245.934 200.45 246.225C200.427 246.324 200.424 246.427 200.442 246.526C200.46 246.626 200.499 246.721 200.556 246.805C200.618 246.9 200.703 246.978 200.804 247.031C200.904 247.085 201.016 247.112 201.129 247.111C201.427 247.098 201.713 246.991 201.947 246.806C202.199 246.632 202.4 246.393 202.529 246.115C202.646 245.851 202.671 245.556 202.601 245.276L202.939 245.504C203.011 245.803 202.979 246.118 202.848 246.396C202.681 246.751 202.413 247.049 202.078 247.253L202.087 247.249Z" fill="black"/>
<path d="M10.2355 169.438L15.6646 168.036C16.0096 169.371 16.3815 170.693 16.7757 172.015L16.3008 172.159C15.9545 171.026 15.6263 169.883 15.3249 168.728L13.5509 169.199L14.0494 171.027C14.2371 171.545 14.257 172.108 14.1064 172.638C14.0268 172.851 13.8956 173.041 13.7245 173.192C13.5535 173.342 13.3479 173.448 13.1261 173.499C12.9012 173.583 12.6586 173.609 12.4211 173.574C12.1835 173.539 11.9588 173.444 11.7678 173.298C11.3145 172.909 11.0032 172.38 10.8827 171.795C10.655 171.015 10.4453 170.227 10.2355 169.438ZM10.8497 169.916L11.3263 171.654C11.4174 172.083 11.6402 172.472 11.9634 172.767C12.0981 172.873 12.2576 172.942 12.4265 172.968C12.5955 172.994 12.7683 172.976 12.9285 172.917C13.6544 172.693 13.8595 172.068 13.5574 171.024L13.0626 169.34C12.3504 169.523 11.6022 169.724 10.8497 169.916ZM12.4648 177.001C12.3304 176.618 12.293 176.208 12.3559 175.806C12.4212 175.438 12.5822 175.094 12.8228 174.808C13.0883 174.519 13.4262 174.306 13.8016 174.192C14.1569 174.082 14.5354 174.069 14.8975 174.154C15.2564 174.234 15.5864 174.411 15.8514 174.665C16.1392 174.932 16.3542 175.267 16.4759 175.64C16.6071 176.011 16.6461 176.409 16.5894 176.799C16.534 177.164 16.3786 177.507 16.1405 177.789C15.8895 178.084 15.5659 178.309 15.2017 178.44C14.8355 178.581 14.4378 178.619 14.0517 178.55C13.6821 178.477 13.3406 178.301 13.0665 178.043C12.7801 177.753 12.5729 177.394 12.4648 177.001ZM12.9443 176.843C13.0352 177.125 13.195 177.38 13.4092 177.584C13.6205 177.769 13.8778 177.892 14.1539 177.942C14.4504 177.99 14.7542 177.959 15.0354 177.854C15.3231 177.761 15.5786 177.589 15.772 177.357C15.9549 177.154 16.0746 176.901 16.1164 176.63C16.1628 176.348 16.1386 176.057 16.0458 175.786C15.9531 175.515 15.7948 175.271 15.5849 175.075C15.383 174.89 15.1352 174.762 14.8672 174.704C14.5721 174.644 14.2663 174.664 13.9814 174.761C13.6925 174.854 13.4326 175.021 13.227 175.244C13.0411 175.451 12.9158 175.706 12.8647 175.98C12.8161 176.27 12.8435 176.567 12.9443 176.843ZM13.714 180.354L17.6455 178.854C18.0032 179.807 18.3731 180.74 18.755 181.651L18.3064 181.872C17.976 181.065 17.6456 180.258 17.3332 179.442L17.5205 179.528C16.3325 179.99 15.1311 180.448 13.9341 180.915L13.714 180.354ZM16.3492 186.636L17.1836 186.226L17.3182 186.159C17.7847 185.93 18.2154 185.718 18.7088 185.475C18.8526 185.421 18.9829 185.337 19.0909 185.228C19.1989 185.119 19.282 184.988 19.3344 184.844C19.4164 184.525 19.377 184.186 19.224 183.895C19.1109 183.649 18.9616 183.422 18.781 183.221C18.6108 183.041 18.4123 182.891 18.1935 182.775L18.4866 182.374C18.7503 182.511 18.9834 182.699 19.1719 182.928C19.3969 183.18 19.5794 183.467 19.7122 183.777C19.931 184.188 19.9871 184.665 19.8694 185.115C19.792 185.328 19.6695 185.522 19.5103 185.683C19.351 185.844 19.1588 185.969 18.9467 186.049L16.5875 187.143L16.3492 186.636ZM15.6691 185.255C15.536 184.985 15.463 184.69 15.4553 184.39C15.4485 184.149 15.5089 183.911 15.6296 183.702C15.7485 183.507 15.931 183.358 16.1465 183.281C16.3352 183.194 16.5453 183.164 16.7508 183.195C16.9827 183.235 17.1954 183.35 17.357 183.521C17.5965 183.761 17.7862 184.047 17.9152 184.361C18.1361 184.809 18.3569 185.258 18.5239 185.733L18.147 185.918L17.489 184.582C17.3896 184.285 17.1967 184.028 16.939 183.849C16.8455 183.808 16.7447 183.786 16.6425 183.785C16.5403 183.783 16.4388 183.802 16.3442 183.841C16.2399 183.885 16.1479 183.954 16.0764 184.041C16.0049 184.129 15.956 184.233 15.9341 184.344C15.8877 184.633 15.936 184.93 16.072 185.19C16.1909 185.47 16.3804 185.715 16.6221 185.9C16.8599 186.064 17.1463 186.143 17.4347 186.124L17.1288 186.409C16.8235 186.419 16.5234 186.328 16.2762 186.148C16.0009 185.907 15.7971 185.595 15.687 185.246L15.6691 185.255ZM17.6335 189.381C18.7909 188.812 19.9393 188.246 21.0967 187.677L21.0283 187.877C20.7678 187.348 20.5072 186.819 20.2422 186.28L20.6819 186.064C21.2472 187.212 21.808 188.352 22.3733 189.5C22.2208 189.575 22.0772 189.646 21.9247 189.721L21.1386 188.124L21.3394 188.192C20.1821 188.762 19.0336 189.327 17.8763 189.897L17.6335 189.381ZM19.8384 193.679C19.6323 193.322 19.518 192.918 19.5058 192.506C19.5048 192.128 19.6077 191.757 19.8032 191.434C20.0011 191.097 20.2935 190.825 20.6443 190.652C20.9874 190.466 21.3741 190.376 21.764 190.391C22.1342 190.417 22.4918 190.536 22.8039 190.737C23.1064 190.945 23.3599 191.217 23.5464 191.534C23.7329 191.85 23.848 192.203 23.8837 192.569C23.9147 192.888 23.8471 193.209 23.6901 193.489L23.2265 193.249C23.3359 193.027 23.3837 192.78 23.3651 192.534C23.338 192.291 23.2635 192.055 23.1459 191.84C23.0087 191.585 22.8102 191.368 22.5684 191.21C22.3365 191.06 22.0679 190.976 21.7917 190.968C21.4894 190.958 21.1902 191.032 20.9273 191.182C20.6542 191.317 20.4249 191.526 20.2661 191.786C20.1165 192.016 20.0357 192.284 20.0332 192.558C20.0359 192.855 20.1141 193.146 20.2604 193.405C20.387 193.625 20.5543 193.818 20.7533 193.976C20.9546 194.119 21.19 194.207 21.436 194.23L21.4103 194.767C21.0865 194.748 20.7744 194.639 20.5088 194.453C20.2411 194.238 20.0192 193.972 19.8563 193.671L19.8384 193.679ZM21.7148 196.857C22.8146 196.193 23.9278 195.534 25.0277 194.87C25.0026 194.937 24.9842 195.005 24.9727 195.075L24.061 193.54L24.5096 193.319C25.1408 194.421 25.8003 195.511 26.4883 196.592L26.0662 196.867L25.1276 195.345L25.3419 195.395C24.2421 196.059 23.1467 196.732 22.0468 197.396L21.7148 196.857ZM23.3974 199.551L26.9268 197.279L27.9634 198.864C28.2064 199.182 28.3516 199.564 28.3814 199.962C28.3908 200.122 28.3571 200.281 28.2838 200.423C28.2105 200.565 28.1004 200.685 27.9649 200.769C27.841 200.862 27.6953 200.922 27.5418 200.943C27.3883 200.964 27.2319 200.945 27.0876 200.889C26.7518 200.736 26.4675 200.489 26.2692 200.177L26.4704 200.179C26.7275 200.492 26.8758 200.881 26.8928 201.286C26.8823 201.439 26.8364 201.589 26.7588 201.721C26.6811 201.854 26.5739 201.968 26.4453 202.052C26.3109 202.152 26.1536 202.217 25.9878 202.24C25.822 202.263 25.653 202.244 25.4964 202.185C25.0897 201.988 24.7519 201.672 24.5271 201.28C24.1507 200.674 23.7561 200.121 23.4154 199.542L23.3974 199.551ZM24.0891 199.802L24.8688 200.978C25.0211 201.232 25.2332 201.445 25.4866 201.599C25.5884 201.647 25.7015 201.665 25.8131 201.651C25.9247 201.638 26.0302 201.593 26.1177 201.523C26.2115 201.468 26.2897 201.39 26.3451 201.296C26.4004 201.203 26.4311 201.097 26.4341 200.988C26.4034 200.703 26.2935 200.433 26.1169 200.208L25.3105 199L24.0891 199.802ZM25.6652 198.769L26.3963 199.87C26.5347 200.102 26.739 200.289 26.9833 200.405C27.0809 200.445 27.1873 200.459 27.2919 200.445C27.3964 200.43 27.4953 200.389 27.5786 200.324C27.6672 200.271 27.7399 200.195 27.7893 200.104C27.8386 200.013 27.8627 199.91 27.8591 199.807C27.8395 199.541 27.7415 199.287 27.5774 199.076L26.8642 197.99C26.509 198.287 26.0873 198.495 25.6832 198.76L25.6652 198.769ZM27.3639 205.345C27.1165 205.026 26.9542 204.65 26.8922 204.251C26.8327 203.872 26.8836 203.483 27.0389 203.132C27.1941 202.781 27.4471 202.482 27.7677 202.271C28.0828 202.038 28.4542 201.894 28.8437 201.853C29.2109 201.823 29.5793 201.892 29.9113 202.052C30.2633 202.223 30.5663 202.48 30.7921 202.799C31.0336 203.109 31.1943 203.475 31.2596 203.862C31.3156 204.229 31.2731 204.604 31.1365 204.948C30.9969 205.303 30.7649 205.613 30.4645 205.847C30.1613 206.09 29.7963 206.242 29.4108 206.288C29.0355 206.336 28.6544 206.276 28.3117 206.116C27.9397 205.941 27.6193 205.672 27.3819 205.336L27.3639 205.345ZM27.7638 205.048C27.9389 205.292 28.1732 205.487 28.4445 205.616C28.6963 205.729 28.9751 205.77 29.2488 205.733C29.549 205.693 29.8327 205.573 30.0694 205.384C30.314 205.202 30.5055 204.958 30.6239 204.677C30.7332 204.425 30.7706 204.148 30.7317 203.877C30.6862 203.594 30.5729 203.326 30.4015 203.096C30.23 202.866 30.0056 202.68 29.7471 202.556C29.4966 202.443 29.2208 202.398 28.9474 202.426C28.6471 202.462 28.3613 202.576 28.118 202.756C27.8677 202.924 27.6707 203.16 27.5503 203.437C27.4324 203.692 27.3903 203.976 27.4289 204.254C27.4755 204.542 27.5972 204.813 27.7818 205.039L27.7638 205.048Z" fill="black"/>
<path d="M66.7965 244.896C66.4486 244.657 66.1475 244.356 65.9079 244.008C65.6877 243.685 65.5344 243.322 65.457 242.939C65.3887 242.576 65.3934 242.203 65.4707 241.842C65.5597 241.461 65.7262 241.103 65.9599 240.79C66.1853 240.476 66.4733 240.212 66.8059 240.015C67.1287 239.831 67.4837 239.712 67.8517 239.663C68.2114 239.609 68.5781 239.626 68.9314 239.713C69.3239 239.818 69.6951 239.991 70.0285 240.223C70.3559 240.456 70.6398 240.745 70.8669 241.076C71.0801 241.384 71.2298 241.731 71.3075 242.097C71.3914 242.462 71.396 242.84 71.321 243.206C71.2279 243.585 71.0617 243.943 70.8318 244.258C70.6166 244.585 70.3367 244.864 70.0094 245.078C69.6905 245.272 69.3373 245.404 68.969 245.465C68.5849 245.522 68.1934 245.501 67.8175 245.404C67.4518 245.291 67.1069 245.12 66.7965 244.896ZM67.1064 244.467C67.3803 244.662 67.6876 244.805 68.0132 244.888C68.3131 244.966 68.6259 244.98 68.9315 244.929C69.2292 244.878 69.5146 244.772 69.7726 244.615C70.0382 244.437 70.2672 244.211 70.4472 243.947C70.636 243.697 70.7696 243.409 70.8394 243.104C70.9008 242.809 70.8998 242.504 70.8364 242.209C70.7872 241.91 70.6705 241.625 70.4952 241.378C70.3151 241.109 70.0871 240.876 69.8225 240.69C69.5507 240.491 69.2426 240.348 68.9158 240.268C68.6165 240.195 68.3059 240.183 68.0017 240.231C67.6974 240.278 67.4057 240.386 67.143 240.546C66.8725 240.711 66.6369 240.928 66.4497 241.183C66.2601 241.437 66.1251 241.727 66.0533 242.036C65.9896 242.333 65.9816 242.64 66.0297 242.94C66.0971 243.247 66.219 243.539 66.3897 243.802C66.5874 244.065 66.8301 244.289 67.1064 244.467ZM73.2594 249.093L72.8245 246.376L73.3888 246.396C73.5388 247.425 73.6929 248.445 73.8694 249.465L73.2594 249.093ZM70.5168 247.354C71.2801 246.187 72.0386 245.007 72.8019 243.84L73.2941 244.157C72.5398 245.328 71.7723 246.504 71.0139 247.685L70.5168 247.354ZM71.8792 246.014L72.136 245.604L73.3205 246.353L73.0594 246.772L71.8792 246.014ZM73.2756 246.663L72.8583 246.304C73.7182 246.02 74.5738 245.745 75.4561 245.46L75.9978 245.79C75.0329 246.157 74.1633 246.414 73.2587 246.699L73.2756 246.663ZM76.6451 251.109C76.3364 250.929 76.0747 250.679 75.8818 250.379C75.7041 250.072 75.6109 249.725 75.6116 249.371C75.6387 248.966 75.7642 248.574 75.9774 248.228C76.1755 247.881 76.456 247.587 76.7943 247.373C77.0906 247.192 77.4324 247.098 77.7799 247.104C78.1225 247.114 78.4571 247.209 78.7541 247.38C79.0919 247.561 79.3746 247.83 79.5725 248.158C79.7657 248.465 79.8717 248.82 79.8789 249.183C79.8889 249.573 79.7898 249.959 79.5928 250.296C79.4103 250.644 79.1373 250.936 78.8025 251.141C78.4857 251.333 78.1197 251.427 77.7498 251.413C77.3592 251.421 76.9731 251.328 76.6283 251.145L76.6451 251.109ZM73.9171 251.307C74.904 249.659 75.8817 248.007 76.8643 246.369L77.363 246.601L76.7228 247.693C76.5594 247.926 76.4002 248.149 76.2459 248.386L75.8874 249.157C75.4046 249.958 74.9308 250.763 74.457 251.569L73.9171 251.307ZM76.8796 250.699C77.1327 250.85 77.4198 250.934 77.7142 250.944C77.9907 250.941 78.2615 250.865 78.4999 250.725C78.7589 250.566 78.9704 250.341 79.1122 250.072C79.2379 249.813 79.2989 249.528 79.2899 249.24C79.283 248.964 79.2077 248.694 79.0708 248.454C78.9169 248.213 78.7071 248.014 78.4593 247.872C78.2102 247.726 77.9273 247.648 77.6386 247.644C77.3608 247.636 77.0864 247.707 76.8481 247.85C76.5914 248.002 76.3799 248.22 76.2351 248.481C76.079 248.737 75.9888 249.029 75.9728 249.329C75.9715 249.609 76.0457 249.883 76.1877 250.124C76.3603 250.358 76.5847 250.549 76.8433 250.682L76.8796 250.699ZM78.9563 254.202C78.776 254.101 78.6123 253.973 78.4713 253.822C78.3387 253.686 78.2378 253.522 78.1758 253.342L78.6298 253.101C78.731 253.384 78.9297 253.621 79.1901 253.77C79.3512 253.857 79.5348 253.892 79.7164 253.872C79.9447 253.825 80.1583 253.724 80.3389 253.576L80.8821 253.167L80.9793 253.124C82.1133 252.251 83.2425 251.365 84.3444 250.465L84.8613 250.706C83.532 251.793 82.1753 252.861 80.7912 253.908C80.5896 254.072 80.3619 254.201 80.1175 254.29C79.9321 254.363 79.7309 254.387 79.5334 254.36C79.3194 254.343 79.1109 254.283 78.92 254.185L78.9563 254.202ZM80.6933 253.455C80.7557 251.866 80.8435 250.278 80.9566 248.691L81.5007 248.944C81.4064 250.356 81.2983 251.751 81.2718 253.183L80.6933 253.455ZM88.3552 257.018C88.1614 256.178 88.022 255.363 87.8023 254.555L88.3598 254.495C88.5568 255.446 88.767 256.393 88.9864 257.345L88.3552 257.018ZM86.8462 254.287L87.0529 253.843L88.2951 254.42L88.0885 254.865L86.8462 254.287ZM88.3004 254.765L87.8221 254.465C88.5435 254.029 89.2648 253.592 89.9813 253.142L90.5526 253.408C89.7952 253.835 89.0365 254.273 88.2767 254.721L88.3004 254.765ZM83.6033 254.786L82.9596 254.487C83.8193 254.037 84.6789 253.588 85.5338 253.125L85.8509 253.581C85.0787 253.961 84.3253 254.372 83.5671 254.769L83.6033 254.786ZM86.251 256.017L85.707 255.764L87.4823 251.947L88.0082 252.192C87.378 253.476 86.7876 254.745 86.2063 256.019L86.251 256.017ZM86.6588 254.145L85.4165 253.567L85.6232 253.123L86.8563 253.696L86.6588 254.145ZM85.3704 253.358C85.2158 252.481 85.0793 251.612 84.9519 250.748L85.5141 251.01C85.636 251.838 85.767 252.671 85.8979 253.504L85.3704 253.358ZM91.5425 258.346C91.1474 258.197 90.7949 257.954 90.5158 257.637C90.2771 257.344 90.1205 256.994 90.062 256.621C90.0176 256.234 90.0743 255.842 90.2266 255.484C90.3728 255.128 90.6092 254.816 90.9124 254.579C91.1973 254.358 91.5365 254.219 91.8941 254.175C92.2709 254.128 92.6534 254.18 93.0035 254.327C93.3516 254.461 93.6587 254.684 93.8942 254.973C94.1187 255.252 94.2642 255.586 94.3153 255.941C94.361 256.328 94.3075 256.721 94.1597 257.082L94.0923 257.227C92.9028 256.773 91.735 256.296 90.5714 255.81L90.7527 255.42C91.8046 255.909 92.8895 256.303 93.9617 256.725L93.6863 256.795C93.7948 256.536 93.8315 256.252 93.7928 255.974C93.7592 255.709 93.6547 255.459 93.4904 255.249C93.3165 255.034 93.0898 254.867 92.8325 254.766C92.576 254.664 92.2985 254.626 92.024 254.655C91.7585 254.685 91.507 254.79 91.2989 254.957C91.0773 255.139 90.9041 255.373 90.7947 255.638L90.7568 255.72C90.6345 255.99 90.5873 256.288 90.6201 256.583C90.6686 256.865 90.7937 257.13 90.9818 257.346C91.1917 257.582 91.4545 257.765 91.7485 257.879C91.9839 257.982 92.2386 258.033 92.4954 258.028C92.7438 258.034 92.9897 257.978 93.2111 257.865L93.3808 258.33C93.1131 258.468 92.8154 258.538 92.5142 258.533C92.1658 258.548 91.8185 258.484 91.4978 258.347L91.5425 258.346ZM94.6492 259.515L96.1169 255.577L96.6338 255.817C96.4267 256.405 96.2106 256.988 95.9987 257.562C96.8534 257.882 97.7164 258.185 98.5795 258.487C98.7775 257.895 98.9803 257.317 99.1783 256.725L99.7295 256.915C99.2794 258.239 98.8383 259.566 98.3881 260.89L97.8146 260.701C98.0216 260.113 98.2154 259.53 98.4224 258.943C97.5551 258.65 96.6872 258.334 95.8284 258.023L95.1842 259.764L94.6492 259.515ZM100.026 261.376C100.458 260.044 100.881 258.708 101.313 257.376L101.859 257.553C101.531 258.613 101.19 259.679 100.862 260.739C102.135 259.979 103.382 259.195 104.603 258.388L105.099 258.53L103.952 262.562L103.375 262.404L104.308 259.188C103.072 259.995 101.818 260.78 100.545 261.54L100.026 261.376ZM107.443 263.546C107.031 263.448 106.649 263.252 106.33 262.974C106.049 262.723 105.845 262.399 105.74 262.037C105.637 261.675 105.632 261.293 105.726 260.928C105.823 260.553 106.013 260.209 106.28 259.928C106.54 259.677 106.86 259.496 107.209 259.401C107.571 259.306 107.951 259.304 108.314 259.397C108.677 259.485 109.011 259.667 109.282 259.924C109.548 260.164 109.74 260.475 109.835 260.821C109.939 261.185 109.95 261.569 109.867 261.938C109.867 261.938 109.845 261.984 109.829 262.02L109.795 262.093C108.561 261.805 107.326 261.496 106.1 261.168L106.214 260.758C107.332 261.057 108.458 261.339 109.589 261.611L109.319 261.717C109.391 261.444 109.388 261.156 109.309 260.885C109.243 260.629 109.106 260.397 108.914 260.216C108.7 260.039 108.444 259.919 108.171 259.87C107.901 259.801 107.618 259.798 107.347 259.862C107.09 259.933 106.857 260.072 106.674 260.266C106.476 260.476 106.334 260.732 106.261 261.012L106.227 261.084C106.137 261.369 106.133 261.674 106.217 261.961C106.302 262.233 106.459 262.478 106.671 262.669C106.921 262.863 107.213 262.999 107.523 263.065C107.771 263.133 108.03 263.148 108.285 263.111C108.532 263.084 108.769 262.998 108.975 262.858L109.216 263.29C108.965 263.466 108.675 263.577 108.371 263.614C108.045 263.653 107.715 263.631 107.398 263.547L107.443 263.546Z" fill="black"/>
</svg>
