<svg width="52" height="52" viewBox="0 0 52 52" fill="none" xmlns="http://www.w3.org/2000/svg">
<rect x="1" y="1" width="50" height="50" rx="25" fill="#F9F9F9"/>
<rect x="1" y="1" width="50" height="50" rx="25" stroke="#979797" stroke-width="2"/>
<path d="M33.3493 18.661C33.2414 18.5528 33.1131 18.467 32.972 18.4084C32.8309 18.3499 32.6796 18.3198 32.5268 18.3198C32.374 18.3198 32.2227 18.3499 32.0816 18.4084C31.9404 18.467 31.8122 18.5528 31.7043 18.661L25.9993 24.3543L20.2943 18.6493C20.1863 18.5413 20.058 18.4556 19.9169 18.3971C19.7758 18.3387 19.6245 18.3086 19.4718 18.3086C19.319 18.3086 19.1678 18.3387 19.0267 18.3971C18.8855 18.4556 18.7573 18.5413 18.6493 18.6493C18.5413 18.7573 18.4556 18.8855 18.3971 19.0267C18.3387 19.1678 18.3086 19.319 18.3086 19.4718C18.3086 19.6245 18.3387 19.7758 18.3971 19.9169C18.4556 20.058 18.5413 20.1863 18.6493 20.2943L24.3543 25.9993L18.6493 31.7043C18.5413 31.8123 18.4556 31.9405 18.3971 32.0816C18.3387 32.2228 18.3086 32.374 18.3086 32.5268C18.3086 32.6795 18.3387 32.8308 18.3971 32.9719C18.4556 33.113 18.5413 33.2413 18.6493 33.3493C18.7573 33.4573 18.8855 33.543 19.0267 33.6014C19.1678 33.6599 19.319 33.69 19.4718 33.69C19.6245 33.69 19.7758 33.6599 19.9169 33.6014C20.058 33.543 20.1863 33.4573 20.2943 33.3493L25.9993 27.6443L31.7043 33.3493C31.8123 33.4573 31.9405 33.543 32.0816 33.6014C32.2228 33.6599 32.374 33.69 32.5268 33.69C32.6795 33.69 32.8308 33.6599 32.9719 33.6014C33.113 33.543 33.2413 33.4573 33.3493 33.3493C33.4573 33.2413 33.543 33.113 33.6014 32.9719C33.6599 32.8308 33.69 32.6795 33.69 32.5268C33.69 32.374 33.6599 32.2228 33.6014 32.0816C33.543 31.9405 33.4573 31.8123 33.3493 31.7043L27.6443 25.9993L33.3493 20.2943C33.7926 19.851 33.7926 19.1043 33.3493 18.661Z" fill="#979797"/>
</svg>
