<svg width="32" height="32" viewBox="0 0 32 32" fill="none" xmlns="http://www.w3.org/2000/svg">
<path d="M12.9617 22.4307L13.4224 21.8389L12.9617 22.4307ZM16 9.18804L15.4629 9.71152C15.6041 9.85636 15.7978 9.93804 16 9.93804C16.2022 9.93804 16.3959 9.85636 16.5371 9.71152L16 9.18804ZM19.0383 22.4307L19.499 23.0225L19.0383 22.4307ZM13.4224 21.8389C11.9066 20.6589 10.2496 19.5069 8.93516 18.0453C7.6465 16.6123 6.75 14.943 6.75 12.7791H5.25C5.25 15.4173 6.36321 17.4286 7.81984 19.0483C9.25071 20.6394 11.0746 21.9121 12.501 23.0225L13.4224 21.8389ZM6.75 12.7791C6.75 10.6638 7.96039 8.88468 9.62112 8.13504C11.2371 7.40562 13.4059 7.60104 15.4629 9.71152L16.5371 8.66455C14.0943 6.15828 11.2631 5.74813 9.004 6.76787C6.78969 7.76739 5.25 10.0921 5.25 12.7791H6.75ZM12.501 23.0225C13.0133 23.4213 13.5632 23.8465 14.1204 24.1681C14.6775 24.4896 15.312 24.75 16 24.75V23.25C15.688 23.25 15.3225 23.1299 14.8701 22.8689C14.4177 22.6078 13.9484 22.2484 13.4224 21.8389L12.501 23.0225ZM19.499 23.0225C20.9254 21.9121 22.7493 20.6394 24.1802 19.0483C25.6368 17.4286 26.75 15.4173 26.75 12.7791H25.25C25.25 14.943 24.3535 16.6123 23.0648 18.0453C21.7504 19.5069 20.0934 20.6589 18.5776 21.8389L19.499 23.0225ZM26.75 12.7791C26.75 10.0921 25.2103 7.76739 22.996 6.76787C20.7369 5.74813 17.9057 6.15828 15.4629 8.66455L16.5371 9.71152C18.5941 7.60104 20.7629 7.40562 22.3789 8.13504C24.0396 8.88468 25.25 10.6638 25.25 12.7791H26.75ZM18.5776 21.8389C18.0516 22.2484 17.5823 22.6078 17.1299 22.8689C16.6775 23.1299 16.312 23.25 16 23.25V24.75C16.688 24.75 17.3225 24.4896 17.8796 24.1681C18.4368 23.8465 18.9867 23.4213 19.499 23.0225L18.5776 21.8389Z" fill="#2C2C2C"/>
</svg>
