<svg width="24" height="24" viewBox="0 0 24 24" fill="none" xmlns="http://www.w3.org/2000/svg">
<path d="M8.26908 5.63535C8.31092 5.5899 8.34411 5.53594 8.36675 5.47656C8.38939 5.41718 8.40104 5.35353 8.40104 5.28926C8.40104 5.22498 8.38939 5.16133 8.36675 5.10195C8.34411 5.04257 8.31092 4.98861 8.26908 4.94316C8.22724 4.89771 8.17757 4.86166 8.12291 4.83706C8.06825 4.81246 8.00966 4.7998 7.95049 4.7998C7.89133 4.7998 7.83274 4.81246 7.77807 4.83706C7.72341 4.86166 7.67374 4.89771 7.63191 4.94316L6.15056 6.55338L5.56919 5.92083C5.48469 5.82904 5.37009 5.77747 5.2506 5.77747C5.13111 5.77747 5.01651 5.82904 4.93201 5.92083C4.84752 6.01262 4.80005 6.13711 4.80005 6.26692C4.80005 6.3312 4.8117 6.39485 4.83434 6.45423C4.85699 6.51361 4.89017 6.56757 4.93201 6.61302L5.83198 7.59068C5.87378 7.63621 5.92343 7.67233 5.9781 7.69697C6.03277 7.72161 6.09138 7.7343 6.15056 7.7343C6.20975 7.7343 6.26836 7.72161 6.32303 7.69697C6.3777 7.67233 6.42735 7.63621 6.46915 7.59068L8.26908 5.63535ZM10.8754 5.77809C10.6964 5.77809 10.5247 5.85534 10.3981 5.99285C10.2715 6.13036 10.2004 6.31687 10.2004 6.51134C10.2004 6.70581 10.2715 6.89232 10.3981 7.02983C10.5247 7.16734 10.6964 7.24459 10.8754 7.24459H18.5251C18.7041 7.24459 18.8758 7.16734 19.0024 7.02983C19.1289 6.89232 19.2 6.70581 19.2 6.51134C19.2 6.31687 19.1289 6.13036 19.0024 5.99285C18.8758 5.85534 18.7041 5.77809 18.5251 5.77809H10.8754ZM10.8754 10.6664C10.6964 10.6664 10.5247 10.7437 10.3981 10.8812C10.2715 11.0187 10.2004 11.2052 10.2004 11.3997C10.2004 11.5941 10.2715 11.7807 10.3981 11.9182C10.5247 12.0557 10.6964 12.1329 10.8754 12.1329H18.5251C18.7041 12.1329 18.8758 12.0557 19.0024 11.9182C19.1289 11.7807 19.2 11.5941 19.2 11.3997C19.2 11.2052 19.1289 11.0187 19.0024 10.8812C18.8758 10.7437 18.7041 10.6664 18.5251 10.6664H10.8754ZM10.2004 16.288C10.2004 16.0935 10.2715 15.907 10.3981 15.7695C10.5247 15.632 10.6964 15.5548 10.8754 15.5548H18.5251C18.7041 15.5548 18.8758 15.632 19.0024 15.7695C19.1289 15.907 19.2 16.0935 19.2 16.288C19.2 16.4825 19.1289 16.669 19.0024 16.8065C18.8758 16.944 18.7041 17.0213 18.5251 17.0213H10.8754C10.6964 17.0213 10.5247 16.944 10.3981 16.8065C10.2715 16.669 10.2004 16.4825 10.2004 16.288ZM8.26908 11.0125C8.35357 10.9207 8.40104 10.7962 8.40104 10.6664C8.40104 10.5366 8.35357 10.4121 8.26908 10.3203C8.18459 10.2285 8.06999 10.177 7.95049 10.177C7.831 10.177 7.7164 10.2285 7.63191 10.3203L6.15056 11.9305L5.56919 11.298C5.48469 11.2062 5.37009 11.1546 5.2506 11.1546C5.13111 11.1546 5.01651 11.2062 4.93201 11.298C4.84752 11.3898 4.80005 11.5143 4.80005 11.6441C4.80005 11.7739 4.84752 11.8984 4.93201 11.9902L5.83198 12.9679C5.87378 13.0134 5.92343 13.0495 5.9781 13.0741C6.03277 13.0988 6.09138 13.1115 6.15056 13.1115C6.20975 13.1115 6.26836 13.0988 6.32303 13.0741C6.3777 13.0495 6.42735 13.0134 6.46915 12.9679L8.26908 11.0125ZM8.26908 15.2087C8.31099 15.2541 8.34423 15.308 8.36692 15.3674C8.3896 15.4268 8.40128 15.4905 8.40128 15.5548C8.40128 15.6191 8.3896 15.6827 8.36692 15.7421C8.34423 15.8015 8.31099 15.8554 8.26908 15.9009L6.46915 17.8562C6.42735 17.9017 6.3777 17.9378 6.32303 17.9625C6.26836 17.9871 6.20975 17.9998 6.15056 17.9998C6.09138 17.9998 6.03277 17.9871 5.9781 17.9625C5.92343 17.9378 5.87378 17.9017 5.83198 17.8562L4.93201 16.8785C4.84752 16.7867 4.80005 16.6622 4.80005 16.5324C4.80005 16.4026 4.84752 16.2781 4.93201 16.1863C5.01651 16.0945 5.13111 16.043 5.2506 16.043C5.37009 16.043 5.48469 16.0945 5.56919 16.1863L6.15056 16.8189L7.63191 15.2087C7.6737 15.1631 7.72336 15.127 7.77803 15.1024C7.8327 15.0777 7.8913 15.0651 7.95049 15.0651C8.00968 15.0651 8.06829 15.0777 8.12296 15.1024C8.17762 15.127 8.22728 15.1631 8.26908 15.2087Z" fill="url(#paint0_linear_4253_11824)"/>
<defs>
<linearGradient id="paint0_linear_4253_11824" x1="2.40005" y1="12.0284" x2="20" y2="12.0284" gradientUnits="userSpaceOnUse">
<stop stop-color="#1A4EFF"/>
<stop offset="0.816667" stop-color="#C522FF"/>
</linearGradient>
</defs>
</svg>
