<svg width="32" height="32" viewBox="0 0 32 32" fill="none" xmlns="http://www.w3.org/2000/svg">
<path d="M14.5895 14.5894C14.2139 14.963 14.002 15.4703 14 16C14 16.5304 14.2107 17.0391 14.5858 17.4142C14.9609 17.7893 15.4696 18 16 18C16.5297 17.998 17.037 17.786 17.4105 17.4105" stroke="#2C2C2C" stroke-linecap="round" stroke-linejoin="round"/>
<path d="M16 9.99994C14.8133 9.99994 13.6533 10.3518 12.6666 11.0111C11.6799 11.6704 10.9109 12.6075 10.4567 13.7038C10.0026 14.8002 9.88378 16.0066 10.1153 17.1705C10.3468 18.3344 10.9182 19.4035 11.7574 20.2426C12.5965 21.0817 13.6656 21.6531 14.8295 21.8846C15.9933 22.1162 17.1997 21.9973 18.2961 21.5432C19.3925 21.0891 20.3295 20.3201 20.9888 19.3334C21.6481 18.3467 22 17.1866 22 15.9999" stroke="#2C2C2C" stroke-linecap="round" stroke-linejoin="round"/>
<path d="M16 5.99997C14.0222 5.99997 12.0888 6.58646 10.4443 7.68527C8.79981 8.78409 7.51809 10.3459 6.76121 12.1731C6.00433 14.0004 5.8063 16.0111 6.19215 17.9509C6.578 19.8907 7.53041 21.6725 8.92894 23.071C10.3275 24.4696 12.1093 25.422 14.0491 25.8078C15.9889 26.1937 17.9996 25.9956 19.8268 25.2388C21.6541 24.4819 23.2159 23.2002 24.3147 21.5557C25.4135 19.9112 26 17.9778 26 16M19.7105 12.2905L17 15" stroke="#2C2C2C" stroke-linecap="round" stroke-linejoin="round"/>
<path d="M25.4784 9.53823L22.3442 9.97934L22.7853 6.84515C22.7886 6.80875 22.7809 6.7722 22.7632 6.74019C22.7456 6.70818 22.7188 6.68215 22.6863 6.66543C22.6538 6.64872 22.6171 6.64207 22.5808 6.64634C22.5445 6.65061 22.5103 6.6656 22.4826 6.68941L20.4047 8.75662C20.1913 8.97158 20.0343 9.23596 19.9478 9.52624C19.8612 9.81652 19.8477 10.1237 19.9085 10.4204L20.2393 12.0843L21.9031 12.4141C22.1999 12.4749 22.507 12.4614 22.7973 12.3749C23.0876 12.2883 23.352 12.1313 23.5669 11.9179L25.6331 9.84101C25.657 9.81321 25.6721 9.77891 25.6763 9.74251C25.6806 9.70611 25.6738 9.66927 25.657 9.63672C25.6401 9.60418 25.6139 9.57741 25.5818 9.55986C25.5496 9.54231 25.5129 9.53477 25.4764 9.53823" stroke="#2C2C2C" stroke-linecap="round" stroke-linejoin="round"/>
</svg>
