<?xml version="1.0" encoding="UTF-8"?>
<!DOCTYPE svg PUBLIC "-//W3C//DTD SVG 1.1//EN" "http://www.w3.org/Graphics/SVG/1.1/DTD/svg11.dtd">
<svg xmlns="http://www.w3.org/2000/svg" version="1.1" width="1024px" height="1024px" style="shape-rendering:geometricPrecision; text-rendering:geometricPrecision; image-rendering:optimizeQuality; fill-rule:evenodd; clip-rule:evenodd" xmlns:xlink="http://www.w3.org/1999/xlink">
<g><path style="opacity:1" fill="#464646" d="M -0.5,-0.5 C 340.833,-0.5 682.167,-0.5 1023.5,-0.5C 1023.5,340.833 1023.5,682.167 1023.5,1023.5C 682.167,1023.5 340.833,1023.5 -0.5,1023.5C -0.5,682.167 -0.5,340.833 -0.5,-0.5 Z"/></g>
<g><path style="opacity:1" fill="#141313" d="M 628.5,618.5 C 617.488,610.162 605.155,604.829 591.5,602.5C 591.5,601.167 591.5,599.833 591.5,598.5C 591.785,596.712 591.452,595.045 590.5,593.5C 583.914,589.291 577.414,584.957 571,580.5C 570.728,583.254 570.228,585.921 569.5,588.5C 567.087,606.293 565.254,624.293 564,642.5C 560.526,651.757 557.359,661.09 554.5,670.5C 553.26,673.024 552.093,675.691 551,678.5C 553.624,666.286 557.291,654.286 562,642.5C 563.404,628.515 564.57,614.515 565.5,600.5C 567.025,594.07 567.692,587.404 567.5,580.5C 567.167,575.833 566.833,571.167 566.5,566.5C 565.893,566.624 565.56,566.957 565.5,567.5C 562.298,572.059 558.964,576.559 555.5,581C 546.767,585.691 538.434,590.857 530.5,596.5C 524.572,598.037 518.572,598.871 512.5,599C 518.483,597.565 524.483,595.899 530.5,594C 531.756,593.583 532.423,592.75 532.5,591.5C 533.117,591.611 533.617,591.944 534,592.5C 540.245,587.959 546.745,583.792 553.5,580C 555.439,578.568 556.772,576.735 557.5,574.5C 563.646,566.234 569.812,557.901 576,549.5C 583.5,534.5 591,519.5 598.5,504.5C 599.723,503.386 601.056,503.219 602.5,504C 608.099,508.615 607.599,509.448 601,506.5C 599.065,508.034 597.899,510.034 597.5,512.5C 590.723,523.72 584.723,535.387 579.5,547.5C 576.497,551.343 573.664,555.343 571,559.5C 570.501,564.823 570.334,570.156 570.5,575.5C 571.5,575.5 572.5,575.5 573.5,575.5C 577.615,576.943 581.948,577.943 586.5,578.5C 589.219,579.913 592.219,580.58 595.5,580.5C 598.517,561.767 601.851,543.1 605.5,524.5C 605.5,523.833 605.5,523.167 605.5,522.5C 608.703,505.82 612.036,489.153 615.5,472.5C 615.5,473.833 615.5,475.167 615.5,476.5C 612.267,497.23 608.6,517.896 604.5,538.5C 604.833,539.167 605.167,539.833 605.5,540.5C 606.17,538.709 606.837,537.042 607.5,535.5C 607.328,536.492 607.662,537.158 608.5,537.5C 606.525,541.371 605.859,545.371 606.5,549.5C 611.78,532.385 616.446,515.052 620.5,497.5C 620.833,497.5 621.167,497.5 621.5,497.5C 618.653,510.891 615.486,524.224 612,537.5C 611.333,539.5 611.333,541.5 612,543.5C 615.667,538.167 619.333,532.833 623,527.5C 630.017,512.136 637.017,496.803 644,481.5C 646.183,459.2 647.517,436.866 648,414.5C 632.254,385.339 616.254,356.339 600,327.5C 589.361,312.028 578.528,296.695 567.5,281.5C 566.833,280.167 566.167,280.167 565.5,281.5C 562.624,285.206 559.957,289.039 557.5,293C 559.312,294.812 561.145,296.645 563,298.5C 563.667,299.167 563.667,299.833 563,300.5C 560.61,297.545 557.776,296.212 554.5,296.5C 554.5,296.167 554.5,295.833 554.5,295.5C 551.215,290.05 546.715,285.717 541,282.5C 538.704,283.628 536.871,285.295 535.5,287.5C 532.008,288.535 528.675,289.868 525.5,291.5C 528.73,292.808 532.064,293.808 535.5,294.5C 536.932,294.733 537.432,295.4 537,296.5C 533.241,295.51 529.407,294.677 525.5,294C 524.944,293.617 524.611,293.117 524.5,292.5C 523.903,291.861 523.07,291.528 522,291.5C 517.49,292.279 512.99,293.113 508.5,294C 490.247,307.28 471.581,319.78 452.5,331.5C 470.045,318.473 488.045,305.973 506.5,294C 507.252,293.329 507.586,292.496 507.5,291.5C 498.088,283.592 489.088,275.092 480.5,266C 479.833,265.333 479.167,265.333 478.5,266C 463.333,281.833 448.167,297.667 433,313.5C 425.204,325.594 417.037,337.428 408.5,349C 412.962,349.408 417.295,348.741 421.5,347C 427.264,345.734 432.597,343.568 437.5,340.5C 438.696,340.846 438.696,341.346 437.5,342C 435.33,343.586 432.996,344.92 430.5,346C 409.167,352 387.833,358 366.5,364C 376.048,367.516 385.714,370.85 395.5,374C 409.848,374.52 424.181,374.186 438.5,373C 456.004,362.747 473.671,352.747 491.5,343C 503.678,331.655 515.678,320.155 527.5,308.5C 524.016,304.515 520.349,300.682 516.5,297C 514.087,296.516 511.754,296.85 509.5,298C 491.407,309.796 473.573,321.962 456,334.5C 455.601,334.272 455.435,333.938 455.5,333.5C 471.924,321.443 488.591,309.61 505.5,298C 509.348,295.53 513.348,294.697 517.5,295.5C 520.629,299.131 523.963,302.631 527.5,306C 528.5,306.667 529.5,306.667 530.5,306C 531.789,304.198 533.456,303.031 535.5,302.5C 531.41,308.095 526.744,313.261 521.5,318C 512.5,326.333 503.5,334.667 494.5,343C 484.269,348.941 474.269,355.108 464.5,361.5C 457.494,365 450.827,369 444.5,373.5C 440.181,375.959 435.515,376.959 430.5,376.5C 430.371,378.216 430.038,379.883 429.5,381.5C 427.261,386.216 425.595,391.216 424.5,396.5C 420.163,407.345 416.497,418.512 413.5,430C 413.559,431.436 413.892,432.769 414.5,434C 415.6,434.432 416.267,433.932 416.5,432.5C 418.842,423.13 421.176,413.797 423.5,404.5C 424.167,404.833 424.833,405.167 425.5,405.5C 424.341,410.468 423.341,415.468 422.5,420.5C 420.251,425.497 418.917,430.83 418.5,436.5C 417.732,437.263 417.232,438.263 417,439.5C 416.586,439.043 416.086,438.709 415.5,438.5C 415.167,439.5 414.833,440.5 414.5,441.5C 417.579,461.801 420.413,482.134 423,502.5C 424.189,504.233 425.356,505.9 426.5,507.5C 433.005,521.176 439.505,534.842 446,548.5C 452.277,557.414 458.777,566.08 465.5,574.5C 466.203,576.716 467.536,578.549 469.5,580C 476.404,584.42 483.404,588.587 490.5,592.5C 496.307,595.706 502.64,597.54 509.5,598C 509.833,598.333 510.167,598.667 510.5,599C 506.852,599.062 503.185,598.895 499.5,598.5C 495.824,597.322 492.157,595.822 488.5,594C 481.668,589.416 474.668,585.083 467.5,581C 463.955,576.077 460.288,571.244 456.5,566.5C 455.508,570.783 455.174,575.116 455.5,579.5C 455.323,587.716 455.99,595.716 457.5,603.5C 458.275,616.53 459.442,629.53 461,642.5C 464.762,653.292 468.595,663.959 472.5,674.5C 472.657,675.873 472.49,677.207 472,678.5C 463.248,659.413 458.081,639.413 456.5,618.5C 455.894,608.441 454.894,598.441 453.5,588.5C 452.772,585.921 452.272,583.254 452,580.5C 449.667,582.167 447.333,583.833 445,585.5C 444.51,587.545 444.677,589.545 445.5,591.5C 446.492,595.482 447.492,599.482 448.5,603.5C 447.226,605.812 445.226,607.145 442.5,607.5C 436.486,606.163 430.486,604.829 424.5,603.5C 419.763,601.695 416.096,603.029 413.5,607.5C 406.668,610.412 400.334,614.079 394.5,618.5C 392.767,617.992 392.434,617.159 393.5,616C 401.944,610.794 409.944,605.128 417.5,599C 401.463,575.097 385.296,551.264 369,527.5C 365.792,496.003 362.625,464.503 359.5,433C 366.268,413.103 373.268,393.27 380.5,373.5C 380.167,372.833 379.833,372.167 379.5,371.5C 374.46,370.156 369.46,368.656 364.5,367C 362.697,366.363 361.364,365.197 360.5,363.5C 369.116,360.907 377.783,358.407 386.5,356C 391.87,342.884 397.037,329.718 402,316.5C 427.167,294.667 452.333,272.833 477.5,251C 494.167,250.333 510.833,250.333 527.5,251C 529.546,256.31 531.88,261.476 534.5,266.5C 536.65,264.851 538.65,263.018 540.5,261C 542.199,260.042 544.033,259.542 546,259.5C 553.252,260.617 560.418,262.117 567.5,264C 585.333,277.167 603.167,290.333 621,303.5C 640.684,354.21 660.184,405.044 679.5,456C 665.586,501.565 651.419,547.065 637,592.5C 628.135,596.788 618.969,600.288 609.5,603C 616.328,607.915 623.328,612.581 630.5,617C 629.956,617.717 629.289,618.217 628.5,618.5 Z"/></g>
<g><path style="opacity:1" fill="#c5c5c5" d="M 597.5,512.5 C 604.218,512.554 606.885,515.888 605.5,522.5C 605.5,523.167 605.5,523.833 605.5,524.5C 603.399,527.248 601.566,530.248 600,533.5C 597.761,548.588 595.261,563.588 592.5,578.5C 590.5,578.5 588.5,578.5 586.5,578.5C 581.948,577.943 577.615,576.943 573.5,575.5C 575.792,575.756 577.959,575.423 580,574.5C 581.787,568.717 584.454,563.383 588,558.5C 588.75,553.401 590.25,548.567 592.5,544C 592.253,542.187 591.92,540.353 591.5,538.5C 590.5,539.833 589.5,539.833 588.5,538.5C 587.707,539.355 588.04,540.189 589.5,541C 587.892,541.658 586.725,541.158 586,539.5C 584.618,542.906 582.452,545.573 579.5,547.5C 584.723,535.387 590.723,523.72 597.5,512.5 Z"/></g>
<g><path style="opacity:1" fill="#c5c5c5" d="M 441.5,544.5 C 444.748,549.597 448.248,554.597 452,559.5C 452.499,563.486 452.666,567.486 452.5,571.5C 449.428,571.817 446.428,571.484 443.5,570.5C 440.667,564.167 437.833,557.833 435,551.5C 433.524,546.924 433.19,542.257 434,537.5C 435.667,539.833 437.333,542.167 439,544.5C 439.77,543.402 440.603,543.402 441.5,544.5 Z"/></g>
<g><path style="opacity:1" fill="#d9d9d9" d="M 573.5,575.5 C 572.5,575.5 571.5,575.5 570.5,575.5C 570.334,570.156 570.501,564.823 571,559.5C 573.664,555.343 576.497,551.343 579.5,547.5C 582.452,545.573 584.618,542.906 586,539.5C 586.725,541.158 587.892,541.658 589.5,541C 588.04,540.189 587.707,539.355 588.5,538.5C 589.5,539.833 590.5,539.833 591.5,538.5C 591.92,540.353 592.253,542.187 592.5,544C 590.25,548.567 588.75,553.401 588,558.5C 584.454,563.383 581.787,568.717 580,574.5C 577.959,575.423 575.792,575.756 573.5,575.5 Z"/></g>
<g><path style="opacity:1" fill="#b1adad" d="M 615.5,472.5 C 612.036,489.153 608.703,505.82 605.5,522.5C 606.885,515.888 604.218,512.554 597.5,512.5C 597.899,510.034 599.065,508.034 601,506.5C 607.599,509.448 608.099,508.615 602.5,504C 601.056,503.219 599.723,503.386 598.5,504.5C 591,519.5 583.5,534.5 576,549.5C 569.812,557.901 563.646,566.234 557.5,574.5C 557.953,570.307 559.119,566.307 561,562.5C 565.091,556.653 569.424,550.987 574,545.5C 581.14,529.748 588.473,514.081 596,498.5C 599.162,477.865 601.995,457.198 604.5,436.5C 605.404,437.209 605.737,438.209 605.5,439.5C 603.738,460.497 602.072,481.497 600.5,502.5C 602.806,502.007 605.139,501.674 607.5,501.5C 607.928,491.005 609.428,480.672 612,470.5C 612.773,460.31 612.606,450.143 611.5,440C 611.167,439.167 610.833,438.333 610.5,437.5C 609.583,438.127 608.583,438.461 607.5,438.5C 609.127,436.37 610.96,434.37 613,432.5C 615.235,439.789 617.068,447.456 618.5,455.5C 617.017,461.094 616.017,466.761 615.5,472.5 Z"/></g>
<g><path style="opacity:1" fill="#b5b2b2" d="M 426.5,497.5 C 428.306,501.576 430.306,505.576 432.5,509.5C 437.714,521.598 443.214,533.598 449,545.5C 453.333,551.167 457.667,556.833 462,562.5C 463.908,566.285 465.075,570.285 465.5,574.5C 458.777,566.08 452.277,557.414 446,548.5C 439.505,534.842 433.005,521.176 426.5,507.5C 426.5,504.167 426.5,500.833 426.5,497.5 Z"/></g>
<g><path style="opacity:1" fill="#afafaf" d="M 623.5,467.5 C 623.503,471.524 623.836,475.524 624.5,479.5C 623.479,485.583 622.146,491.583 620.5,497.5C 616.446,515.052 611.78,532.385 606.5,549.5C 605.859,545.371 606.525,541.371 608.5,537.5C 613.325,517.868 617.991,498.202 622.5,478.5C 622.185,474.629 622.518,470.962 623.5,467.5 Z"/></g>
<g><path style="opacity:1" fill="#9e9e9e" d="M 372.5,528.5 C 376.584,529.188 380.584,530.188 384.5,531.5C 393.713,548.592 402.379,565.925 410.5,583.5C 397.599,565.378 384.933,547.045 372.5,528.5 Z"/></g>
<g><path style="opacity:1" fill="#9f9f9f" d="M 441.5,544.5 C 440.603,543.402 439.77,543.402 439,544.5C 437.333,542.167 435.667,539.833 434,537.5C 433.19,542.257 433.524,546.924 435,551.5C 437.833,557.833 440.667,564.167 443.5,570.5C 446.428,571.484 449.428,571.817 452.5,571.5C 448.198,572.23 443.864,573.23 439.5,574.5C 435.157,558.798 430.657,543.131 426,527.5C 425.265,522.162 424.932,516.828 425,511.5C 431.038,522.243 436.538,533.243 441.5,544.5 Z"/></g>
<g><path style="opacity:1" fill="#d8d8d8" d="M 417.5,520.5 C 424.463,548.5 432.463,576.333 441.5,604C 440.975,604.692 440.308,605.192 439.5,605.5C 433.5,603.833 427.5,602.167 421.5,600.5C 417.574,594.975 413.907,589.309 410.5,583.5C 402.379,565.925 393.713,548.592 384.5,531.5C 395.307,530.688 406.307,530.355 417.5,530.5C 417.5,527.167 417.5,523.833 417.5,520.5 Z"/></g>
<g><path style="opacity:1" fill="#a6a6a6" d="M 605.5,524.5 C 601.851,543.1 598.517,561.767 595.5,580.5C 592.219,580.58 589.219,579.913 586.5,578.5C 588.5,578.5 590.5,578.5 592.5,578.5C 595.261,563.588 597.761,548.588 600,533.5C 601.566,530.248 603.399,527.248 605.5,524.5 Z"/></g>
<g><path style="opacity:1" fill="#1a1919" d="M 563.5,524.5 C 564.573,525.251 564.74,526.251 564,527.5C 555.152,548.197 545.485,568.53 535,588.5C 534.31,589.738 533.81,589.738 533.5,588.5C 543.064,566.944 553.064,545.611 563.5,524.5 Z"/></g>
<g><path style="opacity:1" fill="#d9d6d6" d="M 604.5,435.5 C 604.5,435.833 604.5,436.167 604.5,436.5C 601.995,457.198 599.162,477.865 596,498.5C 588.473,514.081 581.14,529.748 574,545.5C 569.424,550.987 565.091,556.653 561,562.5C 559.119,566.307 557.953,570.307 557.5,574.5C 556.772,576.735 555.439,578.568 553.5,580C 546.745,583.792 540.245,587.959 534,592.5C 533.617,591.944 533.117,591.611 532.5,591.5C 532.263,590.209 532.596,589.209 533.5,588.5C 533.81,589.738 534.31,589.738 535,588.5C 545.485,568.53 555.152,548.197 564,527.5C 564.74,526.251 564.573,525.251 563.5,524.5C 568.016,514.454 571.85,504.121 575,493.5C 577.428,474.888 579.261,456.221 580.5,437.5C 581.397,438.598 582.23,438.598 583,437.5C 583.333,438.167 583.667,438.833 584,439.5C 585.269,438.095 585.769,436.429 585.5,434.5C 591.923,434.209 598.256,434.542 604.5,435.5 Z"/></g>
<g><path style="opacity:1" fill="#dcdada" d="M 442.5,436.5 C 443.167,436.5 443.833,436.5 444.5,436.5C 443.364,438.046 442.698,439.879 442.5,442C 443.976,460.594 446.142,479.094 449,497.5C 452.527,507.081 455.86,516.748 459,526.5C 469.698,548.377 480.198,570.377 490.5,592.5C 483.404,588.587 476.404,584.42 469.5,580C 467.536,578.549 466.203,576.716 465.5,574.5C 465.075,570.285 463.908,566.285 462,562.5C 457.667,556.833 453.333,551.167 449,545.5C 443.214,533.598 437.714,521.598 432.5,509.5C 427.648,484.913 424.315,459.913 422.5,434.5C 429.334,434.065 436.001,434.732 442.5,436.5 Z"/></g>
<g><path style="opacity:1" fill="#8b8787" d="M 418.5,436.5 C 420.979,456.853 423.646,477.187 426.5,497.5C 426.5,500.833 426.5,504.167 426.5,507.5C 425.356,505.9 424.189,504.233 423,502.5C 420.413,482.134 417.579,461.801 414.5,441.5C 414.833,440.5 415.167,439.5 415.5,438.5C 416.086,438.709 416.586,439.043 417,439.5C 417.232,438.263 417.732,437.263 418.5,436.5 Z"/></g>
<g><path style="opacity:1" fill="#c6c6c6" d="M 607.5,535.5 C 606.837,537.042 606.17,538.709 605.5,540.5C 605.167,539.833 604.833,539.167 604.5,538.5C 608.6,517.896 612.267,497.23 615.5,476.5C 616.572,472.188 617.906,467.855 619.5,463.5C 620.657,466.784 620.824,470.118 620,473.5C 616.406,494.301 612.24,514.968 607.5,535.5 Z"/></g>
<g><path style="opacity:1" fill="#9d9d9d" d="M 648.5,449.5 C 648.882,457.736 648.215,465.736 646.5,473.5C 646.776,465.319 647.443,457.319 648.5,449.5 Z"/></g>
<g><path style="opacity:1" fill="#dfdddd" d="M 605.5,439.5 C 606.167,439.167 606.833,438.833 607.5,438.5C 608.583,438.461 609.583,438.127 610.5,437.5C 610.833,438.333 611.167,439.167 611.5,440C 612.606,450.143 612.773,460.31 612,470.5C 609.428,480.672 607.928,491.005 607.5,501.5C 605.139,501.674 602.806,502.007 600.5,502.5C 602.072,481.497 603.738,460.497 605.5,439.5 Z"/></g>
<g><path style="opacity:1" fill="#aeaaaa" d="M 512.5,418.5 C 515.167,418.5 517.833,418.5 520.5,418.5C 520.5,419.833 520.5,421.167 520.5,422.5C 520.831,444.007 520.497,465.34 519.5,486.5C 519.5,464.167 519.5,441.833 519.5,419.5C 516.941,419.802 514.607,419.468 512.5,418.5 Z"/></g>
<g><path style="opacity:1" fill="#dad7d7" d="M 520.5,422.5 C 522.392,423.702 524.226,425.035 526,426.5C 527.943,425.193 529.777,425.193 531.5,426.5C 530.127,426.343 528.793,426.51 527.5,427C 529.502,428.019 531.502,428.852 533.5,429.5C 531.076,429.192 528.743,429.526 526.5,430.5C 529.262,451.12 531.429,471.786 533,492.5C 528.333,496.5 523.667,500.5 519,504.5C 518.501,498.843 518.334,493.176 518.5,487.5C 516.833,487.5 515.167,487.5 513.5,487.5C 513.822,493.358 513.489,499.025 512.5,504.5C 512.5,498.5 512.5,492.5 512.5,486.5C 514.833,486.5 517.167,486.5 519.5,486.5C 520.497,465.34 520.831,444.007 520.5,422.5 Z"/></g>
<g><path style="opacity:1" fill="#c1c1c1" d="M 388.5,383.5 C 380.173,398.495 373.173,414.161 367.5,430.5C 373.297,464.152 378.964,497.819 384.5,531.5C 380.584,530.188 376.584,529.188 372.5,528.5C 372.217,527.711 371.717,527.044 371,526.5C 368.24,495.29 365.074,464.123 361.5,433C 368.52,413.125 375.686,393.291 383,373.5C 384.707,372.862 386.54,372.862 388.5,373.5C 388.219,375.963 387.219,378.13 385.5,380C 386.71,381.039 387.71,382.206 388.5,383.5 Z"/></g>
<g><path style="opacity:1" fill="#0d0d0d" d="M 531.5,426.5 C 545.923,429.562 560.59,431.896 575.5,433.5C 576.718,434.161 578.051,434.828 579.5,435.5C 578.113,435.807 576.446,435.807 574.5,435.5C 560.914,432.983 547.247,430.983 533.5,429.5C 531.502,428.852 529.502,428.019 527.5,427C 528.793,426.51 530.127,426.343 531.5,426.5 Z"/></g>
<g><path style="opacity:1" fill="#121111" d="M 488.5,429.5 C 473.604,431.206 458.937,433.539 444.5,436.5C 443.833,436.5 443.167,436.5 442.5,436.5C 443.802,434.972 445.469,433.972 447.5,433.5C 461.22,431.824 474.886,429.824 488.5,427.5C 490.819,426.833 493.153,426.666 495.5,427C 493.167,428.043 490.834,428.876 488.5,429.5 Z"/></g>
<g><path style="opacity:1" fill="#575454" d="M 424.5,396.5 C 424.167,399.167 423.833,401.833 423.5,404.5C 421.176,413.797 418.842,423.13 416.5,432.5C 416.267,433.932 415.6,434.432 414.5,434C 413.892,432.769 413.559,431.436 413.5,430C 416.497,418.512 420.163,407.345 424.5,396.5 Z"/></g>
<g><path style="opacity:1" fill="#d7d5d5" d="M 503.5,419.5 C 503.5,441.833 503.5,464.167 503.5,486.5C 505.833,486.5 508.167,486.5 510.5,486.5C 510.5,492.5 510.5,498.5 510.5,504.5C 509.511,499.025 509.178,493.358 509.5,487.5C 507.833,487.5 506.167,487.5 504.5,487.5C 504.666,493.176 504.499,498.843 504,504.5C 500.5,501.667 497,498.833 493.5,496C 491.323,494.503 489.99,492.503 489.5,490C 492.123,469.89 494.123,449.724 495.5,429.5C 493.167,429.5 490.833,429.5 488.5,429.5C 490.834,428.876 493.167,428.043 495.5,427C 493.153,426.666 490.819,426.833 488.5,427.5C 487.411,425.883 485.744,425.05 483.5,425C 485.101,424.727 486.601,424.227 488,423.5C 490.773,425.047 493.773,426.047 497,426.5C 500.107,424.899 502.273,422.565 503.5,419.5 Z"/></g>
<g><path style="opacity:1" fill="#d2d2d2" d="M 425.5,376.5 C 426.675,376.281 427.675,376.614 428.5,377.5C 422.021,394.604 416.354,411.938 411.5,429.5C 415.62,461.505 419.786,493.505 424,525.5C 431.344,551.207 438.844,576.874 446.5,602.5C 446.132,603.91 445.299,604.91 444,605.5C 436.032,580.972 428.366,556.306 421,531.5C 416.786,497.29 412.286,463.124 407.5,429C 412.424,411.06 418.424,393.56 425.5,376.5 Z"/></g>
<g><path style="opacity:1" fill="#dfdfdf" d="M 546.5,270.5 C 554.592,271.46 562.592,272.96 570.5,275C 588.054,292.554 605.554,310.054 623,327.5C 637.337,369.844 651.67,412.178 666,454.5C 666.667,456.5 666.667,458.5 666,460.5C 664.111,469.039 661.111,477.039 657,484.5C 642.848,522.479 629.015,560.479 615.5,598.5C 615.082,599.222 614.416,599.722 613.5,600C 608.536,600.912 603.536,601.412 598.5,601.5C 600.786,585.949 603.453,570.449 606.5,555C 613.68,544.801 620.513,534.301 627,523.5C 633.059,509.049 639.392,494.716 646,480.5C 646.497,478.19 646.663,475.857 646.5,473.5C 648.215,465.736 648.882,457.736 648.5,449.5C 648.892,437.796 649.392,426.13 650,414.5C 632.507,382.176 614.507,350.176 596,318.5C 586.235,304.625 576.235,290.959 566,277.5C 562.8,278.207 559.633,279.04 556.5,280C 558.9,280.186 561.234,280.686 563.5,281.5C 561.183,285.146 558.516,288.48 555.5,291.5C 551.189,288.357 547.022,285.023 543,281.5C 543.025,277.455 544.192,273.788 546.5,270.5 Z"/></g>
<g><path style="opacity:1" fill="#7b7878" d="M 594.5,388.5 C 600.418,397.999 605.585,407.999 610,418.5C 610.667,422.833 610.667,427.167 610,431.5C 609.632,432.91 608.799,433.91 607.5,434.5C 604.787,424.29 601.787,414.29 598.5,404.5C 596.579,399.386 595.245,394.053 594.5,388.5 Z"/></g>
<g><path style="opacity:1" fill="#d0cdcd" d="M 590.5,381.5 C 592.071,383.635 593.404,385.968 594.5,388.5C 595.245,394.053 596.579,399.386 598.5,404.5C 597.903,404.735 597.57,405.235 597.5,406C 600.231,415.755 602.564,425.589 604.5,435.5C 598.256,434.542 591.923,434.209 585.5,434.5C 585.769,436.429 585.269,438.095 584,439.5C 583.667,438.833 583.333,438.167 583,437.5C 582.23,438.598 581.397,438.598 580.5,437.5C 578.214,437.405 576.214,436.738 574.5,435.5C 576.446,435.807 578.113,435.807 579.5,435.5C 578.051,434.828 576.718,434.161 575.5,433.5C 577.5,433.5 579.5,433.5 581.5,433.5C 581.565,418.282 584.231,403.615 589.5,389.5C 590.473,387.052 590.806,384.385 590.5,381.5 Z"/></g>
<g><path style="opacity:1" fill="#d3d0d0" d="M 464.5,361.5 C 462.776,366.048 459.443,368.548 454.5,369C 451.081,372.35 447.748,375.684 444.5,379C 440.582,380.156 436.582,380.656 432.5,380.5C 432.588,387.935 434.422,394.935 438,401.5C 439.277,412.166 440.444,422.833 441.5,433.5C 443.5,433.5 445.5,433.5 447.5,433.5C 445.469,433.972 443.802,434.972 442.5,436.5C 436.001,434.732 429.334,434.065 422.5,434.5C 424.315,459.913 427.648,484.913 432.5,509.5C 430.306,505.576 428.306,501.576 426.5,497.5C 423.646,477.187 420.979,456.853 418.5,436.5C 418.917,430.83 420.251,425.497 422.5,420.5C 423.79,419.942 424.623,418.942 425,417.5C 428.509,405.068 430.676,392.401 431.5,379.5C 437.304,380.323 441.637,378.323 444.5,373.5C 450.827,369 457.494,365 464.5,361.5 Z"/></g>
<g><path style="opacity:1" fill="#827e7e" d="M 429.5,381.5 C 428.034,389.495 426.7,397.495 425.5,405.5C 424.833,405.167 424.167,404.833 423.5,404.5C 423.833,401.833 424.167,399.167 424.5,396.5C 425.595,391.216 427.261,386.216 429.5,381.5 Z"/></g>
<g><path style="opacity:1" fill="#181717" d="M 512.5,418.5 C 514.607,419.468 516.941,419.802 519.5,419.5C 519.5,441.833 519.5,464.167 519.5,486.5C 517.167,486.5 514.833,486.5 512.5,486.5C 512.5,492.5 512.5,498.5 512.5,504.5C 511.833,504.5 511.167,504.5 510.5,504.5C 510.5,498.5 510.5,492.5 510.5,486.5C 508.167,486.5 505.833,486.5 503.5,486.5C 503.5,464.167 503.5,441.833 503.5,419.5C 505.792,419.756 507.959,419.423 510,418.5C 511.166,387.841 511.999,387.841 512.5,418.5 Z"/></g>
<g><path style="opacity:1" fill="#e7e5e5" d="M 512.5,420.5 C 513.93,420.421 515.264,420.754 516.5,421.5C 517.5,442.489 517.833,463.489 517.5,484.5C 515.833,484.5 514.167,484.5 512.5,484.5C 512.5,463.167 512.5,441.833 512.5,420.5 Z"/></g>
<g><path style="opacity:1" fill="#e6e5e5" d="M 505.5,420.5 C 507.167,420.5 508.833,420.5 510.5,420.5C 510.5,441.833 510.5,463.167 510.5,484.5C 508.833,484.5 507.167,484.5 505.5,484.5C 505.5,463.167 505.5,441.833 505.5,420.5 Z"/></g>
<g><path style="opacity:1" fill="#b2afaf" d="M 444.5,373.5 C 441.637,378.323 437.304,380.323 431.5,379.5C 430.676,392.401 428.509,405.068 425,417.5C 424.623,418.942 423.79,419.942 422.5,420.5C 423.341,415.468 424.341,410.468 425.5,405.5C 426.7,397.495 428.034,389.495 429.5,381.5C 430.038,379.883 430.371,378.216 430.5,376.5C 435.515,376.959 440.181,375.959 444.5,373.5 Z"/></g>
<g><path style="opacity:1" fill="#e0e0e0" d="M 420.5,382.5 C 416.699,396.069 412.199,409.402 407,422.5C 406.833,424.5 406.667,426.5 406.5,428.5C 410.332,459.155 413.999,489.822 417.5,520.5C 417.5,523.833 417.5,527.167 417.5,530.5C 406.307,530.355 395.307,530.688 384.5,531.5C 378.964,497.819 373.297,464.152 367.5,430.5C 373.173,414.161 380.173,398.495 388.5,383.5C 390.584,385.744 393.084,387.411 396,388.5C 397.643,387.685 399.143,386.685 400.5,385.5C 403.792,385.88 406.125,384.547 407.5,381.5C 411.775,380.424 416.108,379.757 420.5,379.5C 420.5,380.5 420.5,381.5 420.5,382.5 Z"/></g>
<g><path style="opacity:1" fill="#5e5e5e" d="M 401.5,378.5 C 402.239,378.369 402.906,378.536 403.5,379C 401.105,381.64 398.605,384.14 396,386.5C 395.333,385.833 395.333,385.167 396,384.5C 398.04,382.63 399.873,380.63 401.5,378.5 Z"/></g>
<g><path style="opacity:1" fill="#acacac" d="M 420.5,382.5 C 420.5,381.5 420.5,380.5 420.5,379.5C 416.108,379.757 411.775,380.424 407.5,381.5C 406.125,384.547 403.792,385.88 400.5,385.5C 405.881,378.203 413.215,375.203 422.5,376.5C 422.741,378.898 422.074,380.898 420.5,382.5 Z"/></g>
<g><path style="opacity:1" fill="#d0d0d0" d="M 390.5,375.5 C 401.349,375.855 402.182,378.855 393,384.5C 388.594,382.382 387.76,379.382 390.5,375.5 Z"/></g>
<g><path style="opacity:1" fill="#e9e9e9" d="M 621.5,497.5 C 624.472,490.411 625.806,482.911 625.5,475C 625.141,462.459 624.308,449.959 623,437.5C 619.333,428.833 615.667,420.167 612,411.5C 591.99,374.147 572.49,336.481 553.5,298.5C 553.863,297.817 554.196,297.15 554.5,296.5C 557.776,296.212 560.61,297.545 563,300.5C 563.667,299.833 563.667,299.167 563,298.5C 561.145,296.645 559.312,294.812 557.5,293C 559.957,289.039 562.624,285.206 565.5,281.5C 566.167,280.167 566.833,280.167 567.5,281.5C 578.528,296.695 589.361,312.028 600,327.5C 616.254,356.339 632.254,385.339 648,414.5C 647.517,436.866 646.183,459.2 644,481.5C 637.017,496.803 630.017,512.136 623,527.5C 619.333,532.833 615.667,538.167 612,543.5C 611.333,541.5 611.333,539.5 612,537.5C 615.486,524.224 618.653,510.891 621.5,497.5 Z"/></g>
<g><path style="opacity:1" fill="#c2c2c2" d="M 615.5,598.5 C 629.015,560.479 642.848,522.479 657,484.5C 661.111,477.039 664.111,469.039 666,460.5C 666.667,458.5 666.667,456.5 666,454.5C 651.67,412.178 637.337,369.844 623,327.5C 605.554,310.054 588.054,292.554 570.5,275C 562.592,272.96 554.592,271.46 546.5,270.5C 545.841,267.545 545.508,264.545 545.5,261.5C 553.277,262.889 560.944,264.722 568.5,267C 585.066,279.866 601.899,292.366 619,304.5C 638,354.167 657,403.833 676,453.5C 676.546,456.899 676.213,460.232 675,463.5C 661.726,505.057 648.726,546.723 636,588.5C 635.535,589.931 634.701,591.097 633.5,592C 627.587,594.459 621.587,596.626 615.5,598.5 Z"/></g>
<g><path style="opacity:1" fill="#e3e1e1" d="M 552.5,306.5 C 564.892,331.617 577.559,356.617 590.5,381.5C 590.806,384.385 590.473,387.052 589.5,389.5C 589.64,387.876 588.973,386.71 587.5,386C 575.793,381.264 564.126,376.431 552.5,371.5C 552.43,349.902 552.43,328.236 552.5,306.5 Z"/></g>
<g><path style="opacity:1" fill="#eae8e8" d="M 550.5,303.5 C 551.906,303.973 552.573,304.973 552.5,306.5C 552.43,328.236 552.43,349.902 552.5,371.5C 564.126,376.431 575.793,381.264 587.5,386C 588.973,386.71 589.64,387.876 589.5,389.5C 584.231,403.615 581.565,418.282 581.5,433.5C 579.5,433.5 577.5,433.5 575.5,433.5C 560.59,431.896 545.923,429.562 531.5,426.5C 529.777,425.193 527.943,425.193 526,426.5C 524.226,425.035 522.392,423.702 520.5,422.5C 520.5,421.167 520.5,419.833 520.5,418.5C 517.833,418.5 515.167,418.5 512.5,418.5C 511.999,387.841 511.166,387.841 510,418.5C 507.959,419.423 505.792,419.756 503.5,419.5C 502.273,422.565 500.107,424.899 497,426.5C 493.773,426.047 490.773,425.047 488,423.5C 486.601,424.227 485.101,424.727 483.5,425C 485.744,425.05 487.411,425.883 488.5,427.5C 474.886,429.824 461.22,431.824 447.5,433.5C 445.5,433.5 443.5,433.5 441.5,433.5C 440.444,422.833 439.277,412.166 438,401.5C 434.422,394.935 432.588,387.935 432.5,380.5C 436.582,380.656 440.582,380.156 444.5,379C 447.748,375.684 451.081,372.35 454.5,369C 459.443,368.548 462.776,366.048 464.5,361.5C 474.269,355.108 484.269,348.941 494.5,343C 503.5,334.667 512.5,326.333 521.5,318C 526.744,313.261 531.41,308.095 535.5,302.5C 535.579,301.07 535.246,299.736 534.5,298.5C 538.107,297.511 541.774,297.177 545.5,297.5C 545.833,299.5 546.167,301.5 546.5,303.5C 547.833,303.5 549.167,303.5 550.5,303.5 Z"/></g>
<g><path style="opacity:1" fill="#ebebeb" d="M 507.5,291.5 C 507.586,292.496 507.252,293.329 506.5,294C 488.045,305.973 470.045,318.473 452.5,331.5C 453.29,332.401 454.29,333.068 455.5,333.5C 455.435,333.938 455.601,334.272 456,334.5C 473.573,321.962 491.407,309.796 509.5,298C 511.754,296.85 514.087,296.516 516.5,297C 520.349,300.682 524.016,304.515 527.5,308.5C 515.678,320.155 503.678,331.655 491.5,343C 473.671,352.747 456.004,362.747 438.5,373C 424.181,374.186 409.848,374.52 395.5,374C 385.714,370.85 376.048,367.516 366.5,364C 387.833,358 409.167,352 430.5,346C 432.996,344.92 435.33,343.586 437.5,342C 438.696,341.346 438.696,340.846 437.5,340.5C 432.597,343.568 427.264,345.734 421.5,347C 417.295,348.741 412.962,349.408 408.5,349C 417.037,337.428 425.204,325.594 433,313.5C 448.167,297.667 463.333,281.833 478.5,266C 479.167,265.333 479.833,265.333 480.5,266C 489.088,275.092 498.088,283.592 507.5,291.5 Z"/></g>
<g><path style="opacity:1" fill="#8d8d8d" d="M 524.5,292.5 C 521.423,292.179 519.09,293.179 517.5,295.5C 513.348,294.697 509.348,295.53 505.5,298C 488.591,309.61 471.924,321.443 455.5,333.5C 454.29,333.068 453.29,332.401 452.5,331.5C 471.581,319.78 490.247,307.28 508.5,294C 512.99,293.113 517.49,292.279 522,291.5C 523.07,291.528 523.903,291.861 524.5,292.5 Z"/></g>
<g><path style="opacity:1" fill="#0b0b0b" d="M 554.5,295.5 C 554.5,295.833 554.5,296.167 554.5,296.5C 554.196,297.15 553.863,297.817 553.5,298.5C 572.49,336.481 591.99,374.147 612,411.5C 615.667,420.167 619.333,428.833 623,437.5C 624.308,449.959 625.141,462.459 625.5,475C 625.806,482.911 624.472,490.411 621.5,497.5C 621.167,497.5 620.833,497.5 620.5,497.5C 622.146,491.583 623.479,485.583 624.5,479.5C 623.836,475.524 623.503,471.524 623.5,467.5C 623.543,464.09 623.043,460.757 622,457.5C 621.179,464.679 621.345,471.679 622.5,478.5C 617.991,498.202 613.325,517.868 608.5,537.5C 607.662,537.158 607.328,536.492 607.5,535.5C 612.24,514.968 616.406,494.301 620,473.5C 620.824,470.118 620.657,466.784 619.5,463.5C 617.906,467.855 616.572,472.188 615.5,476.5C 615.5,475.167 615.5,473.833 615.5,472.5C 616.017,466.761 617.017,461.094 618.5,455.5C 617.068,447.456 615.235,439.789 613,432.5C 610.96,434.37 609.127,436.37 607.5,438.5C 606.833,438.833 606.167,439.167 605.5,439.5C 605.737,438.209 605.404,437.209 604.5,436.5C 604.5,436.167 604.5,435.833 604.5,435.5C 602.564,425.589 600.231,415.755 597.5,406C 597.57,405.235 597.903,404.735 598.5,404.5C 601.787,414.29 604.787,424.29 607.5,434.5C 608.799,433.91 609.632,432.91 610,431.5C 610.667,427.167 610.667,422.833 610,418.5C 605.585,407.999 600.418,397.999 594.5,388.5C 593.404,385.968 592.071,383.635 590.5,381.5C 577.559,356.617 564.892,331.617 552.5,306.5C 552.573,304.973 551.906,303.973 550.5,303.5C 549.737,302.732 548.737,302.232 547.5,302C 549.256,301.798 550.922,301.298 552.5,300.5C 551.178,298.133 551.845,296.467 554.5,295.5 Z"/></g>
<g><path style="opacity:1" fill="#575757" d="M 623.5,467.5 C 622.518,470.962 622.185,474.629 622.5,478.5C 621.345,471.679 621.179,464.679 622,457.5C 623.043,460.757 623.543,464.09 623.5,467.5 Z"/></g>
<g><path style="opacity:1" fill="#9c9c9c" d="M 616.5,434.5 C 619.139,437.299 619.972,440.632 619,444.5C 616.997,441.5 616.164,438.167 616.5,434.5 Z"/></g>
<g><path style="opacity:1" fill="#414141" d="M 574.5,344.5 C 577.449,348.394 579.282,352.727 580,357.5C 577.297,353.566 575.464,349.233 574.5,344.5 Z"/></g>
<g><path style="opacity:1" fill="#d0cfcf" d="M 554.5,295.5 C 551.845,296.467 551.178,298.133 552.5,300.5C 550.922,301.298 549.256,301.798 547.5,302C 548.737,302.232 549.737,302.732 550.5,303.5C 549.167,303.5 547.833,303.5 546.5,303.5C 546.167,301.5 545.833,299.5 545.5,297.5C 541.774,297.177 538.107,297.511 534.5,298.5C 535.246,299.736 535.579,301.07 535.5,302.5C 533.456,303.031 531.789,304.198 530.5,306C 529.5,306.667 528.5,306.667 527.5,306C 523.963,302.631 520.629,299.131 517.5,295.5C 519.09,293.179 521.423,292.179 524.5,292.5C 524.611,293.117 524.944,293.617 525.5,294C 529.407,294.677 533.241,295.51 537,296.5C 537.432,295.4 536.932,294.733 535.5,294.5C 532.064,293.808 528.73,292.808 525.5,291.5C 528.675,289.868 532.008,288.535 535.5,287.5C 536.871,285.295 538.704,283.628 541,282.5C 546.715,285.717 551.215,290.05 554.5,295.5 Z"/></g>
<g><path style="opacity:1" fill="#0c0c0c" d="M 540.5,285.5 C 544.304,287.131 546.804,289.798 548,293.5C 546.104,291.47 543.937,289.803 541.5,288.5C 539.067,290.485 539.067,292.652 541.5,295C 540.551,295.617 539.718,295.451 539,294.5C 538.293,292.919 537.46,291.419 536.5,290C 538.041,288.629 539.375,287.129 540.5,285.5 Z"/></g>
<g><path style="opacity:1" fill="#b9b9b9" d="M 541.5,263.5 C 542.75,263.577 543.583,264.244 544,265.5C 544.191,272.129 541.857,277.796 537,282.5C 535.313,278.364 534.647,274.03 535,269.5C 537.063,267.266 539.229,265.266 541.5,263.5 Z"/></g>
<g><path style="opacity:1" fill="#dbdbdb" d="M 507.5,291.5 C 499.737,282.234 491.404,273.401 482.5,265C 497.471,263.27 512.471,263.103 527.5,264.5C 529.765,270.128 531.931,275.794 534,281.5C 534.798,283.259 534.631,284.926 533.5,286.5C 524.962,288.941 516.295,290.608 507.5,291.5 Z"/></g>
<g><path style="opacity:1" fill="#cbcbcb" d="M 478.5,252.5 C 494.167,252.5 509.833,252.5 525.5,252.5C 525.777,255.448 525.444,258.281 524.5,261C 509.147,261.501 493.813,262.334 478.5,263.5C 463.152,279.015 447.985,294.681 433,310.5C 424,323.833 415,337.167 406,350.5C 401.674,352.269 397.174,353.603 392.5,354.5C 391.833,354.167 391.167,353.833 390.5,353.5C 394.568,342.128 398.735,330.795 403,319.5C 428.521,297.502 453.688,275.168 478.5,252.5 Z"/></g>
<g><path style="opacity:1" fill="#c7c7c7" d="M 602.5,550.5 C 604.252,550.418 605.252,551.251 605.5,553C 602.731,569.215 599.731,585.382 596.5,601.5C 595.5,601.5 594.5,601.5 593.5,601.5C 595.961,584.399 598.961,567.399 602.5,550.5 Z"/></g>
<g><path style="opacity:1" fill="#d2cfcf" d="M 499.5,598.5 C 498.5,598.5 497.5,598.5 496.5,598.5C 495.041,598.567 493.708,598.234 492.5,597.5C 487.113,596.89 482.613,594.556 479,590.5C 476.563,589.2 474.063,588.2 471.5,587.5C 471.244,616.513 471.577,645.513 472.5,674.5C 468.595,663.959 464.762,653.292 461,642.5C 459.442,629.53 458.275,616.53 457.5,603.5C 457.666,596.825 457.5,590.158 457,583.5C 456.79,581.942 456.29,580.609 455.5,579.5C 455.174,575.116 455.508,570.783 456.5,566.5C 460.288,571.244 463.955,576.077 467.5,581C 474.668,585.083 481.668,589.416 488.5,594C 492.157,595.822 495.824,597.322 499.5,598.5 Z"/></g>
<g><path style="opacity:1" fill="#d0cece" d="M 565.5,567.5 C 565.806,578.316 565.806,589.316 565.5,600.5C 564.57,614.515 563.404,628.515 562,642.5C 557.291,654.286 553.624,666.286 551,678.5C 552.093,675.691 553.26,673.024 554.5,670.5C 554.196,673.522 553.696,676.522 553,679.5C 552.259,680.641 551.425,680.641 550.5,679.5C 549.808,674.952 549.141,670.452 548.5,666C 548.676,664.308 549.176,662.808 550,661.5C 551.008,637.176 551.508,612.843 551.5,588.5C 546.69,589.572 542.357,591.738 538.5,595C 535.937,596.079 533.271,596.579 530.5,596.5C 538.434,590.857 546.767,585.691 555.5,581C 558.964,576.559 562.298,572.059 565.5,567.5 Z"/></g>
<g><path style="opacity:1" fill="#3d3d3d" d="M 442.5,576.5 C 445.85,576.335 449.183,576.502 452.5,577C 449.905,579.213 447.072,581.047 444,582.5C 441.535,580.946 441.035,578.946 442.5,576.5 Z"/></g>
<g><path style="opacity:1" fill="#474444" d="M 591.5,598.5 C 584.398,594.615 577.065,591.282 569.5,588.5C 570.228,585.921 570.728,583.254 571,580.5C 577.414,584.957 583.914,589.291 590.5,593.5C 591.452,595.045 591.785,596.712 591.5,598.5 Z"/></g>
<g><path style="opacity:1" fill="#424242" d="M 574.5,580.5 C 574.917,579.876 575.584,579.543 576.5,579.5C 581.844,580.836 587.177,582.169 592.5,583.5C 593.602,586.19 593.436,588.857 592,591.5C 586.265,587.582 580.432,583.916 574.5,580.5 Z"/></g>
<g><path style="opacity:1" fill="#484545" d="M 453.5,588.5 C 450.833,589.5 448.167,590.5 445.5,591.5C 444.677,589.545 444.51,587.545 445,585.5C 447.333,583.833 449.667,582.167 452,580.5C 452.272,583.254 452.772,585.921 453.5,588.5 Z"/></g>
<g><path style="opacity:1" fill="#888484" d="M 455.5,579.5 C 456.29,580.609 456.79,581.942 457,583.5C 457.5,590.158 457.666,596.825 457.5,603.5C 455.99,595.716 455.323,587.716 455.5,579.5 Z"/></g>
<g><path style="opacity:1" fill="#e9e7e7" d="M 492.5,597.5 C 492.81,603.758 492.476,609.924 491.5,616C 492.167,642.667 492.833,669.333 493.5,696C 492.833,696.333 492.167,696.667 491.5,697C 493.308,699.702 492.308,701.702 488.5,703C 491.167,704 491.167,705 488.5,706C 491.167,706.667 491.167,707.333 488.5,708C 489.982,710.592 489.648,712.925 487.5,715C 488.167,715.333 488.833,715.667 489.5,716C 486.332,716.582 485.999,717.582 488.5,719C 486.854,720.555 486.521,722.221 487.5,724C 486.636,725.137 485.636,726.47 484.5,728C 486.359,730.598 486.359,733.432 484.5,736.5C 480.58,736.849 479.914,738.182 482.5,740.5C 483.086,740.291 483.586,739.957 484,739.5C 486.277,740.117 488.444,740.784 490.5,741.5C 488.167,741.5 485.833,741.5 483.5,741.5C 465.403,734.855 447.57,727.522 430,719.5C 417.401,686.765 405.567,653.765 394.5,620.5C 394.5,619.833 394.5,619.167 394.5,618.5C 400.334,614.079 406.668,610.412 413.5,607.5C 415.713,606.227 418.046,605.227 420.5,604.5C 425.735,604.578 430.402,606.245 434.5,609.5C 435.554,609.32 436.554,608.987 437.5,608.5C 438.833,609.5 440.167,610.5 441.5,611.5C 443.325,610.429 444.492,611.096 445,613.5C 445.741,612.359 446.575,612.359 447.5,613.5C 448.251,612.624 448.751,611.624 449,610.5C 450.458,611.747 451.958,611.747 453.5,610.5C 454.917,613.092 455.917,615.759 456.5,618.5C 458.081,639.413 463.248,659.413 472,678.5C 472.49,677.207 472.657,675.873 472.5,674.5C 471.577,645.513 471.244,616.513 471.5,587.5C 474.063,588.2 476.563,589.2 479,590.5C 482.613,594.556 487.113,596.89 492.5,597.5 Z"/></g>
<g><path style="opacity:1" fill="#e8e6e6" d="M 488.5,429.5 C 490.833,429.5 493.167,429.5 495.5,429.5C 494.123,449.724 492.123,469.89 489.5,490C 489.99,492.503 491.323,494.503 493.5,496C 497,498.833 500.5,501.667 504,504.5C 504.499,498.843 504.666,493.176 504.5,487.5C 506.167,487.5 507.833,487.5 509.5,487.5C 509.178,493.358 509.511,499.025 510.5,504.5C 511.167,504.5 511.833,504.5 512.5,504.5C 513.489,499.025 513.822,493.358 513.5,487.5C 515.167,487.5 516.833,487.5 518.5,487.5C 518.334,493.176 518.501,498.843 519,504.5C 523.667,500.5 528.333,496.5 533,492.5C 531.429,471.786 529.262,451.12 526.5,430.5C 528.743,429.526 531.076,429.192 533.5,429.5C 547.247,430.983 560.914,432.983 574.5,435.5C 576.214,436.738 578.214,437.405 580.5,437.5C 579.261,456.221 577.428,474.888 575,493.5C 571.85,504.121 568.016,514.454 563.5,524.5C 553.064,545.611 543.064,566.944 533.5,588.5C 532.596,589.209 532.263,590.209 532.5,591.5C 532.423,592.75 531.756,593.583 530.5,594C 524.483,595.899 518.483,597.565 512.5,599C 518.572,598.871 524.572,598.037 530.5,596.5C 533.271,596.579 535.937,596.079 538.5,595C 542.357,591.738 546.69,589.572 551.5,588.5C 551.508,612.843 551.008,637.176 550,661.5C 549.176,662.808 548.676,664.308 548.5,666C 549.141,670.452 549.808,674.952 550.5,679.5C 551.425,680.641 552.259,680.641 553,679.5C 553.696,676.522 554.196,673.522 554.5,670.5C 557.359,661.09 560.526,651.757 564,642.5C 565.254,624.293 567.087,606.293 569.5,588.5C 577.065,591.282 584.398,594.615 591.5,598.5C 591.5,599.833 591.5,601.167 591.5,602.5C 605.155,604.829 617.488,610.162 628.5,618.5C 628.5,619.167 628.5,619.833 628.5,620.5C 617.25,653.674 605.417,686.674 593,719.5C 575.401,726.809 557.901,734.309 540.5,742C 536.514,742.499 532.514,742.666 528.5,742.5C 531.942,741.252 535.608,740.419 539.5,740C 537.363,733.497 535.696,726.83 534.5,720C 535.051,718.602 535.384,717.268 535.5,716C 534.833,715.667 534.167,715.333 533.5,715C 534.357,714.311 535.023,713.478 535.5,712.5C 535.154,711.304 534.654,711.304 534,712.5C 533.879,710.273 533.046,708.44 531.5,707C 532.059,706.275 532.392,705.442 532.5,704.5C 531.295,699.665 530.295,694.832 529.5,690C 530.167,661.667 530.833,633.333 531.5,605C 530.91,603.491 530.244,601.991 529.5,600.5C 528.28,601.711 527.113,601.711 526,600.5C 524.561,602.014 523.061,602.347 521.5,601.5C 520.522,601.977 519.689,602.643 519,603.5C 517.467,603.056 515.967,602.723 514.5,602.5C 513.808,603.025 513.308,603.692 513,604.5C 512.612,603.572 511.945,602.905 511,602.5C 508.15,602.575 505.316,602.575 502.5,602.5C 499.819,602.068 497.819,600.734 496.5,598.5C 497.5,598.5 498.5,598.5 499.5,598.5C 503.185,598.895 506.852,599.062 510.5,599C 510.167,598.667 509.833,598.333 509.5,598C 502.64,597.54 496.307,595.706 490.5,592.5C 480.198,570.377 469.698,548.377 459,526.5C 455.86,516.748 452.527,507.081 449,497.5C 446.142,479.094 443.976,460.594 442.5,442C 442.698,439.879 443.364,438.046 444.5,436.5C 458.937,433.539 473.604,431.206 488.5,429.5 Z"/></g>
<g><path style="opacity:1" fill="#8b8888" d="M 565.5,567.5 C 565.56,566.957 565.893,566.624 566.5,566.5C 566.833,571.167 567.167,575.833 567.5,580.5C 567.692,587.404 567.025,594.07 565.5,600.5C 565.806,589.316 565.806,578.316 565.5,567.5 Z"/></g>
<g><path style="opacity:1" fill="#eeecec" d="M 492.5,597.5 C 493.708,598.234 495.041,598.567 496.5,598.5C 497.819,600.734 499.819,602.068 502.5,602.5C 505.316,602.575 508.15,602.575 511,602.5C 511.945,602.905 512.612,603.572 513,604.5C 513.308,603.692 513.808,603.025 514.5,602.5C 515.967,602.723 517.467,603.056 519,603.5C 519.689,602.643 520.522,601.977 521.5,601.5C 523.061,602.347 524.561,602.014 526,600.5C 527.113,601.711 528.28,601.711 529.5,600.5C 530.244,601.991 530.91,603.491 531.5,605C 530.833,633.333 530.167,661.667 529.5,690C 530.295,694.832 531.295,699.665 532.5,704.5C 532.392,705.442 532.059,706.275 531.5,707C 533.046,708.44 533.879,710.273 534,712.5C 534.654,711.304 535.154,711.304 535.5,712.5C 535.023,713.478 534.357,714.311 533.5,715C 534.167,715.333 534.833,715.667 535.5,716C 535.384,717.268 535.051,718.602 534.5,720C 535.696,726.83 537.363,733.497 539.5,740C 535.608,740.419 531.942,741.252 528.5,742.5C 523.5,742.5 518.5,742.5 513.5,742.5C 513.667,728.829 513.5,715.163 513,701.5C 511.575,696.422 510.075,696.588 508.5,702C 509.49,715.421 509.823,728.921 509.5,742.5C 503.19,741.81 496.857,741.476 490.5,741.5C 488.444,740.784 486.277,740.117 484,739.5C 483.586,739.957 483.086,740.291 482.5,740.5C 479.914,738.182 480.58,736.849 484.5,736.5C 486.359,733.432 486.359,730.598 484.5,728C 485.636,726.47 486.636,725.137 487.5,724C 486.521,722.221 486.854,720.555 488.5,719C 485.999,717.582 486.332,716.582 489.5,716C 488.833,715.667 488.167,715.333 487.5,715C 489.648,712.925 489.982,710.592 488.5,708C 491.167,707.333 491.167,706.667 488.5,706C 491.167,705 491.167,704 488.5,703C 492.308,701.702 493.308,699.702 491.5,697C 492.167,696.667 492.833,696.333 493.5,696C 492.833,669.333 492.167,642.667 491.5,616C 492.476,609.924 492.81,603.758 492.5,597.5 Z"/></g>
<g><path style="opacity:1" fill="#4d4949" d="M 424.5,603.5 C 422.901,603.232 421.568,603.566 420.5,604.5C 418.046,605.227 415.713,606.227 413.5,607.5C 416.096,603.029 419.763,601.695 424.5,603.5 Z"/></g>
<g><path style="opacity:1" fill="#d6d4d4" d="M 453.5,588.5 C 454.894,598.441 455.894,608.441 456.5,618.5C 455.917,615.759 454.917,613.092 453.5,610.5C 451.958,611.747 450.458,611.747 449,610.5C 448.751,611.624 448.251,612.624 447.5,613.5C 446.575,612.359 445.741,612.359 445,613.5C 444.492,611.096 443.325,610.429 441.5,611.5C 440.167,610.5 438.833,609.5 437.5,608.5C 436.554,608.987 435.554,609.32 434.5,609.5C 430.402,606.245 425.735,604.578 420.5,604.5C 421.568,603.566 422.901,603.232 424.5,603.5C 430.486,604.829 436.486,606.163 442.5,607.5C 445.226,607.145 447.226,605.812 448.5,603.5C 447.492,599.482 446.492,595.482 445.5,591.5C 448.167,590.5 450.833,589.5 453.5,588.5 Z"/></g>
<g><path style="opacity:1" fill="#121212" d="M 394.5,620.5 C 405.567,653.765 417.401,686.765 430,719.5C 447.57,727.522 465.403,734.855 483.5,741.5C 492.321,742.551 501.321,743.217 510.5,743.5C 510.167,729.817 510.501,716.15 511.5,702.5C 512.167,715.994 512.833,729.327 513.5,742.5C 518.5,742.5 523.5,742.5 528.5,742.5C 532.514,742.666 536.514,742.499 540.5,742C 557.901,734.309 575.401,726.809 593,719.5C 605.417,686.674 617.25,653.674 628.5,620.5C 629.895,618.946 630.561,619.279 630.5,621.5C 618.967,654.93 607.134,688.264 595,721.5C 576.906,729.129 558.739,736.629 540.5,744C 520.828,745.792 501.162,745.792 481.5,744C 466.247,737.471 450.914,731.138 435.5,725C 432.751,723.877 430.251,722.377 428,720.5C 415.11,687.161 403.444,653.495 393,619.5C 393.383,620.056 393.883,620.389 394.5,620.5 Z"/></g>
<g><path style="opacity:1" fill="#d5d2d2" d="M 513.5,742.5 C 512.833,729.327 512.167,715.994 511.5,702.5C 510.501,716.15 510.167,729.817 510.5,743.5C 501.321,743.217 492.321,742.551 483.5,741.5C 485.833,741.5 488.167,741.5 490.5,741.5C 496.857,741.476 503.19,741.81 509.5,742.5C 509.823,728.921 509.49,715.421 508.5,702C 510.075,696.588 511.575,696.422 513,701.5C 513.5,715.163 513.667,728.829 513.5,742.5 Z"/></g>
</svg>
