<svg width="24" height="24" viewBox="0 0 24 24" fill="none" xmlns="http://www.w3.org/2000/svg">
<path d="M19.1251 12.125C19.1264 13.0605 18.9431 13.987 18.5855 14.8515C18.228 15.716 17.7033 16.5013 17.0415 17.1626C16.3795 17.8246 15.5935 18.3498 14.7285 18.7079C13.8635 19.0661 12.9363 19.2503 12.0001 19.25C10.9924 19.2525 9.99576 19.0397 9.07689 18.6261L6.09826 19.0667C5.95037 19.0908 5.79882 19.0785 5.65677 19.0308C5.51473 18.983 5.38648 18.9013 5.28317 18.7928C5.17986 18.6843 5.10461 18.5521 5.06397 18.4079C5.02332 18.2637 5.0185 18.1117 5.04993 17.9652L5.46356 14.9434C5.07106 14.0559 4.87052 13.0954 4.87508 12.125C4.8738 11.1895 5.05719 10.263 5.41473 9.39852C5.77228 8.53407 6.29695 7.74869 6.95865 7.08743C7.62061 6.42532 8.40658 5.90017 9.27162 5.54199C10.1367 5.18382 11.0638 4.99964 12.0001 5C13.8908 5.00013 15.7041 5.75094 17.0415 7.08743C17.7029 7.74889 18.2274 8.53431 18.5849 9.39872C18.9425 10.2631 19.126 11.1896 19.1251 12.125Z" stroke="url(#paint0_linear_4253_11831)" stroke-linecap="round" stroke-linejoin="round"/>
<path d="M11.9998 12.5948C12.1246 12.5948 12.2442 12.5453 12.3324 12.4571C12.4205 12.3689 12.4701 12.2493 12.4701 12.1245C12.4701 11.9998 12.4205 11.8802 12.3324 11.792C12.2442 11.7038 12.1246 11.6543 11.9998 11.6543C11.8751 11.6543 11.7555 11.7038 11.6673 11.792C11.5791 11.8802 11.5296 11.9998 11.5296 12.1245C11.5296 12.2493 11.5791 12.3689 11.6673 12.4571C11.7555 12.5453 11.8751 12.5948 11.9998 12.5948ZM15.2958 12.5948C15.4205 12.5948 15.5401 12.5453 15.6283 12.4571C15.7165 12.3689 15.7661 12.2493 15.7661 12.1245C15.7661 11.9998 15.7165 11.8802 15.6283 11.792C15.5401 11.7038 15.4205 11.6543 15.2958 11.6543C15.1711 11.6543 15.0515 11.7038 14.9633 11.792C14.8751 11.8802 14.8256 11.9998 14.8256 12.1245C14.8256 12.2493 14.8751 12.3689 14.9633 12.4571C15.0515 12.5453 15.1711 12.5948 15.2958 12.5948ZM8.70385 12.5948C8.76561 12.5948 8.82677 12.5827 8.88384 12.5591C8.94091 12.5356 8.99278 12.501 9.03648 12.4573C9.08019 12.4137 9.11487 12.3619 9.13855 12.3049C9.16222 12.2478 9.17444 12.1867 9.17449 12.1249C9.17454 12.0632 9.16243 12.002 9.13884 11.9449C9.11525 11.8879 9.08066 11.836 9.03703 11.7923C8.9934 11.7486 8.94159 11.7139 8.88455 11.6902C8.82752 11.6666 8.76638 11.6543 8.70462 11.6543C8.57991 11.6543 8.4603 11.7038 8.37211 11.792C8.28392 11.8802 8.23438 11.9998 8.23438 12.1245C8.23438 12.2493 8.28392 12.3689 8.37211 12.4571C8.4603 12.5453 8.57914 12.5948 8.70385 12.5948Z" stroke="url(#paint1_linear_4253_11831)" stroke-width="0.6" stroke-linecap="round" stroke-linejoin="round"/>
<defs>
<linearGradient id="paint0_linear_4253_11831" x1="2.49999" y1="12.8036" x2="19.9167" y2="12.8036" gradientUnits="userSpaceOnUse">
<stop stop-color="#1A4EFF"/>
<stop offset="0.816667" stop-color="#C522FF"/>
</linearGradient>
<linearGradient id="paint1_linear_4253_11831" x1="6.97909" y1="12.1693" x2="16.1845" y2="12.1693" gradientUnits="userSpaceOnUse">
<stop stop-color="#1A4EFF"/>
<stop offset="0.816667" stop-color="#C522FF"/>
</linearGradient>
</defs>
</svg>
