<svg width="72" height="50" viewBox="0 0 72 50" fill="none" xmlns="http://www.w3.org/2000/svg">
<rect width="72" height="50" rx="25" fill="url(#paint0_linear_3968_3105)"/>
<path fill-rule="evenodd" clip-rule="evenodd" d="M32.5625 15C32.5625 13.1015 34.1015 11.5625 36 11.5625C37.8985 11.5625 39.4375 13.1015 39.4375 15C39.4375 16.8985 37.8985 18.4375 36 18.4375C34.1015 18.4375 32.5625 16.8985 32.5625 15Z" fill="white"/>
<path d="M31.2789 24.468L28.5597 23.5616C27.7776 23.3009 27.25 22.5689 27.25 21.7444C27.25 20.5249 28.3744 19.616 29.5668 19.8715L31.9388 20.3797C32.0707 20.408 32.1366 20.4221 32.202 20.4357C34.7075 20.9539 37.2925 20.9539 39.798 20.4357C39.8634 20.4221 39.9293 20.408 40.0612 20.3797L42.4332 19.8715C43.6256 19.616 44.75 20.5249 44.75 21.7444C44.75 22.5689 44.2224 23.3009 43.4403 23.5616L40.7211 24.468C40.3925 24.5775 40.2282 24.6323 40.1047 24.7085C39.6839 24.9683 39.4558 25.4516 39.5228 25.9416C39.5425 26.0854 39.6046 26.2471 39.729 26.5703L41.2875 30.6224C41.7514 31.8286 40.861 33.125 39.5687 33.125C38.9078 33.125 38.2977 32.7709 37.9698 32.1971L36 28.75L34.0302 32.1971C33.7023 32.7709 33.0922 33.125 32.4313 33.125C31.139 33.125 30.2486 31.8286 30.7125 30.6224L32.271 26.5703C32.3954 26.2471 32.4575 26.0854 32.4772 25.9416C32.5442 25.4516 32.3161 24.9683 31.8953 24.7085C31.7718 24.6323 31.6075 24.5775 31.2789 24.468Z" fill="white"/>
<path d="M36 37.5C42.9036 37.5 48.5 34.9816 48.5 31.875C48.5 29.7227 45.8137 27.8527 41.8675 26.9069L43.0375 29.949C43.9738 32.3833 42.1769 34.9997 39.5687 34.9997C38.235 34.9997 37.0035 34.285 36.3418 33.127L36 32.5288L35.6582 33.127C34.9965 34.285 33.765 34.9997 32.4313 34.9997C29.8231 34.9997 28.0262 32.3833 28.9625 29.949L30.1325 26.9069C26.1863 27.8527 23.5 29.7227 23.5 31.875C23.5 34.9816 29.0964 37.5 36 37.5Z" fill="white"/>
<defs>
<linearGradient id="paint0_linear_3968_3105" x1="12.6" y1="7.5" x2="37.7517" y2="55.2775" gradientUnits="userSpaceOnUse">
<stop stop-color="#1A4EFF"/>
<stop offset="0.846667" stop-color="#C522FF"/>
</linearGradient>
</defs>
</svg>
