<svg width="11" height="12" viewBox="0 0 11 12" fill="none" xmlns="http://www.w3.org/2000/svg">
<path d="M10.6665 7.99973V0.666401C10.666 0.566264 10.643 0.467518 10.5991 0.377495C10.5553 0.287472 10.4917 0.208485 10.4131 0.146401C10.3357 0.0837485 10.2452 0.0392498 10.1483 0.016176C10.0514 -0.00689771 9.95051 -0.00795987 9.85313 0.0130675L3.85313 1.3464C3.70501 1.3798 3.57273 1.46277 3.47817 1.58157C3.38362 1.70037 3.33245 1.8479 3.33313 1.99973V7.55973C2.87802 7.34488 2.36551 7.28339 1.87249 7.38448C1.37947 7.48558 0.932517 7.74381 0.59869 8.12044C0.264863 8.49707 0.0621583 8.97179 0.0209849 9.47338C-0.0201884 9.97497 0.10239 10.4764 0.37033 10.9024C0.638271 11.3284 1.03713 11.6561 1.50706 11.8362C1.977 12.0164 2.49268 12.0393 2.97673 11.9015C3.46079 11.7638 3.88713 11.4728 4.19179 11.0722C4.49645 10.6716 4.663 10.183 4.66646 9.67973C4.67398 9.5643 4.67398 9.4485 4.66646 9.33307V2.53307L9.33313 1.49973V6.2264C8.87776 6.01142 8.36494 5.94997 7.87167 6.05129C7.3784 6.15261 6.93132 6.41123 6.59757 6.78831C6.26382 7.16539 6.06141 7.64057 6.02075 8.14249C5.98008 8.64441 6.10336 9.14598 6.37206 9.57186C6.64075 9.99775 7.04037 10.325 7.51089 10.5044C7.98142 10.6838 8.49745 10.7057 8.98148 10.5668C9.46552 10.4279 9.89143 10.1358 10.1953 9.73419C10.4991 9.33261 10.6644 8.8433 10.6665 8.33973C10.6722 8.22647 10.6722 8.11299 10.6665 7.99973Z" fill="#7879FF"/>
</svg>
