<svg width="25" height="24" viewBox="0 0 25 24" fill="none" xmlns="http://www.w3.org/2000/svg">
<path fill-rule="evenodd" clip-rule="evenodd" d="M10.207 2.40992C9.5 3.03692 9.5 4.18392 9.5 6.47692V17.5249C9.5 19.8179 9.5 20.9649 10.207 21.5919C10.914 22.2189 11.995 22.0309 14.157 21.6539L16.487 21.2479C18.881 20.8299 20.078 20.6209 20.789 19.7429C21.5 18.8639 21.5 17.5939 21.5 15.0529V8.94892C21.5 6.40892 21.5 5.13892 20.79 4.25992C20.078 3.38192 18.88 3.17292 16.486 2.75592L14.158 2.34892C11.996 1.97192 10.915 1.78392 10.208 2.41092M12.5 10.1699C12.914 10.1699 13.25 10.5209 13.25 10.9539V13.0479C13.25 13.4809 12.914 13.8319 12.5 13.8319C12.086 13.8319 11.75 13.4809 11.75 13.0479V10.9539C11.75 10.5209 12.086 10.1699 12.5 10.1699Z" fill="#FF3939"/>
<path d="M8.047 4.5C5.989 4.503 4.916 4.548 4.232 5.232C3.5 5.964 3.5 7.142 3.5 9.5V14.5C3.5 16.857 3.5 18.035 4.232 18.768C4.916 19.451 5.989 19.497 8.047 19.5C8 18.876 8 18.156 8 17.377V6.623C8 5.843 8 5.123 8.047 4.5Z" fill="#FF3939"/>
</svg>
