<svg width="32" height="32" viewBox="0 0 32 32" fill="none" xmlns="http://www.w3.org/2000/svg">
<path d="M22.8438 16.8434V14.4434C22.8447 12.8214 22.2985 11.2464 21.2934 9.97322C20.2883 8.70005 18.8832 7.80311 17.3052 7.42745C17.317 7.38088 17.3264 7.3337 17.3332 7.28612V4.13411C17.3332 3.78049 17.1927 3.44135 16.9426 3.19131C16.6926 2.94126 16.3535 2.80078 15.9998 2.80078C15.6462 2.80078 15.3071 2.94126 15.057 3.19131C14.807 3.44135 14.6665 3.78049 14.6665 4.13411V7.28612C14.6733 7.3337 14.6826 7.38088 14.6945 7.42745C13.1165 7.80311 11.7114 8.70005 10.7063 9.97322C9.70121 11.2464 9.15494 12.8214 9.15584 14.4434V16.8434C9.15584 20.0248 6.6665 20.8194 6.6665 22.4101C6.6665 23.2008 6.6665 24.0008 7.38384 24.0008H24.6158C25.3332 24.0008 25.3332 23.2008 25.3332 22.4101C25.3332 20.8194 22.8438 20.0248 22.8438 16.8434ZM7.99984 8.00078C7.64624 8.00071 7.30716 7.86018 7.05717 7.61011L5.72384 6.27678C5.48096 6.02531 5.34657 5.68851 5.3496 5.33891C5.35264 4.98932 5.49287 4.6549 5.74008 4.40769C5.98729 4.16048 6.32171 4.02025 6.6713 4.01722C7.0209 4.01418 7.3577 4.14857 7.60917 4.39145L8.9425 5.72478C9.12892 5.91125 9.25586 6.1488 9.30728 6.40741C9.35871 6.66601 9.3323 6.93405 9.23141 7.17765C9.13051 7.42125 8.95966 7.62947 8.74045 7.77598C8.52123 7.9225 8.2635 8.00073 7.99984 8.00078ZM5.33317 13.3341H3.99984C3.64622 13.3341 3.30708 13.1936 3.05703 12.9436C2.80698 12.6935 2.6665 12.3544 2.6665 12.0008C2.6665 11.6472 2.80698 11.308 3.05703 11.058C3.30708 10.8079 3.64622 10.6674 3.99984 10.6674H5.33317C5.68679 10.6674 6.02593 10.8079 6.27598 11.058C6.52603 11.308 6.6665 11.6472 6.6665 12.0008C6.6665 12.3544 6.52603 12.6935 6.27598 12.9436C6.02593 13.1936 5.68679 13.3341 5.33317 13.3341ZM23.9998 8.00078C23.7362 8.00073 23.4784 7.9225 23.2592 7.77598C23.04 7.62947 22.8692 7.42125 22.7683 7.17765C22.6674 6.93405 22.641 6.66601 22.6924 6.40741C22.7438 6.1488 22.8708 5.91125 23.0572 5.72478L24.3905 4.39145C24.5135 4.2641 24.6606 4.16252 24.8233 4.09265C24.986 4.02277 25.1609 3.98599 25.338 3.98445C25.515 3.98291 25.6906 4.01664 25.8544 4.08369C26.0183 4.15073 26.1672 4.24973 26.2924 4.37492C26.4176 4.50011 26.5166 4.64898 26.5836 4.81284C26.6506 4.9767 26.6844 5.15228 26.6828 5.32932C26.6813 5.50636 26.6445 5.68132 26.5746 5.84399C26.5048 6.00666 26.4032 6.15379 26.2758 6.27678L24.9425 7.61011C24.6925 7.86018 24.3534 8.00071 23.9998 8.00078ZM27.9998 13.3341H26.6665C26.3129 13.3341 25.9737 13.1936 25.7237 12.9436C25.4736 12.6935 25.3332 12.3544 25.3332 12.0008C25.3332 11.6472 25.4736 11.308 25.7237 11.058C25.9737 10.8079 26.3129 10.6674 26.6665 10.6674H27.9998C28.3535 10.6674 28.6926 10.8079 28.9426 11.058C29.1927 11.308 29.3332 11.6472 29.3332 12.0008C29.3332 12.3544 29.1927 12.6935 28.9426 12.9436C28.6926 13.1936 28.3535 13.3341 27.9998 13.3341ZM11.7638 25.3341C12.1175 26.1648 12.7077 26.8732 13.4609 27.3711C14.214 27.869 15.097 28.1345 15.9998 28.1345C16.9027 28.1345 17.7856 27.869 18.5388 27.3711C19.292 26.8732 19.8821 26.1648 20.2358 25.3341H11.7638Z" fill="white"/>
</svg>
