<svg width="14" height="12" viewBox="0 0 14 12" fill="none" xmlns="http://www.w3.org/2000/svg">
<path d="M1.66683 11.3337C1.30016 11.3337 0.986385 11.2032 0.725496 10.9423C0.464607 10.6814 0.333941 10.3674 0.333496 10.0003V2.00033C0.333496 1.63366 0.464163 1.31988 0.725496 1.05899C0.986829 0.798103 1.30061 0.667437 1.66683 0.666992H12.3335C12.7002 0.666992 13.0142 0.797659 13.2755 1.05899C13.5368 1.32033 13.6673 1.6341 13.6668 2.00033V10.0003C13.6668 10.367 13.5364 10.681 13.2755 10.9423C13.0146 11.2037 12.7006 11.3341 12.3335 11.3337H1.66683ZM7.00016 6.66699L12.3335 3.33366V2.00033L7.00016 5.33366L1.66683 2.00033V3.33366L7.00016 6.66699Z" fill="#4344FF"/>
</svg>
