<svg width="14" height="14" viewBox="0 0 14 14" fill="none" xmlns="http://www.w3.org/2000/svg">
<path d="M8.68016 0.333008C9.36616 0.333008 10.0235 0.605674 10.5082 1.09034L12.9095 3.49167C13.1495 3.73168 13.3399 4.01662 13.4698 4.33021C13.5997 4.6438 13.6666 4.97991 13.6666 5.31934C13.6666 5.65877 13.5997 5.99488 13.4698 6.30847C13.3399 6.62206 13.1495 6.907 12.9095 7.14701L11.1475 8.90901C10.7201 9.33603 10.1566 9.59996 9.55496 9.655C8.95328 9.71004 8.35131 9.55272 7.8535 9.21034L7.7835 9.15834L3.86216 13.0803C3.55867 13.3828 3.16606 13.5798 2.74216 13.6423L2.5955 13.6603L2.44816 13.6663H1.66683C0.990829 13.6663 0.422163 13.1603 0.339496 12.451L0.333496 12.333V11.5517C0.333496 11.0823 0.498829 10.6277 0.820163 10.245L0.919496 10.1377L1.1955 9.86167C1.32049 9.73664 1.49003 9.66638 1.66683 9.66634H2.3335V8.99967C2.33352 8.83638 2.39347 8.67878 2.50197 8.55676C2.61048 8.43474 2.76 8.35678 2.92216 8.33767L3.00016 8.33301H3.66683V7.66634C3.66682 7.51981 3.71508 7.37735 3.80416 7.26101L3.86216 7.19434L4.84083 6.21501L4.79016 6.14634C4.52398 5.75899 4.36778 5.30673 4.33816 4.83767L4.3335 4.68034C4.3335 3.99434 4.60616 3.33701 5.09083 2.85234L6.85283 1.09034C7.33755 0.605771 7.99477 0.333387 8.68016 0.333008ZM9.01016 3.66634H8.99683C8.64321 3.66634 8.30407 3.80682 8.05402 4.05687C7.80397 4.30691 7.6635 4.64605 7.6635 4.99967C7.6635 5.3533 7.80397 5.69243 8.05402 5.94248C8.30407 6.19253 8.64321 6.33301 8.99683 6.33301H9.01016C9.36378 6.33301 9.70292 6.19253 9.95297 5.94248C10.203 5.69243 10.3435 5.3533 10.3435 4.99967C10.3435 4.64605 10.203 4.30691 9.95297 4.05687C9.70292 3.80682 9.36378 3.66634 9.01016 3.66634Z" fill="#4344FF"/>
</svg>
