<svg width="15" height="14" viewBox="0 0 15 14" fill="none" xmlns="http://www.w3.org/2000/svg">
<path d="M13.3332 8.16634C13.3332 8.03373 13.2805 7.90656 13.1867 7.81279C13.093 7.71902 12.9658 7.66634 12.8332 7.66634H10.8332C10.7006 7.66634 10.5734 7.71902 10.4796 7.81279C10.3858 7.90656 10.3332 8.03373 10.3332 8.16634V12.6663H9.33317V1.83301C9.33317 1.34767 9.33184 1.03301 9.30117 0.802341C9.27184 0.585674 9.2245 0.517674 9.1865 0.479674C9.1485 0.441674 9.0805 0.394341 8.86384 0.365008C8.6325 0.334341 8.3185 0.333008 7.83317 0.333008C7.34784 0.333008 7.03317 0.334341 6.8025 0.365008C6.58584 0.394341 6.51784 0.441674 6.47984 0.479674C6.44184 0.517674 6.3945 0.585674 6.36517 0.802341C6.3345 1.03367 6.33317 1.34767 6.33317 1.83301V12.6663H5.33317V4.83301C5.33317 4.7004 5.28049 4.57322 5.18672 4.47945C5.09296 4.38569 4.96578 4.33301 4.83317 4.33301H2.83317C2.70056 4.33301 2.57339 4.38569 2.47962 4.47945C2.38585 4.57322 2.33317 4.7004 2.33317 4.83301V12.6663H1.1665C1.0339 12.6663 0.906719 12.719 0.812951 12.8128C0.719182 12.9066 0.666504 13.0337 0.666504 13.1663C0.666504 13.2989 0.719182 13.4261 0.812951 13.5199C0.906719 13.6137 1.0339 13.6663 1.1665 13.6663H14.4998C14.6324 13.6663 14.7596 13.6137 14.8534 13.5199C14.9472 13.4261 14.9998 13.2989 14.9998 13.1663C14.9998 13.0337 14.9472 12.9066 14.8534 12.8128C14.7596 12.719 14.6324 12.6663 14.4998 12.6663H13.3332V8.16634Z" fill="#4344FF"/>
</svg>
