<svg width="14" height="14" viewBox="0 0 14 14" fill="none" xmlns="http://www.w3.org/2000/svg">
<path d="M12.3335 0.333008H1.66683C0.933496 0.333008 0.333496 0.933008 0.333496 1.66634V9.66634C0.333496 10.3997 0.933496 10.9997 1.66683 10.9997H4.3335V12.9997C4.3335 13.3997 4.60016 13.6663 5.00016 13.6663H5.3335C5.46683 13.6663 5.66683 13.5997 5.80016 13.4663L8.26683 10.9997H12.3335C13.0668 10.9997 13.6668 10.3997 13.6668 9.66634V1.66634C13.6668 0.933008 13.0668 0.333008 12.3335 0.333008ZM6.3335 7.66634H3.66683V4.86634L4.5335 2.99967H5.86683L4.9335 4.99967H6.3335V7.66634ZM10.3335 7.66634H7.66683V4.86634L8.5335 2.99967H9.86683L8.9335 4.99967H10.3335V7.66634Z" fill="#4344FF"/>
</svg>
