<svg width="16" height="16" viewBox="0 0 16 16" fill="none" xmlns="http://www.w3.org/2000/svg">
<path d="M8 9.5C8.82843 9.5 9.5 8.82843 9.5 8C9.5 7.17157 8.82843 6.5 8 6.5C7.17157 6.5 6.5 7.17157 6.5 8C6.5 8.82843 7.17157 9.5 8 9.5Z" fill="#4344FF"/>
<path d="M14.6997 9.375L14.685 9.36312L13.6988 8.58969C13.6363 8.54028 13.5865 8.47676 13.5533 8.40434C13.5202 8.33193 13.5047 8.25269 13.5081 8.17313V7.81187C13.505 7.73282 13.5207 7.65415 13.5539 7.58233C13.5871 7.51051 13.6368 7.44759 13.6991 7.39875L14.685 6.625L14.6997 6.61312C14.8518 6.48646 14.9538 6.30983 14.9876 6.11483C15.0214 5.91984 14.9847 5.71918 14.8841 5.54875L13.5494 3.23938C13.5479 3.2372 13.5465 3.2349 13.5453 3.2325C13.4442 3.06443 13.2874 2.93708 13.1021 2.87257C12.9169 2.80806 12.7149 2.81047 12.5313 2.87937L12.5203 2.88344L11.361 3.35C11.2878 3.37959 11.2086 3.39136 11.13 3.38435C11.0514 3.37734 10.9756 3.35175 10.9088 3.30969C10.8063 3.2451 10.7021 3.18406 10.5963 3.12656C10.5276 3.08935 10.4687 3.03654 10.4243 2.97238C10.3798 2.90821 10.3511 2.8345 10.3403 2.75719L10.1656 1.52L10.1619 1.4975C10.1239 1.30587 10.021 1.13318 9.87068 1.00844C9.72033 0.883692 9.53162 0.814505 9.33627 0.8125H6.66377C6.46566 0.813134 6.27413 0.883661 6.12293 1.01166C5.97172 1.13965 5.87054 1.31691 5.8372 1.51219L5.83439 1.52969L5.66033 2.76938C5.64965 2.84647 5.62112 2.92001 5.57702 2.98413C5.53291 3.04826 5.47444 3.1012 5.40627 3.13875C5.30012 3.19591 5.1959 3.25657 5.09377 3.32063C5.0271 3.36243 4.95146 3.38783 4.87307 3.39473C4.79468 3.40163 4.71577 3.38983 4.64283 3.36031L3.48252 2.89156L3.47158 2.88719C3.28766 2.81821 3.08538 2.81589 2.89993 2.88064C2.71448 2.94539 2.5576 3.0731 2.45658 3.24156L2.45252 3.24844L1.11595 5.55937C1.01521 5.72998 0.978443 5.93086 1.01222 6.12609C1.046 6.32131 1.14812 6.49816 1.30033 6.625L1.31502 6.63688L2.30127 7.41031C2.36372 7.45972 2.41357 7.52324 2.4467 7.59566C2.47984 7.66807 2.49533 7.74731 2.49189 7.82688V8.18812C2.49502 8.26718 2.47934 8.34585 2.44615 8.41767C2.41296 8.48949 2.36319 8.55241 2.30095 8.60125L1.31502 9.375L1.30033 9.38688C1.14827 9.51354 1.04623 9.69017 1.01246 9.88517C0.978677 10.0802 1.01536 10.2808 1.11595 10.4513L2.45064 12.7606C2.45218 12.7628 2.45353 12.7651 2.4547 12.7675C2.55583 12.9356 2.71264 13.0629 2.89788 13.1274C3.08313 13.1919 3.28511 13.1895 3.46877 13.1206L3.4797 13.1166L4.63814 12.65C4.71132 12.6204 4.79047 12.6086 4.86909 12.6156C4.94771 12.6227 5.02354 12.6482 5.09033 12.6903C5.19283 12.7551 5.29699 12.8161 5.40283 12.8734C5.47145 12.9106 5.53036 12.9635 5.57482 13.0276C5.61927 13.0918 5.64803 13.1655 5.65877 13.2428L5.83252 14.48L5.83627 14.5025C5.87436 14.6944 5.97747 14.8674 6.1282 14.9922C6.27894 15.1169 6.46809 15.1859 6.66377 15.1875H9.33627C9.53437 15.1869 9.7259 15.1163 9.8771 14.9883C10.0283 14.8603 10.1295 14.6831 10.1628 14.4878L10.1656 14.4703L10.3397 13.2306C10.3505 13.1534 10.3793 13.0798 10.4237 13.0156C10.4681 12.9515 10.5269 12.8986 10.5953 12.8612C10.7022 12.8038 10.8066 12.7428 10.9078 12.6794C10.9745 12.6376 11.0501 12.6122 11.1285 12.6053C11.2069 12.5984 11.2858 12.6102 11.3588 12.6397L12.5191 13.1069L12.53 13.1112C12.7139 13.1804 12.9162 13.1827 13.1017 13.118C13.2872 13.0532 13.4441 12.9254 13.545 12.7569C13.5463 12.7545 13.5476 12.7522 13.5491 12.75L14.8838 10.4409C14.9847 10.2704 15.0216 10.0694 14.9879 9.8741C14.9541 9.67879 14.852 9.50186 14.6997 9.375ZM10.4972 8.1175C10.4744 8.60143 10.3116 9.06832 10.0284 9.4614C9.7452 9.85448 9.3539 10.1568 8.90207 10.3316C8.45025 10.5064 7.95737 10.5462 7.48336 10.4461C7.00935 10.346 6.57464 10.1103 6.23209 9.76773C5.88954 9.42514 5.65391 8.9904 5.55386 8.51638C5.4538 8.04236 5.49363 7.54948 5.66851 7.09768C5.84338 6.64587 6.14575 6.25461 6.53887 5.97147C6.93198 5.68833 7.39889 5.52551 7.88283 5.50281C8.23025 5.48752 8.57706 5.54468 8.9012 5.67067C9.22533 5.79667 9.5197 5.98873 9.76559 6.23465C10.0115 6.48057 10.2035 6.77496 10.3295 7.09911C10.4554 7.42326 10.5125 7.77008 10.4972 8.1175Z" fill="#4344FF"/>
</svg>
