<svg width="14" height="13" viewBox="0 0 14 13" fill="none" xmlns="http://www.w3.org/2000/svg">
<path d="M11.0002 0C11.7074 0 12.3857 0.280951 12.8858 0.781048C13.3859 1.28115 13.6668 1.95942 13.6668 2.66667V8C13.6668 8.70724 13.3859 9.38552 12.8858 9.88562C12.3857 10.3857 11.7074 10.6667 11.0002 10.6667H7.85083L4.67616 12.5713C4.58056 12.6287 4.47208 12.6612 4.36068 12.6658C4.24927 12.6704 4.13849 12.647 4.03847 12.5977C3.93845 12.5484 3.85239 12.4749 3.78816 12.3837C3.72393 12.2926 3.68359 12.1868 3.67083 12.076L3.66683 12V10.6667H3.00016C2.316 10.6667 1.65801 10.4037 1.16229 9.93218C0.666566 9.46066 0.371038 8.81664 0.33683 8.13333L0.333496 8V2.66667C0.333496 1.95942 0.614448 1.28115 1.11454 0.781048C1.61464 0.280951 2.29292 0 3.00016 0H11.0002ZM8.3335 6H4.3335C4.15668 6 3.98712 6.07024 3.86209 6.19526C3.73707 6.32029 3.66683 6.48986 3.66683 6.66667C3.66683 6.84348 3.73707 7.01305 3.86209 7.13807C3.98712 7.26309 4.15668 7.33333 4.3335 7.33333H8.3335C8.51031 7.33333 8.67988 7.26309 8.8049 7.13807C8.92992 7.01305 9.00016 6.84348 9.00016 6.66667C9.00016 6.48986 8.92992 6.32029 8.8049 6.19526C8.67988 6.07024 8.51031 6 8.3335 6ZM9.66683 3.33333H4.3335C4.15668 3.33333 3.98712 3.40357 3.86209 3.5286C3.73707 3.65362 3.66683 3.82319 3.66683 4C3.66683 4.17681 3.73707 4.34638 3.86209 4.4714C3.98712 4.59643 4.15668 4.66667 4.3335 4.66667H9.66683C9.84364 4.66667 10.0132 4.59643 10.1382 4.4714C10.2633 4.34638 10.3335 4.17681 10.3335 4C10.3335 3.82319 10.2633 3.65362 10.1382 3.5286C10.0132 3.40357 9.84364 3.33333 9.66683 3.33333Z" fill="#4344FF"/>
</svg>
