<svg width="32" height="32" viewBox="0 0 32 32" fill="none" xmlns="http://www.w3.org/2000/svg">
<path d="M22.18 13.0393L22.6435 12.5759C23.4113 11.808 24.6563 11.808 25.4241 12.5759C26.192 13.3437 26.192 14.5887 25.4241 15.3565L24.9607 15.82M22.18 13.0393C22.18 13.0393 22.238 14.0241 23.1069 14.8931C23.9759 15.762 24.9607 15.82 24.9607 15.82M22.18 13.0393L17.9194 17.2999C17.6308 17.5885 17.4865 17.7328 17.3624 17.8919C17.2161 18.0796 17.0906 18.2827 16.9882 18.4975C16.9014 18.6797 16.8368 18.8732 16.7078 19.2604L16.2946 20.5L16.1609 20.901M24.9607 15.82L20.7001 20.0806C20.4115 20.3692 20.2672 20.5135 20.1081 20.6376C19.9204 20.7839 19.7173 20.9094 19.5025 21.0118C19.3203 21.0986 19.1268 21.1632 18.7396 21.2922L17.5 21.7054L17.099 21.8391M17.099 21.8391L16.6979 21.9728C16.5074 22.0363 16.2973 21.9867 16.1553 21.8447C16.0133 21.7027 15.9637 21.4926 16.0272 21.3021L16.1609 20.901M17.099 21.8391L16.1609 20.901" stroke="#2C2C2C"/>
<path d="M10 15.5C9.72386 15.5 9.5 15.7239 9.5 16C9.5 16.2761 9.72386 16.5 10 16.5V15.5ZM14 16.5C14.2761 16.5 14.5 16.2761 14.5 16C14.5 15.7239 14.2761 15.5 14 15.5V16.5ZM10 16.5H14V15.5H10V16.5Z" fill="#2C2C2C"/>
<path d="M10 11.5C9.72386 11.5 9.5 11.7239 9.5 12C9.5 12.2761 9.72386 12.5 10 12.5V11.5ZM18 12.5C18.2761 12.5 18.5 12.2761 18.5 12C18.5 11.7239 18.2761 11.5 18 11.5V12.5ZM10 12.5H18V11.5H10V12.5Z" fill="#2C2C2C"/>
<path d="M10 19.5C9.72386 19.5 9.5 19.7239 9.5 20C9.5 20.2761 9.72386 20.5 10 20.5V19.5ZM14 20.5C14.2761 20.5 14.5 20.2761 14.5 20C14.5 19.7239 14.2761 19.5 14 19.5V20.5ZM10 20.5H14V19.5H10V20.5Z" fill="#2C2C2C"/>
<path d="M23.7719 7.17157C22.5347 6 20.5433 6 16.5607 6H14.4485C10.4659 6 8.47452 6 7.23726 7.17157C6 8.34315 6 10.2288 6 14V18C6 21.7712 6 23.6569 7.23726 24.8284C8.47452 26 10.4659 26 14.4485 26H16.5607C20.5433 26 22.5347 26 23.7719 24.8284C24.7679 23.8853 24.9621 22.4796 25 20" stroke="#2C2C2C" stroke-linecap="round"/>
</svg>
