<svg width="18" height="20" viewBox="0 0 18 20" fill="none" xmlns="http://www.w3.org/2000/svg">
<path d="M0.833344 4.81484H17.1667M6.95834 8.96298V15.1852M11.0417 8.96298V15.1852M1.85418 4.81484L2.87501 17.2593C2.87501 17.8094 3.09011 18.3369 3.473 18.7259C3.85589 19.1148 4.37519 19.3334 4.91668 19.3334H13.0833C13.6248 19.3334 14.1441 19.1148 14.527 18.7259C14.9099 18.3369 15.125 17.8094 15.125 17.2593L16.1458 4.81484M5.93751 4.81484V1.70372C5.93751 1.42868 6.04506 1.16491 6.23651 0.970428C6.42795 0.775946 6.6876 0.666687 6.95834 0.666687H11.0417C11.3124 0.666687 11.5721 0.775946 11.7635 0.970428C11.955 1.16491 12.0625 1.42868 12.0625 1.70372V4.81484" stroke="#FF3E3E" stroke-linecap="round" stroke-linejoin="round"/>
</svg>
